<?xml version="1.0" encoding="utf-8" standalone="yes"?>
<!DOCTYPE svg PUBLIC "-//W3C//DTD SVG 1.1//EN" "http://www.w3.org/Graphics/SVG/1.1/DTD/svg11.dtd">
<svg width="876" height="408" viewBox="0 0 876 408" style="fill:none;stroke:none;fill-rule:evenodd;clip-rule:evenodd;stroke-linecap:round;stroke-linejoin:round;stroke-miterlimit:1.5;" version="1.1" xmlns="http://www.w3.org/2000/svg" xmlns:xlink="http://www.w3.org/1999/xlink"><style id="fontImports">@import url("https://fonts.googleapis.com/css2?family=Roboto:wght@400;700&amp;display=block");</style><rect id="" x="0" y="0" width="876" height="408" style="fill: #ffffff;"></rect><g id="items" style="isolation: isolate"><g id="blend" style="mix-blend-mode:multiply"><g id="g-root-4.cu_sy_91iye810y7vny-fill" data-item-order="-64508" data-item-id="4.cu_sy_91iye810y7vny" data-item-class="ScenePart Indexed Fill Stroke" data-item-index="4" data-renderer-id="0" transform="translate(466, 224)"><g id="4.cu_sy_91iye810y7vny-fill" stroke="none" fill="#fffce6"><g><path d="M 81.469 86.464C 81.815 87.751 82 89.104 82 90.5C 82 99.06 75.06 106 66.5 106C 63.433 106 60.575 105.109 58.169 103.573C 56.496 104.481 54.561 105 52.5 105C 49.212 105 46.247 103.68 44.151 101.565C 43.147 101.849 42.09 102 41 102C 34.373 102 29 96.404 29 89.5C 29 88.374 29.143 87.283 29.411 86.246C 27.314 84.326 26 81.566 26 78.5C 26 74.9 27.812 71.723 30.574 69.831C 29.569 67.943 29 65.788 29 63.5C 29 56.044 35.044 50 42.5 50C 43.036 50 43.566 50.031 44.086 50.092C 47.712 47.518 52.175 46 57 46C 62.757 46 67.997 48.161 71.918 51.698C 73.024 51.248 74.233 51 75.5 51C 80.747 51 85 55.253 85 60.5C 85 62.899 84.111 65.09 82.644 66.762C 84.733 69.227 86 72.46 86 76C 86 80.162 84.249 83.899 81.469 86.464ZM 18 34C 18 38.418278 21.581722 42 26 42C 30.418278 42 34 38.418278 34 34C 34 29.581722 30.418278 26 26 26C 21.581722 26 18 29.581722 18 34M 18 14C 18 16.209137 16.209137 18 14 18C 11.790863 18 10 16.209137 10 14C 10 11.790863 11.790863 10 14 10C 16.209137 10 18 11.790863 18 14"></path></g></g></g><g id="g-root-3.cu_sy_hx5yn410y7uv9-fill" data-item-order="-64506" data-item-id="3.cu_sy_hx5yn410y7uv9" data-item-class="ScenePart Indexed Fill Stroke" data-item-index="3" data-renderer-id="0" transform="translate(326, 224)"><g id="3.cu_sy_hx5yn410y7uv9-fill" stroke="none" fill="#f7e6fe"><g><path d="M 28.274 49.698C 27.102 49.247 25.83 49 24.5 49C 18.701 49 14 53.701 14 59.5C 14 60.412 14.116 61.297 14.335 62.141C 11.636 65.308 10 69.457 10 74C 10 79.691 12.567 84.764 16.576 88.063C 16.203 89.14 16 90.296 16 91.5C 16 97.299 20.701 102 26.5 102C 27.29 102 28.06 101.913 28.8 101.747C 31.354 104.365 34.979 106 39 106C 43.501 106 47.507 103.951 50.068 100.768C 51.652 102.158 53.727 103 56 103C 60.971 103 65 98.971 65 94C 65 93.139 64.879 92.307 64.654 91.519C 67.982 87.645 70 82.564 70 77C 70 72.663 68.773 68.618 66.656 65.211C 66.881 64.176 67 63.102 67 62C 67 53.716 60.284 47 52 47C 50.211 47 48.495 47.313 46.904 47.888C 44.542 46.682 41.853 46 39 46C 34.933 46 31.199 47.386 28.274 49.698ZM 62 34C 62 38.418278 65.581722 42 70 42C 74.418278 42 78 38.418278 78 34C 78 29.581722 74.418278 26 70 26C 65.581722 26 62 29.581722 62 34M 86 14C 86 16.209137 84.209137 18 82 18C 79.790863 18 78 16.209137 78 14C 78 11.790863 79.790863 10 82 10C 84.209137 10 86 11.790863 86 14"></path></g></g></g><g id="g-root-2.cu_sy_hx5yn410y7uv8-fill" data-item-order="-64504" data-item-id="2.cu_sy_hx5yn410y7uv8" data-item-class="ScenePart Indexed Fill Stroke" data-item-index="2" data-renderer-id="0" transform="translate(498, 128)"><g id="2.cu_sy_hx5yn410y7uv8-fill" stroke="none" fill="#e6f9ff"><g><path d="M 83 70C 87.95 70 92.518 68.402 96.194 65.706C 97.782 66.533 99.586 67 101.5 67C 107.851 67 113 61.851 113 55.5C 113 52.514 111.862 49.794 109.996 47.75C 112.435 45.827 114 42.846 114 39.5C 114 37.08 113.181 34.852 111.806 33.076C 111.934 32.237 112 31.376 112 30.5C 112 21.387 104.837 14 96 14C 95.01 14 94.04 14.093 93.099 14.27C 90.011 11.613 85.95 10 81.5 10C 76.933 10 72.774 11.7 69.658 14.483C 68.661 14.169 67.6 14 66.5 14C 60.701 14 56 18.701 56 24.5C 56 27.072 56.925 29.428 58.46 31.254C 56.915 33.417 56 36.098 56 39C 56 41.302 56.575 43.464 57.584 45.339C 55.359 47.746 54 50.964 54 54.5C 54 61.956 60.044 68 67.5 68C 69.122 68 70.677 67.714 72.118 67.19C 75.327 68.978 79.041 70 83 70ZM 28 40C 28 44.418278 31.581722 48 36 48C 40.418278 48 44 44.418278 44 40C 44 35.581722 40.418278 32 36 32C 31.581722 32 28 35.581722 28 40M 18 40C 18 42.209137 16.209167 44 14 44C 11.790863 44 10 42.209137 10 40C 10 37.790863 11.790863 36 14 36C 16.209167 36 18 37.790863 18 40"></path></g></g></g><g id="g-root-1.cu_sy_mczgrk10y7u2z-fill" data-item-order="-64502" data-item-id="1.cu_sy_mczgrk10y7u2z" data-item-class="ScenePart Indexed Indexed_1 Fill Stroke" data-item-index="1" data-renderer-id="0" transform="translate(266, 128)"><g id="1.cu_sy_mczgrk10y7u2z-fill" stroke="none" fill="#f5fbe9"><g><path d="M 20.598 19C 20.565 19 20.533 19 20.5 19C 14.701 19 10 23.701 10 29.5C 10 32.574 11.321 35.339 13.426 37.259C 13.147 38.459 13 39.712 13 41C 13 41.745 13.049 42.478 13.145 43.196C 11.788 45.301 11 47.809 11 50.5C 11 57.956 17.044 64 24.5 64C 24.847 64 25.19 63.987 25.53 63.961C 29.172 67.682 34.308 70 40 70C 45.641 70 50.737 67.723 54.373 64.059C 55.621 64.662 57.021 65 58.5 65C 63.747 65 68 60.747 68 55.5C 68 52.628 66.726 50.055 64.712 48.313C 67.948 45.469 70 41.232 70 36.5C 70 32.425 68.478 28.717 65.99 25.95C 65.996 25.801 66 25.651 66 25.5C 66 20.253 61.747 16 56.5 16C 55.92 16 55.353 16.052 54.802 16.151C 50.681 12.338 45.12 10 39 10C 31.475 10 24.794 13.535 20.598 19ZM 80 40C 80 44.418278 83.581722 48 88 48C 92.418278 48 96 44.418278 96 40C 96 35.581722 92.418278 32 88 32C 83.581722 32 80 35.581722 80 40M 114 40C 114 42.209137 112.209137 44 110 44C 107.790863 44 106 42.209137 106 40C 106 37.790863 107.790863 36 110 36C 112.209137 36 114 37.790863 114 40"></path></g></g></g><g id="g-root-tx_whichman_959sww10y7ton-fill" data-item-order="0" data-item-id="tx_whichman_959sww10y7ton" data-item-class="Label Stroke SceneTarget SceneTitle ColorFillBlack ColorStrokeBlack" data-item-index="none" data-renderer-id="0" transform="translate(272, 2)"><g id="tx_whichman_959sww10y7ton-fill" stroke="none" fill="#484848"><g><text style="font: bold 20px Roboto, sans-serif; white-space: pre;"><tspan x="32.25" y="34" dominant-baseline="ideographic">Which manifest type to use for </tspan><tspan x="13.92" y="58" dominant-baseline="ideographic">configuring different aspects of an </tspan><tspan x="40.75" y="82" dominant-baseline="ideographic">Adaptive AUTOSAR platform </tspan><tspan x="111.56" y="106" dominant-baseline="ideographic">deployment?</tspan></text></g></g></g><g id="g-root-face_1ha3t0g10y0u1b-fill" data-item-order="0" data-item-id="face_1ha3t0g10y0u1b" data-item-class="Icon Stroke SceneTarget ColorFillBlack ColorStrokeBlack" data-item-index="0" data-renderer-id="0" transform="translate(398, 122)"></g><g id="g-root-tx_applicat_qvxcbk10y7uha-fill" data-item-order="0" data-item-id="tx_applicat_qvxcbk10y7uha" data-item-class="Label Stroke SceneTarget Indexed Indexed_1 ColorFillBlack ColorStrokeBlack" data-item-index="1" data-renderer-id="0" transform="translate(62, 146)"><g id="tx_applicat_qvxcbk10y7uha-fill" stroke="none" fill="#484848"><g><text style="font: bold 20px Roboto, sans-serif; white-space: pre;"><tspan x="13.64" y="34" dominant-baseline="ideographic">Application Manifest</tspan></text></g></g></g><g id="g-root-appl_1cw5q5c10y0ttv-fill" data-item-order="0" data-item-id="appl_1cw5q5c10y0ttv" data-item-class="Icon Stroke SceneTarget Indexed Indexed_1 InsideFill InsideColorFill" data-item-index="1" data-renderer-id="0" transform="translate(278, 140)"></g><g id="g-root-work_1umt9k010y0umi-fill" data-item-order="0" data-item-id="work_1umt9k010y0umi" data-item-class="Icon Stroke SceneTarget Indexed InsideFill InsideColorFill" data-item-index="2" data-renderer-id="0" transform="translate(554, 140)"></g><g id="g-root-tx_machinem_1qduw8010y7tok-fill" data-item-order="0" data-item-id="tx_machinem_1qduw8010y7tok" data-item-class="Label Stroke SceneTarget Indexed ColorFillBlack ColorStrokeBlack" data-item-index="2" data-renderer-id="0" transform="translate(614, 146)"><g id="tx_machinem_1qduw8010y7tok-fill" stroke="none" fill="#484848"><g><text style="font: bold 20px Roboto, sans-serif; white-space: pre;"><tspan x="12" y="34" dominant-baseline="ideographic">Machine Manifest</tspan></text></g></g></g><g id="g-root-tx_configur_147duow10y7swd-fill" data-item-order="0" data-item-id="tx_configur_147duow10y7swd" data-item-class="Label Stroke SceneTarget Indexed Indexed_1" data-item-index="1" data-renderer-id="0" transform="translate(2, 182)"><g id="tx_configur_147duow10y7swd-fill" stroke="none" fill="#484848"><g><text style="font: 20px Roboto, sans-serif; white-space: pre;"><tspan x="14.72" y="34" dominant-baseline="ideographic">Configures application-level </tspan><tspan x="47.63" y="58" dominant-baseline="ideographic">aspects like startup and </tspan><tspan x="98.05" y="82" dominant-baseline="ideographic">service endpoints.</tspan></text></g></g></g><g id="g-root-tx_configur_4nkvj410y7vgj-fill" data-item-order="0" data-item-id="tx_configur_4nkvj410y7vgj" data-item-class="Label Stroke SceneTarget Indexed" data-item-index="2" data-renderer-id="0" transform="translate(614, 182)"><g id="tx_configur_4nkvj410y7vgj-fill" stroke="none" fill="#484848"><g><text style="font: 20px Roboto, sans-serif; white-space: pre;"><tspan x="12" y="34" dominant-baseline="ideographic">Configures machine-level </tspan><tspan x="12" y="58" dominant-baseline="ideographic">aspects like network and </tspan><tspan x="12" y="82" dominant-baseline="ideographic">hardware resources.</tspan></text></g></g></g><g id="g-root-tx_servicem_meuw0w10y7t3e-fill" data-item-order="0" data-item-id="tx_servicem_meuw0w10y7t3e" data-item-class="Label Stroke SceneTarget Indexed ColorFillBlack ColorStrokeBlack" data-item-index="3" data-renderer-id="0" transform="translate(158, 278)"><g id="tx_servicem_meuw0w10y7t3e-fill" stroke="none" fill="#484848"><g><text style="font: bold 20px Roboto, sans-serif; white-space: pre;"><tspan x="12.25" y="34" dominant-baseline="ideographic">Service Manifest</tspan></text></g></g></g><g id="g-root-hand_hssq7410y0sg1-fill" data-item-order="0" data-item-id="hand_hssq7410y0sg1" data-item-class="Icon Stroke SceneTarget Indexed InsideFill InsideColorFill" data-item-index="3" data-renderer-id="0" transform="translate(338, 272)"></g><g id="g-root-1_zjg9ls10y0t8o-fill" data-item-order="0" data-item-id="1_zjg9ls10y0t8o" data-item-class="Icon Stroke SceneTarget Indexed InsideFill InsideColorFill" data-item-index="4" data-renderer-id="0" transform="translate(494, 272)"></g><g id="g-root-tx_executio_1qbzgyo10y7uo8-fill" data-item-order="0" data-item-id="tx_executio_1qbzgyo10y7uo8" data-item-class="Label Stroke SceneTarget Indexed ColorFillBlack ColorStrokeBlack" data-item-index="4" data-renderer-id="0" transform="translate(554, 278)"><g id="tx_executio_1qbzgyo10y7uo8-fill" stroke="none" fill="#484848"><g><text style="font: bold 20px Roboto, sans-serif; white-space: pre;"><tspan x="12" y="34" dominant-baseline="ideographic">Execution Manifest</tspan></text></g></g></g><g id="g-root-tx_configur_zpoxb410y7uo9-fill" data-item-order="0" data-item-id="tx_configur_zpoxb410y7uo9" data-item-class="Label Stroke SceneTarget Indexed" data-item-index="3" data-renderer-id="0" transform="translate(50, 314)"><g id="tx_configur_zpoxb410y7uo9-fill" stroke="none" fill="#484848"><g><text style="font: 20px Roboto, sans-serif; white-space: pre;"><tspan x="28.73" y="34" dominant-baseline="ideographic">Configures service-oriented </tspan><tspan x="19.08" y="58" dominant-baseline="ideographic">communication on transport </tspan><tspan x="225.64" y="82" dominant-baseline="ideographic">layer.</tspan></text></g></g></g><g id="g-root-tx_configur_4mbxcw10y7taf-fill" data-item-order="0" data-item-id="tx_configur_4mbxcw10y7taf" data-item-class="Label Stroke SceneTarget Indexed" data-item-index="4" data-renderer-id="0" transform="translate(554, 314)"><g id="tx_configur_4mbxcw10y7taf-fill" stroke="none" fill="#484848"><g><text style="font: 20px Roboto, sans-serif; white-space: pre;"><tspan x="12" y="34" dominant-baseline="ideographic">Configures deployment-</tspan><tspan x="12" y="58" dominant-baseline="ideographic">related information for </tspan><tspan x="12" y="82" dominant-baseline="ideographic">AUTOSAR adaptive platform.</tspan></text></g></g></g><g id="g-root-4.cu_sy_91iye810y7vny-stroke" data-item-order="-64508" data-item-id="4.cu_sy_91iye810y7vny" data-item-class="ScenePart Indexed Fill Stroke" data-item-index="4" data-renderer-id="0" transform="translate(466, 224)"><g id="4.cu_sy_91iye810y7vny-stroke" fill="none" stroke-linecap="round" stroke-linejoin="round" stroke-miterlimit="4" stroke="#e3cd09" stroke-width="2"><g><path d="M 81.469 86.464C 81.815 87.751 82 89.104 82 90.5C 82 99.06 75.06 106 66.5 106C 63.433 106 60.575 105.109 58.169 103.573C 56.496 104.481 54.561 105 52.5 105C 49.212 105 46.247 103.68 44.151 101.565C 43.147 101.849 42.09 102 41 102C 34.373 102 29 96.404 29 89.5C 29 88.374 29.143 87.283 29.411 86.246C 27.314 84.326 26 81.566 26 78.5C 26 74.9 27.812 71.723 30.574 69.831C 29.569 67.943 29 65.788 29 63.5C 29 56.044 35.044 50 42.5 50C 43.036 50 43.566 50.031 44.086 50.092C 47.712 47.518 52.175 46 57 46C 62.757 46 67.997 48.161 71.918 51.698C 73.024 51.248 74.233 51 75.5 51C 80.747 51 85 55.253 85 60.5C 85 62.899 84.111 65.09 82.644 66.762C 84.733 69.227 86 72.46 86 76C 86 80.162 84.249 83.899 81.469 86.464ZM 18 34C 18 38.418278 21.581722 42 26 42C 30.418278 42 34 38.418278 34 34C 34 29.581722 30.418278 26 26 26C 21.581722 26 18 29.581722 18 34M 18 14C 18 16.209137 16.209137 18 14 18C 11.790863 18 10 16.209137 10 14C 10 11.790863 11.790863 10 14 10C 16.209137 10 18 11.790863 18 14"></path></g></g></g><g id="g-root-3.cu_sy_hx5yn410y7uv9-stroke" data-item-order="-64506" data-item-id="3.cu_sy_hx5yn410y7uv9" data-item-class="ScenePart Indexed Fill Stroke" data-item-index="3" data-renderer-id="0" transform="translate(326, 224)"><g id="3.cu_sy_hx5yn410y7uv9-stroke" fill="none" stroke-linecap="round" stroke-linejoin="round" stroke-miterlimit="4" stroke="#b65edf" stroke-width="2"><g><path d="M 28.274 49.698C 27.102 49.247 25.83 49 24.5 49C 18.701 49 14 53.701 14 59.5C 14 60.412 14.116 61.297 14.335 62.141C 11.636 65.308 10 69.457 10 74C 10 79.691 12.567 84.764 16.576 88.063C 16.203 89.14 16 90.296 16 91.5C 16 97.299 20.701 102 26.5 102C 27.29 102 28.06 101.913 28.8 101.747C 31.354 104.365 34.979 106 39 106C 43.501 106 47.507 103.951 50.068 100.768C 51.652 102.158 53.727 103 56 103C 60.971 103 65 98.971 65 94C 65 93.139 64.879 92.307 64.654 91.519C 67.982 87.645 70 82.564 70 77C 70 72.663 68.773 68.618 66.656 65.211C 66.881 64.176 67 63.102 67 62C 67 53.716 60.284 47 52 47C 50.211 47 48.495 47.313 46.904 47.888C 44.542 46.682 41.853 46 39 46C 34.933 46 31.199 47.386 28.274 49.698ZM 62 34C 62 38.418278 65.581722 42 70 42C 74.418278 42 78 38.418278 78 34C 78 29.581722 74.418278 26 70 26C 65.581722 26 62 29.581722 62 34M 86 14C 86 16.209137 84.209137 18 82 18C 79.790863 18 78 16.209137 78 14C 78 11.790863 79.790863 10 82 10C 84.209137 10 86 11.790863 86 14"></path></g></g></g><g id="g-root-2.cu_sy_hx5yn410y7uv8-stroke" data-item-order="-64504" data-item-id="2.cu_sy_hx5yn410y7uv8" data-item-class="ScenePart Indexed Fill Stroke" data-item-index="2" data-renderer-id="0" transform="translate(498, 128)"><g id="2.cu_sy_hx5yn410y7uv8-stroke" fill="none" stroke-linecap="round" stroke-linejoin="round" stroke-miterlimit="4" stroke="#17b0e3" stroke-width="2"><g><path d="M 83 70C 87.95 70 92.518 68.402 96.194 65.706C 97.782 66.533 99.586 67 101.5 67C 107.851 67 113 61.851 113 55.5C 113 52.514 111.862 49.794 109.996 47.75C 112.435 45.827 114 42.846 114 39.5C 114 37.08 113.181 34.852 111.806 33.076C 111.934 32.237 112 31.376 112 30.5C 112 21.387 104.837 14 96 14C 95.01 14 94.04 14.093 93.099 14.27C 90.011 11.613 85.95 10 81.5 10C 76.933 10 72.774 11.7 69.658 14.483C 68.661 14.169 67.6 14 66.5 14C 60.701 14 56 18.701 56 24.5C 56 27.072 56.925 29.428 58.46 31.254C 56.915 33.417 56 36.098 56 39C 56 41.302 56.575 43.464 57.584 45.339C 55.359 47.746 54 50.964 54 54.5C 54 61.956 60.044 68 67.5 68C 69.122 68 70.677 67.714 72.118 67.19C 75.327 68.978 79.041 70 83 70ZM 28 40C 28 44.418278 31.581722 48 36 48C 40.418278 48 44 44.418278 44 40C 44 35.581722 40.418278 32 36 32C 31.581722 32 28 35.581722 28 40M 18 40C 18 42.209137 16.209167 44 14 44C 11.790863 44 10 42.209137 10 40C 10 37.790863 11.790863 36 14 36C 16.209167 36 18 37.790863 18 40"></path></g></g></g><g id="g-root-1.cu_sy_mczgrk10y7u2z-stroke" data-item-order="-64502" data-item-id="1.cu_sy_mczgrk10y7u2z" data-item-class="ScenePart Indexed Indexed_1 Fill Stroke" data-item-index="1" data-renderer-id="0" transform="translate(266, 128)"><g id="1.cu_sy_mczgrk10y7u2z-stroke" fill="none" stroke-linecap="round" stroke-linejoin="round" stroke-miterlimit="4" stroke="#93c131" stroke-width="2"><g><path d="M 20.598 19C 20.565 19 20.533 19 20.5 19C 14.701 19 10 23.701 10 29.5C 10 32.574 11.321 35.339 13.426 37.259C 13.147 38.459 13 39.712 13 41C 13 41.745 13.049 42.478 13.145 43.196C 11.788 45.301 11 47.809 11 50.5C 11 57.956 17.044 64 24.5 64C 24.847 64 25.19 63.987 25.53 63.961C 29.172 67.682 34.308 70 40 70C 45.641 70 50.737 67.723 54.373 64.059C 55.621 64.662 57.021 65 58.5 65C 63.747 65 68 60.747 68 55.5C 68 52.628 66.726 50.055 64.712 48.313C 67.948 45.469 70 41.232 70 36.5C 70 32.425 68.478 28.717 65.99 25.95C 65.996 25.801 66 25.651 66 25.5C 66 20.253 61.747 16 56.5 16C 55.92 16 55.353 16.052 54.802 16.151C 50.681 12.338 45.12 10 39 10C 31.475 10 24.794 13.535 20.598 19ZM 80 40C 80 44.418278 83.581722 48 88 48C 92.418278 48 96 44.418278 96 40C 96 35.581722 92.418278 32 88 32C 83.581722 32 80 35.581722 80 40M 114 40C 114 42.209137 112.209137 44 110 44C 107.790863 44 106 42.209137 106 40C 106 37.790863 107.790863 36 110 36C 112.209137 36 114 37.790863 114 40"></path></g></g></g><g id="g-root-tx_whichman_959sww10y7ton-stroke" data-item-order="0" data-item-id="tx_whichman_959sww10y7ton" data-item-class="Label Stroke SceneTarget SceneTitle ColorFillBlack ColorStrokeBlack" data-item-index="none" data-renderer-id="0" transform="translate(272, 2)"></g><g id="g-root-face_1ha3t0g10y0u1b-stroke" data-item-order="0" data-item-id="face_1ha3t0g10y0u1b" data-item-class="Icon Stroke SceneTarget ColorFillBlack ColorStrokeBlack" data-item-index="0" data-renderer-id="0" transform="translate(398, 122)"><g id="face_1ha3t0g10y0u1b-stroke" fill="none" stroke-linecap="round" stroke-linejoin="round" stroke-miterlimit="4" stroke="#484848" stroke-width="2"><g><path d="M 46.599998 39.681999C 43.599998 36.681999 37.599998 35.181999 34.599998 38.181999M 16.9 45.681999C 16.6 44.482002 16.6 43.281998 16.6 41.781998C 16.6 25.581999 29.799999 12.382 46 12.382C 62.199997 12.382 75.399994 25.581999 75.399994 41.781998C 75.399994 52.582001 69.699997 61.882004 61 66.981995M 40.449997 77.800003C 46.449997 75.399994 45.324997 70.111 44.125 65.311005L 53.677002 61.612C 55.891281 60.755096 57.049278 58.316589 56.314003 56.059002L 56.313999 56.058998C 55.93375 54.891376 55.08989 53.931606 53.980541 53.405022C 52.871193 52.878433 51.594067 52.831413 50.449001 53.275002L 32.875 60.084999C 31.375 60.685001 29.575001 59.485001 29.575001 57.985001L 29.458 55.144001C 29.410076 53.986492 28.88414 52.900726 28.005583 52.145561C 27.127028 51.390404 25.974579 51.03352 24.823002 51.160004L 24.823 51.16C 22.704519 51.393932 21.100885 53.183647 21.1 55.315002L 21.1 67.584999C 21.1 75.385002 28.299999 81.084999 35.800003 79.284996C 35.800003 79.284996 38.949997 78.399994 40.449997 77.800003ZM 31.825001 27.681999C 31.20368 27.681999 30.700001 27.178322 30.700001 26.556999C 30.700001 25.93568 31.20368 25.431999 31.825001 25.431999M 31.825001 27.681999C 32.44632 27.681999 32.950001 27.178322 32.950001 26.556999C 32.950001 25.93568 32.44632 25.431999 31.825001 25.431999M 47.800003 27.681999C 47.17868 27.681999 46.675003 27.178322 46.675003 26.556999C 46.675003 25.93568 47.17868 25.431999 47.800003 25.431999M 47.800003 27.681999C 48.421322 27.681999 48.925003 27.178322 48.925003 26.556999C 48.925003 25.93568 48.421322 25.431999 47.800003 25.431999"></path></g></g></g><g id="g-root-tx_applicat_qvxcbk10y7uha-stroke" data-item-order="0" data-item-id="tx_applicat_qvxcbk10y7uha" data-item-class="Label Stroke SceneTarget Indexed Indexed_1 ColorFillBlack ColorStrokeBlack" data-item-index="1" data-renderer-id="0" transform="translate(62, 146)"></g><g id="g-root-appl_1cw5q5c10y0ttv-stroke" data-item-order="0" data-item-id="appl_1cw5q5c10y0ttv" data-item-class="Icon Stroke SceneTarget Indexed Indexed_1 InsideFill InsideColorFill" data-item-index="1" data-renderer-id="0" transform="translate(278, 140)"><g id="appl_1cw5q5c10y0ttv-stroke" fill="none" stroke-linecap="round" stroke-linejoin="round" stroke-miterlimit="4" stroke="#93c131" stroke-width="2"><g><path d="M 23.5 19.75C 23.5 24.720562 27.529438 28.75 32.5 28.75C 37.470566 28.75 41.5 24.720562 41.5 19.75C 41.5 14.779438 37.470566 10.75 32.5 10.75C 27.529438 10.75 23.5 14.779438 23.5 19.75ZM 32.5 15.25L 32.5 24.25M 32.5 24.25L 29.125 20.875M 32.5 24.25L 35.875 20.875M 32.5 39.25L 13 39.25M 22.75 41.875L 22.75 41.875C 22.957108 41.875 23.125 42.042892 23.125 42.25L 23.125 42.25C 23.125 42.457108 22.957108 42.625 22.75 42.625L 22.75 42.625C 22.542892 42.625 22.375 42.457108 22.375 42.25L 22.375 42.25C 22.375 42.042892 22.542892 41.875 22.75 41.875M 32.5 32.5L 32.5 42.25C 32.5 43.906857 31.156855 45.25 29.5 45.25L 16 45.25C 14.343145 45.25 13 43.906857 13 42.25L 13 13.75C 13 12.093145 14.343145 10.75 16 10.75L 23.5 10.75"></path></g></g></g><g id="g-root-work_1umt9k010y0umi-stroke" data-item-order="0" data-item-id="work_1umt9k010y0umi" data-item-class="Icon Stroke SceneTarget Indexed InsideFill InsideColorFill" data-item-index="2" data-renderer-id="0" transform="translate(554, 140)"><g id="work_1umt9k010y0umi-stroke" fill="none" stroke-linecap="round" stroke-linejoin="round" stroke-miterlimit="4" stroke="#17b0e3" stroke-width="2"><g><path d="M 18.586 20.683001L 26.0215 20.683001L 26.0215 27.3715L 18.586 27.3715ZM 30.407499 20.683001L 37.843002 20.683001L 37.843002 27.3715L 30.407499 27.3715ZM 15.5815 30.807999C 15.5815 32.706169 17.119831 34.245171 19.018002 34.246002L 37.278999 34.245998C 38.524128 34.272011 39.685966 33.622623 40.316162 32.548439C 40.94635 31.474253 40.94635 30.143248 40.316162 29.069065C 39.685966 27.994879 38.524128 27.345491 37.278999 27.3715L 19.018 27.3715C 17.120073 27.371498 15.5815 28.910072 15.5815 30.807999ZM 34.364502 30.807999C 34.364502 31.18742 34.672081 31.494999 35.051498 31.494999C 35.43092 31.494999 35.738503 31.18742 35.738503 30.807999C 35.738503 30.428581 35.43092 30.121 35.051498 30.121C 34.672081 30.121 34.364502 30.428581 34.364502 30.807999M 27.432999 30.807999C 27.432999 31.18742 27.740582 31.494999 28.119999 31.494999C 28.49942 31.494999 28.806999 31.18742 28.806999 30.807999C 28.806999 30.428581 28.49942 30.121 28.119999 30.121C 27.740582 30.121 27.432999 30.428581 27.432999 30.807999M 20.5585 30.807999C 20.5585 31.18742 20.866081 31.494999 21.245501 31.494999C 21.62492 31.494999 21.932499 31.18742 21.932499 30.807999C 21.932499 30.428581 21.62492 30.121 21.245501 30.121C 20.866081 30.121 20.5585 30.428581 20.5585 30.807999M 45.25 10.75C 44.354431 13.437334 41.839634 15.250019 39.007004 15.25L 13.75 15.25C 12.095198 15.254942 10.754942 16.595198 10.75 18.25L 10.75 42.25C 10.75 40.593143 12.093145 39.25 13.75 39.25L 39.007 39.25C 41.839634 39.250019 44.354431 37.437336 45.25 34.75ZM 10.75 42.25C 10.75 43.906857 12.093145 45.25 13.75 45.25L 25 45.25C 25.828428 45.25 26.5 44.578426 26.5 43.75L 26.5 39.25"></path></g></g></g><g id="g-root-tx_machinem_1qduw8010y7tok-stroke" data-item-order="0" data-item-id="tx_machinem_1qduw8010y7tok" data-item-class="Label Stroke SceneTarget Indexed ColorFillBlack ColorStrokeBlack" data-item-index="2" data-renderer-id="0" transform="translate(614, 146)"></g><g id="g-root-tx_configur_147duow10y7swd-stroke" data-item-order="0" data-item-id="tx_configur_147duow10y7swd" data-item-class="Label Stroke SceneTarget Indexed Indexed_1" data-item-index="1" data-renderer-id="0" transform="translate(2, 182)"></g><g id="g-root-tx_configur_4nkvj410y7vgj-stroke" data-item-order="0" data-item-id="tx_configur_4nkvj410y7vgj" data-item-class="Label Stroke SceneTarget Indexed" data-item-index="2" data-renderer-id="0" transform="translate(614, 182)"></g><g id="g-root-tx_servicem_meuw0w10y7t3e-stroke" data-item-order="0" data-item-id="tx_servicem_meuw0w10y7t3e" data-item-class="Label Stroke SceneTarget Indexed ColorFillBlack ColorStrokeBlack" data-item-index="3" data-renderer-id="0" transform="translate(158, 278)"></g><g id="g-root-hand_hssq7410y0sg1-stroke" data-item-order="0" data-item-id="hand_hssq7410y0sg1" data-item-class="Icon Stroke SceneTarget Indexed InsideFill InsideColorFill" data-item-index="3" data-renderer-id="0" transform="translate(338, 272)"><g id="hand_hssq7410y0sg1-stroke" fill="none" stroke-linecap="round" stroke-linejoin="round" stroke-miterlimit="4" stroke="#b65edf" stroke-width="2"><g><path d="M 13.857142 11.285714L 42.142857 11.285714C 42.142857 11.285714 44.714287 11.285714 44.714287 13.857142L 44.714287 21.571428C 44.714287 21.571428 44.714287 24.142857 42.142857 24.142857L 13.857142 24.142857C 13.857142 24.142857 11.285714 24.142857 11.285714 21.571428L 11.285714 13.857142C 11.285714 13.857142 11.285714 11.285714 13.857142 11.285714M 25.428572 17.714285L 30.571428 17.714285M 13.857142 24.142857C 12.436982 24.142857 11.285714 25.294125 11.285714 26.714285L 11.285714 34.42857C 11.285714 35.848732 12.436982 37 13.857142 37L 42.142857 37C 43.563019 37 44.714287 35.848732 44.714287 34.42857L 44.714287 26.714285C 44.714287 25.294125 43.563019 24.142857 42.142857 24.142857M 25.428572 30.571428L 30.571428 30.571428M 28 37L 28 44.714287M 15.142857 44.714287L 40.857143 44.714287"></path></g></g></g><g id="g-root-1_zjg9ls10y0t8o-stroke" data-item-order="0" data-item-id="1_zjg9ls10y0t8o" data-item-class="Icon Stroke SceneTarget Indexed InsideFill InsideColorFill" data-item-index="4" data-renderer-id="0" transform="translate(494, 272)"><g id="1_zjg9ls10y0t8o-stroke" fill="none" stroke-linecap="round" stroke-linejoin="round" stroke-miterlimit="4" stroke="#e3cd09" stroke-width="2"><g><path d="M 18.7195 26.818001C 19.021582 27.153288 19.451702 27.344709 19.903 27.344709C 20.3543 27.344709 20.784418 27.153288 21.0865 26.818001L 21.8515 25.972C 22.303648 25.472168 23.021236 25.310614 23.643963 25.568455C 24.266689 25.826298 24.660034 26.447838 24.626499 27.120998L 24.568001 28.261C 24.545385 28.711128 24.714319 29.149801 25.033009 29.468491C 25.351698 29.78718 25.790371 29.956114 26.240499 29.933498L 27.380501 29.875C 28.05394 29.840778 28.676102 30.233879 28.934349 30.856777C 29.1926 31.479673 29.031097 32.197678 28.531 32.649998L 27.683498 33.415001C 27.348213 33.717083 27.156792 34.147202 27.156792 34.598499C 27.156792 35.049797 27.348213 35.479919 27.6835 35.781998L 28.531 36.547001C 29.031097 36.999321 29.1926 37.717323 28.934349 38.340225C 28.676102 38.96312 28.05394 39.35622 27.380501 39.321999L 26.240499 39.2635C 25.790371 39.240883 25.351698 39.409821 25.033009 39.728508C 24.714319 40.047199 24.545385 40.485874 24.568001 40.936001L 24.626501 42.076C 24.660034 42.749161 24.266689 43.370701 23.643963 43.628544C 23.021236 43.886383 22.303648 43.724831 21.8515 43.224998L 21.0865 42.379002C 20.784418 42.043716 20.3543 41.852291 19.903 41.852291C 19.451702 41.852291 19.021582 42.043716 18.7195 42.379002L 17.9545 43.224998C 17.502352 43.724831 16.784763 43.886383 16.162037 43.628544C 15.53931 43.370701 15.145965 42.749161 15.1795 42.075996L 15.238 40.936001C 15.260614 40.485874 15.09168 40.047199 14.77299 39.728508C 14.454301 39.409821 14.015627 39.240883 13.5655 39.263496L 12.4255 39.321999C 11.753772 39.353989 11.134187 38.96109 10.876683 38.339859C 10.61918 37.71862 10.779121 37.002609 11.2765 36.549999L 12.122499 35.785C 12.457787 35.482918 12.649209 35.052799 12.649209 34.601501C 12.649209 34.1502 12.457787 33.720081 12.1225 33.417999L 11.2765 32.650002C 10.776668 32.197853 10.615113 31.480263 10.872956 30.857536C 11.130798 30.23481 11.752338 29.841465 12.4255 29.875L 13.5655 29.933498C 14.015627 29.956114 14.454301 29.78718 14.77299 29.468491C 15.09168 29.149801 15.260614 28.711128 15.238 28.261L 15.179501 27.120998C 15.145965 26.447838 15.53931 25.826298 16.162037 25.568455C 16.784763 25.310614 17.502352 25.472168 17.9545 25.972ZM 16.241499 34.598499C 16.241501 36.620689 17.88081 38.260002 19.903 38.260002C 21.92519 38.260002 23.564501 36.620689 23.564501 34.598499C 23.564501 32.576309 21.92519 30.937 19.903 30.937C 17.88081 30.937 16.241501 32.576309 16.241501 34.598499ZM 37.280502 29.184999C 36.97842 28.849714 36.548298 28.658291 36.097 28.658291C 35.645702 28.658291 35.215584 28.849714 34.913502 29.184999L 34.148502 30.032499C 33.696178 30.532598 32.978172 30.694099 32.355278 30.43585C 31.73238 30.177601 31.339277 29.555441 31.373499 28.882L 31.431999 27.742001C 31.454615 27.291872 31.285679 26.853199 30.96699 26.53451C 30.6483 26.21582 30.209627 26.046886 29.759499 26.0695L 28.619499 26.128C 27.94606 26.162222 27.323898 25.769119 27.065649 25.146223C 26.8074 24.523325 26.968901 23.805321 27.469 23.352999L 28.316502 22.588001C 28.651787 22.285919 28.843208 21.855799 28.843208 21.404501C 28.843208 20.953201 28.651787 20.523081 28.316502 20.221001L 27.469 19.455999C 26.968901 19.003679 26.8074 18.285675 27.065649 17.662777C 27.323898 17.039881 27.94606 16.646778 28.619499 16.681L 29.759501 16.7395C 30.209627 16.762115 30.6483 16.59318 30.96699 16.27449C 31.285679 15.955801 31.454615 15.517127 31.431999 15.067L 31.373499 13.927C 31.339966 13.253839 31.733311 12.632298 32.356037 12.374456C 32.978764 12.116613 33.69635 12.278167 34.148499 12.778L 34.913498 13.624C 35.215584 13.959287 35.645702 14.150709 36.097 14.150709C 36.548298 14.150709 36.97842 13.959287 37.280502 13.624001L 38.045502 12.778C 38.49765 12.278167 39.215237 12.116613 39.837963 12.374456C 40.460686 12.632298 40.854034 13.253839 40.820499 13.927L 40.762001 15.067C 40.739388 15.517127 40.908321 15.955801 41.227009 16.27449C 41.5457 16.59318 41.984371 16.762115 42.434498 16.7395L 43.574501 16.681C 44.247662 16.647465 44.869202 17.040812 45.127045 17.663536C 45.384888 18.286263 45.223331 19.003851 44.723499 19.455999L 43.877499 20.221001C 43.542213 20.523081 43.350792 20.953201 43.350792 21.404501C 43.350792 21.855799 43.542213 22.285919 43.877502 22.588001L 44.723499 23.353001C 45.223331 23.805149 45.384888 24.522738 45.127045 25.145462C 44.869202 25.768188 44.247662 26.161535 43.574501 26.128L 42.434498 26.0695C 41.984371 26.046886 41.5457 26.21582 41.227009 26.53451C 40.908321 26.853199 40.739388 27.291872 40.762001 27.742001L 40.820503 28.882C 40.854721 29.555441 40.46162 30.177601 39.838722 30.43585C 39.215824 30.694099 38.497818 30.532598 38.045502 30.032499ZM 32.435501 21.404501C 32.435501 23.426691 34.07481 25.066 36.097 25.066C 38.119194 25.066 39.758499 23.426691 39.758499 21.404501C 39.758499 19.382309 38.119194 17.743 36.097 17.743C 34.07481 17.743 32.435501 19.382309 32.435501 21.404501Z"></path></g></g></g><g id="g-root-tx_executio_1qbzgyo10y7uo8-stroke" data-item-order="0" data-item-id="tx_executio_1qbzgyo10y7uo8" data-item-class="Label Stroke SceneTarget Indexed ColorFillBlack ColorStrokeBlack" data-item-index="4" data-renderer-id="0" transform="translate(554, 278)"></g><g id="g-root-tx_configur_zpoxb410y7uo9-stroke" data-item-order="0" data-item-id="tx_configur_zpoxb410y7uo9" data-item-class="Label Stroke SceneTarget Indexed" data-item-index="3" data-renderer-id="0" transform="translate(50, 314)"></g><g id="g-root-tx_configur_4mbxcw10y7taf-stroke" data-item-order="0" data-item-id="tx_configur_4mbxcw10y7taf" data-item-class="Label Stroke SceneTarget Indexed" data-item-index="4" data-renderer-id="0" transform="translate(554, 314)"></g></g></g></svg>