<?xml version="1.0" encoding="utf-8" standalone="yes"?>
<!DOCTYPE svg PUBLIC "-//W3C//DTD SVG 1.1//EN" "http://www.w3.org/Graphics/SVG/1.1/DTD/svg11.dtd">
<svg width="581" height="540" viewBox="0 0 581 540" style="fill:none;stroke:none;fill-rule:evenodd;clip-rule:evenodd;stroke-linecap:round;stroke-linejoin:round;stroke-miterlimit:1.5;" version="1.1" xmlns="http://www.w3.org/2000/svg" xmlns:xlink="http://www.w3.org/1999/xlink"><style id="fontImports">@import url("https://fonts.googleapis.com/css2?family=Shantell+Sans:wght@300..800&amp;display=block");</style><rect id="" x="0" y="0" width="580.951" height="539.602" style="fill: #ffffff;"></rect><g id="items" style="isolation: isolate"><g id="blend" style="mix-blend-mode:multiply"><g id="g-root--1.line_sy_142dcr0135npjh-fill" data-item-order="-3845" data-item-id="-1.line_sy_142dcr0135npjh" data-item-class="ScenePart Stroke ColorStrokeBlack" data-item-index="-1" data-renderer-id="0" transform="translate(479.17681884765625, 311.72802734375)"></g><g id="g-root--1.vector_sy_zmjumk135nqbq-fill" data-item-order="-3843" data-item-id="-1.vector_sy_zmjumk135nqbq" data-item-class="ScenePart Stroke ColorStrokeBlack" data-item-index="-1" data-renderer-id="0" transform="translate(3.99981689453125, 311.7235107421875)"></g><g id="g-root-3.cu-smallCircle_sy_mb3c98135nrwp-fill" data-item-order="-3841" data-item-id="3.cu-smallCircle_sy_mb3c98135nrwp" data-item-class="ScenePart Indexed Stroke ColorStrokeBlack" data-item-index="3" data-renderer-id="0" transform="translate(472.2398681640625, 308.259521484375)"></g><g id="g-root-2.cu-smallCircle_sy_v6qci4135nr40-fill" data-item-order="-3839" data-item-id="2.cu-smallCircle_sy_v6qci4135nr40" data-item-class="ScenePart Indexed Stroke ColorStrokeBlack" data-item-index="2" data-renderer-id="0" transform="translate(278.0069580078125, 308.259521484375)"></g><g id="g-root-1.cu-smallCircle_sy_zmjumk135nqbr-fill" data-item-order="-3837" data-item-id="1.cu-smallCircle_sy_zmjumk135nqbr" data-item-class="ScenePart Indexed Indexed_1 Stroke ColorStrokeBlack" data-item-index="1" data-renderer-id="0" transform="translate(83.7740478515625, 308.259521484375)"></g><g id="g-root-tx_buildand_1cz9b64135nqx1-fill" data-item-order="0" data-item-id="tx_buildand_1cz9b64135nqx1" data-item-class="Label Stroke SceneTarget SceneTitle ColorStrokeBlack" data-item-index="none" data-renderer-id="0" transform="translate(35.47540283203125, 2)"><g id="tx_buildand_1cz9b64135nqx1-fill" stroke="none" fill="#484848"><g><text style="font: bold 25px &quot;Shantell Sans&quot;, cursive; white-space: pre;"><tspan x="14.49" y="42" dominant-baseline="ideographic">Build and Deploy Adaptive AUTOSAR </tspan><tspan x="194.37" y="72" dominant-baseline="ideographic">Platform</tspan></text></g></g></g><g id="g-root-tx_initiald_4kfsuk135nr43-fill" data-item-order="0" data-item-id="tx_initiald_4kfsuk135nr43" data-item-class="Label Stroke SceneTarget Indexed ColorStrokeBlack" data-item-index="2" data-renderer-id="0" transform="translate(209.47540283203125, 108.4853515625)"><g id="tx_initiald_4kfsuk135nr43-fill" stroke="none" fill="#484848"><g><text style="font: 20px &quot;Shantell Sans&quot;, cursive; white-space: pre;"><tspan x="50.16" y="35" dominant-baseline="ideographic">Initial </tspan><tspan x="23.66" y="59" dominant-baseline="ideographic">deployment </tspan><tspan x="13.27" y="83" dominant-baseline="ideographic">(EOL, flashing </tspan><tspan x="24.4" y="107" dominant-baseline="ideographic">whole ECU-</tspan><tspan x="59.49" y="131" dominant-baseline="ideographic">HW)</tspan></text></g></g></g><g id="g-root-tx_incremen_mb3c98135nrwq-fill" data-item-order="0" data-item-id="tx_incremen_mb3c98135nrwq" data-item-class="Label Stroke SceneTarget Indexed ColorStrokeBlack" data-item-index="3" data-renderer-id="0" transform="translate(409.70831298828125, 108.4853515625)"><g id="tx_incremen_mb3c98135nrwq-fill" stroke="none" fill="#484848"><g><text style="font: 20px &quot;Shantell Sans&quot;, cursive; white-space: pre;"><tspan x="13.23" y="35" dominant-baseline="ideographic">Incremental </tspan><tspan x="16.46" y="59" dominant-baseline="ideographic">updates via </tspan><tspan x="38.96" y="83" dominant-baseline="ideographic">update </tspan><tspan x="26.13" y="107" dominant-baseline="ideographic">campaign </tspan><tspan x="24.91" y="131" dominant-baseline="ideographic">with UCM</tspan></text></g></g></g><g id="g-root-tx_buildsof_1qaptjg135npc4-fill" data-item-order="0" data-item-id="tx_buildsof_1qaptjg135npc4" data-item-class="Label Stroke SceneTarget Indexed Indexed_1 ColorStrokeBlack" data-item-index="1" data-renderer-id="0" transform="translate(33.24249267578125, 156.4853515625)"><g id="tx_buildsof_1qaptjg135npc4-fill" stroke="none" fill="#484848"><g><text style="font: 20px &quot;Shantell Sans&quot;, cursive; white-space: pre;"><tspan x="30.41" y="35" dominant-baseline="ideographic">Build &amp; </tspan><tspan x="20.51" y="59" dominant-baseline="ideographic">software </tspan><tspan x="14.51" y="83" dominant-baseline="ideographic">packaging</tspan></text></g></g></g><g id="g-root-1_18i6uvg135w746-fill" data-item-order="0" data-item-id="1_18i6uvg135w746" data-item-class="Icon Stroke SceneTarget Indexed Indexed_1 ColorStrokeBlack" data-item-index="1" data-renderer-id="0" transform="translate(63.24249267578125, 246.106689453125)"></g><g id="g-root-wenc_1hbyfv013661hf-fill" data-item-order="0" data-item-id="wenc_1hbyfv013661hf" data-item-class="Icon Stroke SceneTarget Indexed ColorStrokeBlack" data-item-index="2" data-renderer-id="0" transform="translate(257.47540283203125, 246.106689453125)"></g><g id="g-root-mega_1q9gvd8135w4r1-fill" data-item-order="0" data-item-id="mega_1q9gvd8135w4r1" data-item-class="Icon Stroke SceneTarget Indexed ColorStrokeBlack" data-item-index="3" data-renderer-id="0" transform="translate(451.70831298828125, 246.106689453125)"></g><g id="g-root-tx_initiald_djtty411i70ne-fill" data-item-order="0" data-item-id="tx_initiald_djtty411i70ne" data-item-class="Label Stroke SceneTarget Indexed ColorStrokeBlack" data-item-index="2" data-renderer-id="0" transform="translate(191.47540283203125, 325.601806640625)"><g id="tx_initiald_djtty411i70ne-fill" stroke="none" fill="#484848"><g><text style="font: 20px &quot;Shantell Sans&quot;, cursive; white-space: pre;"><tspan x="39.97" y="35" dominant-baseline="ideographic">i.e. have the </tspan><tspan x="18.19" y="59" dominant-baseline="ideographic">POSIX OS, initial </tspan><tspan x="15.58" y="83" dominant-baseline="ideographic">environment and </tspan><tspan x="30.91" y="107" dominant-baseline="ideographic">core Adaptive </tspan><tspan x="52.11" y="131" dominant-baseline="ideographic">AUTOSAR </tspan><tspan x="15.39" y="155" dominant-baseline="ideographic">platform FCs(EM, </tspan><tspan x="23.78" y="179" dominant-baseline="ideographic">SM, PHM, UCM, </tspan><tspan x="48.06" y="203" dominant-baseline="ideographic">NM) setup</tspan></text></g></g></g><g id="g-root--1.line_sy_142dcr0135npjh-stroke" data-item-order="-3845" data-item-id="-1.line_sy_142dcr0135npjh" data-item-class="ScenePart Stroke ColorStrokeBlack" data-item-index="-1" data-renderer-id="0" transform="translate(479.17681884765625, 311.72802734375)"><g id="-1.line_sy_142dcr0135npjh-stroke" fill="none" stroke-linecap="round" stroke-linejoin="round" stroke-miterlimit="4" stroke="#484848" stroke-width="4"><g><path d="M 86.903418 10.001587C 75.103418 10.501587 63.103418 9.001587 51.303418 10.001587C 37.603418 11.101587 23.803418 10.301587 10.003418 10.001587"></path><path d="M 86.943418 10.001587L 10.003418 10.001587"></path><path d="M 78.503418 19.201587C 81.203418 15.801587 84.803418 13.301587 87.603418 10.001587C 84.503418 7.001587 81.303418 4.001587 78.503418 0.801587" stroke-dasharray="none"></path><path d="M 78.503418 19.201587L 87.603418 10.001587L 78.503418 0.801587" stroke-dasharray="none"></path></g></g></g><g id="g-root--1.vector_sy_zmjumk135nqbq-stroke" data-item-order="-3843" data-item-id="-1.vector_sy_zmjumk135nqbq" data-item-class="ScenePart Stroke ColorStrokeBlack" data-item-index="-1" data-renderer-id="0" transform="translate(3.99981689453125, 311.7235107421875)"><g id="-1.vector_sy_zmjumk135nqbq-stroke" fill="none" stroke-linecap="round" stroke-linejoin="round" stroke-miterlimit="4" stroke="#484848" stroke-width="4"><g><path d="M 475.400183 9.996094C 454.900183 9.196094 434.300183 10.096094 413.800183 9.996094C 393.900183 9.996094 374.000183 9.296094 354.100183 9.996094C 333.100183 10.796094 312.000183 10.696094 290.900183 9.996094C 270.800183 9.296094 250.700183 10.796094 230.600183 9.996094C 209.100183 9.196094 187.600183 9.296094 166.200183 9.996094C 143.000183 10.796094 119.800183 11.196094 96.700183 9.996094C 67.800183 8.496094 38.900183 8.496094 10.000183 9.996094"></path><path d="M 475.410183 10.006094L 290.940183 10.006094L 96.710183 10.006094L 10.000183 9.996094"></path><path d="M 466.900183 19.196094C 470.400183 16.596094 473.000183 12.996094 476.100183 9.996094C 473.600183 6.496094 470.200183 3.696094 466.900183 0.796094" stroke-dasharray="none"></path><path d="M 466.900183 19.196094L 476.100183 9.996094L 466.900183 0.796094" stroke-dasharray="none"></path></g></g></g><g id="g-root-3.cu-smallCircle_sy_mb3c98135nrwp-stroke" data-item-order="-3841" data-item-id="3.cu-smallCircle_sy_mb3c98135nrwp" data-item-class="ScenePart Indexed Stroke ColorStrokeBlack" data-item-index="3" data-renderer-id="0" transform="translate(472.2398681640625, 308.259521484375)"><g id="3.cu-smallCircle_sy_mb3c98135nrwp-stroke" fill="none" stroke-linecap="round" stroke-linejoin="round" stroke-miterlimit="4" stroke="#484848" stroke-width="4"><g><path d="M 16.936907 13.468445C 17.283737 15.318283 15.433928 16.93689 13.468461 16.93689C 11.502995 16.93689 10.462468 15.318283 10.000016 13.468445C 9.537564 11.618608 11.502995 9.884385 13.468461 10C 15.433928 10.115616 17.052528 11.502994 16.936907 13.468445"></path><path d="M 16.936907 13.468445C 16.936907 15.384068 15.384072 16.93689 13.468461 16.93689C 11.55285 16.93689 10.000016 15.384068 10.000016 13.468445C 10.000016 11.552822 11.55285 10 13.468461 10C 15.384072 10 16.936907 11.552822 16.936907 13.468445Z"></path></g></g></g><g id="g-root-2.cu-smallCircle_sy_v6qci4135nr40-stroke" data-item-order="-3839" data-item-id="2.cu-smallCircle_sy_v6qci4135nr40" data-item-class="ScenePart Indexed Stroke ColorStrokeBlack" data-item-index="2" data-renderer-id="0" transform="translate(278.0069580078125, 308.259521484375)"><g id="2.cu-smallCircle_sy_v6qci4135nr40-stroke" fill="none" stroke-linecap="round" stroke-linejoin="round" stroke-miterlimit="4" stroke="#484848" stroke-width="4"><g><path d="M 16.936899 13.468445C 17.283747 15.318283 15.318298 17.399349 13.468454 16.93689C 11.61861 16.474432 10.693706 15.202667 10.00001 13.468445C 9.306314 11.734222 11.61861 10.23123 13.468454 10C 15.318298 9.76877 17.514973 11.618608 16.936899 13.468445"></path><path d="M 16.936899 13.468445C 16.936899 15.384068 15.384084 16.93689 13.468454 16.93689C 11.552825 16.93689 10.00001 15.384068 10.00001 13.468445C 10.00001 11.552822 11.552825 10 13.468454 10C 15.384084 10 16.936899 11.552822 16.936899 13.468445Z"></path></g></g></g><g id="g-root-1.cu-smallCircle_sy_zmjumk135nqbr-stroke" data-item-order="-3837" data-item-id="1.cu-smallCircle_sy_zmjumk135nqbr" data-item-class="ScenePart Indexed Indexed_1 Stroke ColorStrokeBlack" data-item-index="1" data-renderer-id="0" transform="translate(83.7740478515625, 308.259521484375)"><g id="1.cu-smallCircle_sy_zmjumk135nqbr-stroke" fill="none" stroke-linecap="round" stroke-linejoin="round" stroke-miterlimit="4" stroke="#484848" stroke-width="4"><g><path d="M 16.936893 13.468445C 16.936893 15.433897 15.318283 17.514965 13.468448 16.93689C 11.618612 16.358816 10.000003 15.433897 10.000003 13.468445C 10.000003 11.502994 11.618612 10.23123 13.468448 10C 15.318283 9.76877 16.82128 11.618608 16.936893 13.468445"></path><path d="M 16.936893 13.468445C 16.936893 15.384068 15.384068 16.93689 13.468448 16.93689C 11.552827 16.93689 10.000003 15.384068 10.000003 13.468445C 10.000003 11.552822 11.552827 10 13.468448 10C 15.384068 10 16.936893 11.552822 16.936893 13.468445Z"></path></g></g></g><g id="g-root-tx_buildand_1cz9b64135nqx1-stroke" data-item-order="0" data-item-id="tx_buildand_1cz9b64135nqx1" data-item-class="Label Stroke SceneTarget SceneTitle ColorStrokeBlack" data-item-index="none" data-renderer-id="0" transform="translate(35.47540283203125, 2)"></g><g id="g-root-tx_initiald_4kfsuk135nr43-stroke" data-item-order="0" data-item-id="tx_initiald_4kfsuk135nr43" data-item-class="Label Stroke SceneTarget Indexed ColorStrokeBlack" data-item-index="2" data-renderer-id="0" transform="translate(209.47540283203125, 108.4853515625)"></g><g id="g-root-tx_incremen_mb3c98135nrwq-stroke" data-item-order="0" data-item-id="tx_incremen_mb3c98135nrwq" data-item-class="Label Stroke SceneTarget Indexed ColorStrokeBlack" data-item-index="3" data-renderer-id="0" transform="translate(409.70831298828125, 108.4853515625)"></g><g id="g-root-tx_buildsof_1qaptjg135npc4-stroke" data-item-order="0" data-item-id="tx_buildsof_1qaptjg135npc4" data-item-class="Label Stroke SceneTarget Indexed Indexed_1 ColorStrokeBlack" data-item-index="1" data-renderer-id="0" transform="translate(33.24249267578125, 156.4853515625)"></g><g id="g-root-1_18i6uvg135w746-stroke" data-item-order="0" data-item-id="1_18i6uvg135w746" data-item-class="Icon Stroke SceneTarget Indexed Indexed_1 ColorStrokeBlack" data-item-index="1" data-renderer-id="0" transform="translate(63.24249267578125, 246.106689453125)"><g id="1_18i6uvg135w746-stroke" fill="none" stroke-linecap="round" stroke-linejoin="round" stroke-miterlimit="4" stroke="#484848" stroke-width="2"><g><path d="M 27 57C 22.4 56.400002 17.6 57 13 57C 11.8 57 11.2 56 11 55C 7.8 41.400002 7.8 26.6 11 13C 11.2 12 12 10.8 13 11C 21.6 13 31 8.8 39.599998 11C 40 11.2 40.599998 11.2 41 11.6C 43.400002 14.2 46 16.4 48.400002 19C 48.799999 19.4 49.200001 19.799999 49 20.4C 48.400002 22.6 49.200001 24.799999 49 27M 17 21C 16.6 23.6 17.200001 26.4 17 29M 35 21C 34.200001 23.6 34.200001 26.4 35 29M 29 35C 28.799999 37.599998 29.200001 40.400002 29 43M 41 21C 41 23.6 40.599998 26.4 41 29M 26 21C 27.6 21.200001 29.4 22.4 29 24C 28.799999 24.6 29 25.4 29 26C 29.200001 27.6 27.6 28.6 26 29C 24.4 29.4 23.6 27.6 23 26C 22.799999 25.4 23.200001 24.6 23 24C 22.6 22.4 24.4 20.4 26 21M 20 35C 21.6 34.599998 23.4 36.400002 23 38C 22.799999 38.599998 23.200001 39.400002 23 40C 22.6 41.599998 21.6 42.599998 20 43C 18.4 43.400002 17.4 41.599998 17 40C 16.799999 39.400002 17.200001 38.599998 17 38C 16.6 36.400002 18.4 35 20 35M 48.200001 40.200001C 50.200001 41.200001 52.200001 42 54.200001 43C 55.200001 41 56.200001 39 57 36.799999M 32.599998 40.599998C 35.200001 36 39.200001 32.400002 44.400002 33C 49.599998 33.799999 54.599998 37.799999 54.200001 43M 38.799999 49.799999C 36.799999 48.799999 34.799999 47.799999 32.599998 47C 32.200001 49.200001 31 51.200001 30 53.200001M 54.400002 49.400002C 53.599998 54.599998 47.599998 55.599998 42.599998 57C 37.400002 58.400002 32.200001 52.200001 32.599998 47"></path><path d="M 27 57L 13 57C 11.895431 57 11 56.104568 11 55L 11 13C 11 11.895431 11.895431 11 13 11L 39.580002 11C 40.111607 10.996926 40.622562 11.205627 41 11.58L 48.419998 19C 48.794373 19.377438 49.003075 19.888393 49 20.42L 49 27M 17 21L 17 29M 35 21L 35 29M 29 35L 29 43M 41 21L 41 29M 26 21C 27.656855 21 29 22.343147 29 24L 29 26C 29 27.656855 27.656855 29 26 29C 24.343147 29 23 27.656855 23 26L 23 24C 23 22.343147 24.343147 21 26 21ZM 20 35C 21.656855 35 23 36.343147 23 38L 23 40C 23 41.656853 21.656855 43 20 43C 18.343147 43 17 41.656853 17 40L 17 38C 17 36.343147 18.343147 35 20 35ZM 48.18 40.279999L 54.259998 43L 57 36.860001M 32.639999 40.52C 34.336945 35.570831 39.24939 32.469467 44.447311 33.065716C 49.645233 33.661964 53.72781 37.795128 54.260002 43M 38.760002 49.720001L 32.68 47L 29.940001 53.139999M 54.299999 49.459999C 52.605865 54.408039 47.697712 57.511337 42.501217 56.920063C 37.304718 56.328785 33.219208 52.202156 32.68 47"></path></g></g></g><g id="g-root-wenc_1hbyfv013661hf-stroke" data-item-order="0" data-item-id="wenc_1hbyfv013661hf" data-item-class="Icon Stroke SceneTarget Indexed ColorStrokeBlack" data-item-index="2" data-renderer-id="0" transform="translate(257.47540283203125, 246.106689453125)"><g id="wenc_1hbyfv013661hf-stroke" fill="none" stroke-linecap="round" stroke-linejoin="round" stroke-miterlimit="4" stroke="#484848" stroke-width="2"><g><path d="M 46.599998 14.6C 44.799999 17 39.599998 17.200001 37 13C 36.200001 14.2 34.799999 15 34 16C 40.200001 20.200001 44.599998 26.799999 50 32C 52.599998 30 54 26.4 57 25C 54.799999 20.6 49 18.799999 46.599998 14.6M 33.799999 29.799999C 31 27.799999 29.6 23.6 26.200001 22.200001C 26.6 19 27.6 14.8 24.6 13.4C 21.6 11.8 18.6 10 15.8 11.8C 16.799999 13.4 18.6 14.6 20 16C 20.200001 17.4 20.200001 18.6 20 20C 18.6 19.799999 17.200001 19.6 16 20C 15 18.200001 12.6 17.6 11.8 15.8C 10.2 18.6 11 22.200001 13.4 24.6C 15.6 27.200001 19 26.799999 22.200001 26.200001C 24.4 29.200001 27 31.6 29.799999 33.799999M 34.200001 38.200001C 36 41.200001 39 43.200001 41.799999 45.799999C 40.799999 49 40.599998 52.799999 43.400002 54.599998C 46.200001 56.400002 49.400002 58 52.200001 56.200001C 50.400002 55.400002 49.400002 53.400002 48 52C 48.200001 50.799999 48.200001 49.400002 48 48C 49.200001 48.200001 50.599998 48 52 48C 53.799999 49 55 50.799999 56.200001 52.200001C 58 49.400002 57.599998 45 54.599998 43.400002C 51.799999 41.599998 49 41.400002 45.799999 41.799999C 43 39.200001 40.799999 36.599998 38.200001 34.200001M 40.799999 22.799999C 30.799999 32.200001 23 44 11.8 51.799999C 10.6 52.799999 10.6 55 11.8 56.200001C 13 57.200001 15.4 57.599998 16.200001 56.200001C 22.200001 44 36 37.400002 45.200001 27.200001"></path><path d="M 46.5 14.502C 44.377998 16.624001 40.419998 16.422001 37 13.002L 34 16L 50 32L 57 25ZM 33.877998 29.879999L 26.292 22.296C 27.663319 19.262985 27.013306 15.697762 24.65984 13.343851C 22.306376 10.98994 18.741274 10.339253 15.708 11.71L 20 16L 20 20L 16 20L 11.708 15.71C 10.33668 18.743015 10.986693 22.308239 13.340159 24.662149C 15.693624 27.01606 19.258726 27.666746 22.292 26.296L 29.878 33.879997M 34.122002 38.124001L 41.708 45.709999C 40.336681 48.743015 40.986694 52.308239 43.34016 54.662148C 45.693626 57.01606 49.258728 57.666748 52.292 56.296001L 48 52L 48 48L 52 48L 56.292 52.293999C 57.663319 49.260986 57.013306 45.695763 54.65984 43.34185C 52.306374 40.987938 48.741272 40.337254 45.708 41.708L 38.122002 34.122002M 40.877998 22.880001L 11.878 51.880001C 10.706498 53.052021 10.70671 54.951759 11.878473 56.123524C 13.050237 57.295288 14.949975 57.295498 16.122 56.123997L 45.122002 27.124001"></path></g></g></g><g id="g-root-mega_1q9gvd8135w4r1-stroke" data-item-order="0" data-item-id="mega_1q9gvd8135w4r1" data-item-class="Icon Stroke SceneTarget Indexed ColorStrokeBlack" data-item-index="3" data-renderer-id="0" transform="translate(451.70831298828125, 246.106689453125)"><g id="mega_1q9gvd8135w4r1-stroke" fill="none" stroke-linecap="round" stroke-linejoin="round" stroke-miterlimit="4" stroke="#484848" stroke-width="2"><g><path d="M 26.200001 41C 26.799999 42.400002 28.200001 43.799999 29.6 44.799999M 35.599998 21.200001C 40.400002 25.6 43 32.599998 48.799999 36M 47.400002 34.400002C 41.799999 38.599998 35.400002 41.799999 28.799999 43.799999C 28 43.200001 27.799999 42.200001 27 41.799999C 28.6 34.799999 32.200001 28.200001 37.200001 23C 40.599998 26.799999 44 30.6 47.400002 34.400002M 32.799999 41.799999C 33.200001 42.400002 34 42.799999 34.400002 43.400002C 34.799999 44.200001 35.599998 44.400002 36.400002 44.400002C 37.200001 44.400002 38 44.200001 38.599998 43.599998C 39.799999 42.400002 39.400002 40.799999 38.799999 39.200001C 38.799999 39 38.599998 39 38.400002 38.799999M 21.4 20.4C 29.799999 15.4 39 11 47.200001 16.6C 55.400002 22 58.200001 31.799999 55.599998 41.200001C 53 50.799999 42.599998 56 32.799999 54.200001C 23.200001 52.200001 15.4 43.799999 16.200001 34C 16.200001 33.200001 16.200001 32.599998 16.200001 31.799999M 21.200001 36C 19.4 34.200001 18.200001 31.6 16.200001 30C 14 31.6 12.2 33.599998 11 36"></path><path d="M 26.198 40.938L 29.568001 44.700001M 35.531998 21.142L 48.816002 35.972M 47.386002 34.374001L 28.754 43.792L 26.968 41.795998L 37.260002 23.07L 47.386002 34.374001ZM 32.779999 41.756001L 34.346001 43.466C 34.876865 44.080406 35.637642 44.448647 36.44886 44.483849C 37.260078 44.519054 38.049904 44.218105 38.631996 43.651997C 39.848164 42.428555 39.89904 40.468903 38.748001 39.183998L 38.459999 38.886002M 21.318001 20.369999C 27.891607 13.020548 38.774445 11.410411 47.194572 16.54151C 55.614704 21.672607 59.172592 32.082706 55.654312 41.294029C 52.136032 50.505352 42.544209 55.892895 32.847439 54.104218C 23.150667 52.315536 16.112291 43.860363 16.112 34L 16.112 31.848M 21.222 36.043999L 16.112 29.912001L 11 36.043999"></path></g></g></g><g id="g-root-tx_initiald_djtty411i70ne-stroke" data-item-order="0" data-item-id="tx_initiald_djtty411i70ne" data-item-class="Label Stroke SceneTarget Indexed ColorStrokeBlack" data-item-index="2" data-renderer-id="0" transform="translate(191.47540283203125, 325.601806640625)"></g></g></g></svg>