<?xml version="1.0" encoding="utf-8" standalone="yes"?>
<!DOCTYPE svg PUBLIC "-//W3C//DTD SVG 1.1//EN" "http://www.w3.org/Graphics/SVG/1.1/DTD/svg11.dtd">
<svg width="626" height="432" viewBox="0 0 626 432" style="fill:none;stroke:none;fill-rule:evenodd;clip-rule:evenodd;stroke-linecap:round;stroke-linejoin:round;stroke-miterlimit:1.5;" version="1.1" xmlns="http://www.w3.org/2000/svg" xmlns:xlink="http://www.w3.org/1999/xlink"><style id="fontImports">@import url("https://fonts.googleapis.com/css2?family=Roboto:wght@400;700&amp;display=block");</style><rect id="" x="0" y="0" width="625.112" height="432" style="fill: #ffffff;"></rect><g id="items" style="isolation: isolate"><g id="blend" style="mix-blend-mode:multiply"><g id="g-root-3.cu_sy_hx4wpjzjue4o-fill" data-item-order="-84668" data-item-id="3.cu_sy_hx4wpjzjue4o" data-item-class="ScenePart Indexed Fill Stroke" data-item-index="3" data-renderer-id="0" transform="translate(107.23919677734375, 277.666015625)"><g id="3.cu_sy_hx4wpjzjue4o-fill" stroke="none" fill="#f5fbe9"><g><path d="M 10 10.00711C 10.052002 10.178497 10.103005 10.350006 10.155007 10.521606C 14.041405 17.233215 35.711998 22.345489 61.766106 22.345489C 87.964501 22.345489 109.694207 17.154205 113.404808 10.388L 113.523003 10C 106.678795 32.765808 101.569603 57.014587 97.984795 82.333709C 97.984795 88.96109 81.766701 94.333709 61.760598 94.333709C 41.754601 94.333709 25.536492 88.96109 25.536492 82.333709C 21.978997 57.207885 16.920403 33.135986 10.155007 10.521606C 10.153 10.519012 10.152001 10.516296 10.150002 10.51361L 10 10.00711Z"></path></g></g></g><g id="g-root-3.line_sy_hx4wpjzjue4p-fill" data-item-order="-84665" data-item-id="3.line_sy_hx4wpjzjue4p" data-item-class="ScenePart Indexed Stroke LeaderLine" data-item-index="3" data-renderer-id="0" transform="translate(202, 314)"></g><g id="g-root-2.cu_sy_v7yxzrzjufpi-fill" data-item-order="-84664" data-item-id="2.cu_sy_v7yxzrzjufpi" data-item-class="ScenePart Indexed Fill Stroke" data-item-index="2" data-renderer-id="0" transform="translate(75.563720703125, 203.896484375)"><g id="2.cu_sy_v7yxzrzjufpi-fill" stroke="none" fill="#e9fbf3"><g><path d="M 41.675995 83.777405C 33.630005 57.011292 23.184997 32.295197 10 10.300003L 10.263 10.7305C 16.772003 18.336899 51.565002 24.102906 93.441604 24.102906C 135.460602 24.102906 170.343002 18.262299 176.681595 10.617905C 176.804901 10.411698 176.928299 10.205704 177.052002 10L 176.748306 10.536103C 176.726394 10.563401 176.704208 10.590699 176.681595 10.617905C 163.587799 32.531296 153.205795 57.135804 145.198608 83.770295L 145.080307 84.157502C 141.369705 90.923706 119.639999 96.114991 93.441604 96.114991C 67.376999 96.114991 45.699997 90.998719 41.826004 84.283204L 41.675995 83.777405Z"></path></g></g></g><g id="g-root-2.line_sy_mcbxqvzjugi7-fill" data-item-order="-84661" data-item-id="2.line_sy_mcbxqvzjugi7" data-item-class="ScenePart Indexed Stroke LeaderLine" data-item-index="2" data-renderer-id="0" transform="translate(224, 242)"></g><g id="g-root-1.cu_sy_znsg47zjuex8-fill" data-item-order="-84660" data-item-id="1.cu_sy_znsg47zjuex8" data-item-class="ScenePart Indexed Indexed_1 Fill Stroke" data-item-index="1" data-renderer-id="0" transform="translate(3, 110)"><g id="1.cu_sy_znsg47zjuex8-fill" stroke="none" fill="#e6f9ff"><g><path d="M 14.053986 32.094498C 11.402008 30.779099 10 29.408508 10 28C 10 18.058899 79.843994 10 166 10C 252.156403 10 322 18.058899 322 28C 322 29.263702 320.871399 30.496994 318.724091 31.687195L 317.889404 32.131104C 289.7164 50.149796 267.229004 74.601196 249.615997 103.895203L 249.312302 104.432495C 243.155396 112.117004 208.174011 117.998993 166.005997 117.998993C 124.128998 117.998993 89.335999 112.233002 82.826996 104.626892L 82.565002 104.19519C 64.954987 74.817993 42.457001 50.294495 14.255005 32.223099L 14.053986 32.094498Z"></path></g></g></g><g id="g-root-1.line_sy_v7yxzrzjufph-fill" data-item-order="-84657" data-item-id="1.line_sy_v7yxzrzjufph" data-item-class="ScenePart Indexed Indexed_1 Stroke LeaderLine" data-item-index="1" data-renderer-id="0" transform="translate(268, 170)"></g><g id="g-root-tx_transfor_93dbpzzjudxr-fill" data-item-order="0" data-item-id="tx_transfor_93dbpzzjudxr" data-item-class="Label Stroke SceneTarget SceneTitle ColorFillBlack ColorStrokeBlack" data-item-index="none" data-renderer-id="0" transform="translate(177, 2)"><g id="tx_transfor_93dbpzzjudxr-fill" stroke="none" fill="#484848"><g><text style="font: 20px Roboto, sans-serif; white-space: pre;"><tspan x="14.92" y="34" dominant-baseline="ideographic">Transformation of Manifest Data</tspan></text></g></g></g><g id="g-root-tx_manifest_me7d07zjufim-fill" data-item-order="0" data-item-id="tx_manifest_me7d07zjufim" data-item-class="Label Stroke SceneTarget SceneStart" data-item-index="none" data-renderer-id="0" transform="translate(81, 62)"><g id="tx_manifest_me7d07zjufim-fill" stroke="none" fill="#484848"><g><text style="font: 20px Roboto, sans-serif; white-space: pre;"><tspan x="15.77" y="34" dominant-baseline="ideographic">Design Manifest</tspan></text></g></g></g><g id="g-root-csv_90a3dz10ebgnb-fill" data-item-order="0" data-item-id="csv_90a3dz10ebgnb" data-item-class="Icon Stroke SceneTarget Indexed Indexed_1 InsideFill InsideColorFill" data-item-index="1" data-renderer-id="0" transform="translate(135.224365234375, 158.111328125)"></g><g id="g-root-tx_designph_zpnvdjzjudxp-fill" data-item-order="0" data-item-id="tx_designph_zpnvdjzjudxp" data-item-class="Label Stroke SceneTarget Indexed Indexed_1" data-item-index="1" data-renderer-id="0" transform="translate(363, 158)"><g id="tx_designph_zpnvdjzjudxp-fill" stroke="none" fill="#484848"><g><text style="font: 20px Roboto, sans-serif; white-space: pre;"><tspan x="12" y="34" dominant-baseline="ideographic">Design Format (arxml)</tspan></text></g></g></g><g id="g-root-1_4pf8uvzk9wjw-fill" data-item-order="0" data-item-id="1_4pf8uvzk9wjw" data-item-class="Icon Stroke SceneTarget Indexed InsideFill InsideColorFill" data-item-index="2" data-renderer-id="0" transform="translate(135.224365234375, 230.111328125)"></g><g id="g-root-tx_serializ_18koejbzjugas-fill" data-item-order="0" data-item-id="tx_serializ_18koejbzjugas" data-item-class="Label Stroke SceneTarget Indexed" data-item-index="2" data-renderer-id="0" transform="translate(363.112060546875, 230)"><g id="tx_serializ_18koejbzjugas-fill" stroke="none" fill="#484848"><g><text style="font: 20px Roboto, sans-serif; white-space: pre;"><tspan x="12" y="34" dominant-baseline="ideographic">Serialization</tspan></text></g></g></g><g id="g-root-tx_deployme_1lw4wwnzjuepv-fill" data-item-order="0" data-item-id="tx_deployme_1lw4wwnzjuepv" data-item-class="Label Stroke SceneTarget Indexed" data-item-index="3" data-renderer-id="0" transform="translate(363.112060546875, 278)"><g id="tx_deployme_1lw4wwnzjuepv-fill" stroke="none" fill="#484848"><g><text style="font: 20px Roboto, sans-serif; white-space: pre;"><tspan x="12" y="46" dominant-baseline="ideographic">Deployment Format</tspan><tspan x="12" y="70" dominant-baseline="ideographic">(.conf, .hpp/.cpp, .json)</tspan></text></g></g></g><g id="g-root-csv_qwirh3zk9u6b-fill" data-item-order="0" data-item-id="csv_qwirh3zk9u6b" data-item-class="Icon Stroke SceneTarget Indexed InsideFill InsideColorFill" data-item-index="3" data-renderer-id="0" transform="translate(135.224365234375, 302.111328125)"></g><g id="g-root-tx_deployab_5uw7rzjughu-fill" data-item-order="0" data-item-id="tx_deployab_5uw7rzjughu" data-item-class="Label Stroke SceneTarget SceneEnd" data-item-index="none" data-renderer-id="0" transform="translate(63, 386)"><g id="tx_deployab_5uw7rzjughu-fill" stroke="none" fill="#484848"><g><text style="font: 20px Roboto, sans-serif; white-space: pre;"><tspan x="15.38" y="34" dominant-baseline="ideographic">Deployable Manifest</tspan></text></g></g></g><g id="g-root-3.cu_sy_hx4wpjzjue4o-stroke" data-item-order="-84668" data-item-id="3.cu_sy_hx4wpjzjue4o" data-item-class="ScenePart Indexed Fill Stroke" data-item-index="3" data-renderer-id="0" transform="translate(107.23919677734375, 277.666015625)"><g id="3.cu_sy_hx4wpjzjue4o-stroke" fill="none" stroke-linecap="round" stroke-linejoin="round" stroke-miterlimit="4" stroke="#93c131" stroke-width="2"><g><path d="M 10.000405 10.00711C 16.843506 32.770813 21.952004 57.017212 25.536492 82.333709C 25.536492 88.96109 41.754601 94.333709 61.760598 94.333709C 81.766701 94.333709 97.984795 88.96109 97.984795 82.333709C 101.569603 57.014587 106.678795 32.765808 113.523003 10L 113.404808 10.388C 109.694207 17.154113 87.964501 22.345489 61.766106 22.345489C 35.701592 22.345489 14.024201 17.229095 10.150101 10.51361L 10.000405 10.00711Z"></path></g></g></g><g id="g-root-3.line_sy_hx4wpjzjue4p-stroke" data-item-order="-84665" data-item-id="3.line_sy_hx4wpjzjue4p" data-item-class="ScenePart Indexed Stroke LeaderLine" data-item-index="3" data-renderer-id="0" transform="translate(202, 314)"><g id="3.line_sy_hx4wpjzjue4p-stroke" fill="none" stroke-linecap="round" stroke-linejoin="round" stroke-miterlimit="4" stroke="#484848" stroke-width="2"><g><path d="M 147 10L 12 10"></path><path d="M 18 3.5L 11.5 10L 18 16.5" stroke-dasharray="none"></path></g></g></g><g id="g-root-2.cu_sy_v7yxzrzjufpi-stroke" data-item-order="-84664" data-item-id="2.cu_sy_v7yxzrzjufpi" data-item-class="ScenePart Indexed Fill Stroke" data-item-index="2" data-renderer-id="0" transform="translate(75.563720703125, 203.896484375)"><g id="2.cu_sy_v7yxzrzjufpi-stroke" fill="none" stroke-linecap="round" stroke-linejoin="round" stroke-miterlimit="4" stroke="#3bc482" stroke-width="2"><g><path d="M 10.000503 10.300003C 23.185302 32.295197 33.629699 57.011292 41.675995 83.777405L 41.825607 84.283204C 45.699707 90.998719 67.377105 96.114991 93.441604 96.114991C 119.639999 96.114991 141.369705 90.923706 145.080307 84.157502L 145.198608 83.770295C 153.281204 56.885193 163.783401 32.068497 177.052002 10L 176.748306 10.536103C 170.5914 18.220597 135.610199 24.102906 93.441604 24.102906C 51.564903 24.102906 16.772003 18.336899 10.263107 10.7305L 10.000503 10.300003Z"></path></g></g></g><g id="g-root-2.line_sy_mcbxqvzjugi7-stroke" data-item-order="-84661" data-item-id="2.line_sy_mcbxqvzjugi7" data-item-class="ScenePart Indexed Stroke LeaderLine" data-item-index="2" data-renderer-id="0" transform="translate(224, 242)"><g id="2.line_sy_mcbxqvzjugi7-stroke" fill="none" stroke-linecap="round" stroke-linejoin="round" stroke-miterlimit="4" stroke="#484848" stroke-width="2"><g><path d="M 125 10L 12 10"></path><path d="M 18 3.5L 11.5 10L 18 16.5" stroke-dasharray="none"></path></g></g></g><g id="g-root-1.cu_sy_znsg47zjuex8-stroke" data-item-order="-84660" data-item-id="1.cu_sy_znsg47zjuex8" data-item-class="ScenePart Indexed Indexed_1 Fill Stroke" data-item-index="1" data-renderer-id="0" transform="translate(3, 110)"><g id="1.cu_sy_znsg47zjuex8-stroke" fill="none" stroke-linecap="round" stroke-linejoin="round" stroke-miterlimit="4" stroke="#17b0e3" stroke-width="2"><g><path d="M 166 10C 79.843582 10 10 18.058868 10 28C 10 37.941132 79.843582 46 166 46C 252.156418 46 322 37.941132 322 28C 322 18.058868 252.156418 10 166 10M 11.027405 30.074219C 36.768677 45.467316 63.648376 71.154724 82.647293 104.20343C 85.901688 109.864624 113.652786 118.000519 165.989792 118.000519C 215.060791 118.000519 245.794098 110.939911 250.128891 103.552124C 270.4487 68.921112 297.323181 45.323914 320.95459 30.09642"></path></g></g></g><g id="g-root-1.line_sy_v7yxzrzjufph-stroke" data-item-order="-84657" data-item-id="1.line_sy_v7yxzrzjufph" data-item-class="ScenePart Indexed Indexed_1 Stroke LeaderLine" data-item-index="1" data-renderer-id="0" transform="translate(268, 170)"><g id="1.line_sy_v7yxzrzjufph-stroke" fill="none" stroke-linecap="round" stroke-linejoin="round" stroke-miterlimit="4" stroke="#484848" stroke-width="2"><g><path d="M 81 10L 12 10"></path><path d="M 18 3.5L 11.5 10L 18 16.5" stroke-dasharray="none"></path></g></g></g><g id="g-root-tx_transfor_93dbpzzjudxr-stroke" data-item-order="0" data-item-id="tx_transfor_93dbpzzjudxr" data-item-class="Label Stroke SceneTarget SceneTitle ColorFillBlack ColorStrokeBlack" data-item-index="none" data-renderer-id="0" transform="translate(177, 2)"></g><g id="g-root-tx_manifest_me7d07zjufim-stroke" data-item-order="0" data-item-id="tx_manifest_me7d07zjufim" data-item-class="Label Stroke SceneTarget SceneStart" data-item-index="none" data-renderer-id="0" transform="translate(81, 62)"></g><g id="g-root-csv_90a3dz10ebgnb-stroke" data-item-order="0" data-item-id="csv_90a3dz10ebgnb" data-item-class="Icon Stroke SceneTarget Indexed Indexed_1 InsideFill InsideColorFill" data-item-index="1" data-renderer-id="0" transform="translate(135.224365234375, 158.111328125)"><g id="csv_90a3dz10ebgnb-stroke" fill="none" stroke-linecap="round" stroke-linejoin="round" stroke-miterlimit="4" stroke="#17b0e3" stroke-width="2"><g><path d="M 49 35L 49 22.956001C 49.003315 16.353855 43.652145 10.999999 37.049999 11L 13 11C 11.895431 11 11 11.895431 11 13L 11 55C 11 56.104568 11.895431 57 13 57L 19 57M 39 11.168L 39 19C 39 20.104568 39.895432 21 41 21L 48.84 21M 25 57.007999L 33 41.007999M 33 57.007999L 25 41.007999M 37 57.007999L 37 41.007999L 41 49.007999L 45 41.007999L 45 57.007999M 49 41L 49 54C 49 55.656857 50.343147 57 52 57L 57 57"></path></g></g></g><g id="g-root-tx_designph_zpnvdjzjudxp-stroke" data-item-order="0" data-item-id="tx_designph_zpnvdjzjudxp" data-item-class="Label Stroke SceneTarget Indexed Indexed_1" data-item-index="1" data-renderer-id="0" transform="translate(363, 158)"></g><g id="g-root-1_4pf8uvzk9wjw-stroke" data-item-order="0" data-item-id="1_4pf8uvzk9wjw" data-item-class="Icon Stroke SceneTarget Indexed InsideFill InsideColorFill" data-item-index="2" data-renderer-id="0" transform="translate(135.224365234375, 230.111328125)"><g id="1_4pf8uvzk9wjw-stroke" fill="none" stroke-linecap="round" stroke-linejoin="round" stroke-miterlimit="4" stroke="#3bc482" stroke-width="2"><g><path d="M 35 54C 35 55.656857 33.656853 57 32 57L 14 57C 12.343145 57 11 55.656857 11 54L 11 30C 11 28.343145 12.343145 27 14 27L 25.757999 27C 26.553095 27.00017 27.315603 27.315964 27.878 27.878L 34.122002 34.122002C 34.684036 34.684395 34.999832 35.446907 35 36.242001ZM 17 34L 24 34M 17 40.5L 29 40.5M 17 47L 29 47M 39 18L 46 18M 39 24.5L 51 24.5M 39 31L 51 31M 41 41L 54 41C 55.656857 41 57 39.656853 57 38L 57 20.242001C 56.999832 19.446907 56.684036 18.684397 56.122002 18.122002L 49.877998 11.878C 49.315605 11.315964 48.553097 11.00017 47.757999 11L 36 11C 34.343147 11 33 12.343145 33 14L 33 25M 21 12L 24 15L 21 18M 24 15L 18 15C 16.343145 15 15 16.343145 15 18L 15 22M 45 56L 42 53L 45 50M 42 53L 48 53C 49.656857 53 51 51.656857 51 50L 51 46"></path></g></g></g><g id="g-root-tx_serializ_18koejbzjugas-stroke" data-item-order="0" data-item-id="tx_serializ_18koejbzjugas" data-item-class="Label Stroke SceneTarget Indexed" data-item-index="2" data-renderer-id="0" transform="translate(363.112060546875, 230)"></g><g id="g-root-tx_deployme_1lw4wwnzjuepv-stroke" data-item-order="0" data-item-id="tx_deployme_1lw4wwnzjuepv" data-item-class="Label Stroke SceneTarget Indexed" data-item-index="3" data-renderer-id="0" transform="translate(363.112060546875, 278)"></g><g id="g-root-csv_qwirh3zk9u6b-stroke" data-item-order="0" data-item-id="csv_qwirh3zk9u6b" data-item-class="Icon Stroke SceneTarget Indexed InsideFill InsideColorFill" data-item-index="3" data-renderer-id="0" transform="translate(135.224365234375, 302.111328125)"><g id="csv_qwirh3zk9u6b-stroke" fill="none" stroke-linecap="round" stroke-linejoin="round" stroke-miterlimit="4" stroke="#93c131" stroke-width="2"><g><path d="M 52.414001 19C 52.789101 19.374985 52.999886 19.88361 53 20.414L 53 55C 53 56.104568 52.104568 57 51 57L 17 57C 15.895431 57 15 56.104568 15 55L 15 13C 15 11.895431 15.895431 11 17 11L 43.585999 11C 44.118408 11.003817 44.627319 11.219762 45 11.6ZM 31 27L 29.812 27C 29.090315 26.940948 28.376698 27.185528 27.842958 27.674852C 27.309219 28.164175 27.003716 28.853912 27 29.577999L 27 32.059998C 26.96369 32.976929 26.425604 33.799431 25.599998 34.199997L 23 36L 25.6 37.799999C 26.425909 38.200226 26.964128 39.02293 27 39.940002L 27 42.419998C 27.003159 43.144436 27.308422 43.834702 27.842228 44.324467C 28.376032 44.814232 29.08997 45.059074 29.812 45L 31 45M 37 27L 38.183998 27C 38.906345 26.939772 39.62104 27.183823 40.155682 27.673279C 40.690323 28.162735 40.996372 28.853157 41 29.577999L 41 32.059998C 41.036308 32.976929 41.574394 33.799431 42.399998 34.199997L 45 36L 42.400002 37.799999C 41.574093 38.200226 41.035873 39.02293 41 39.940002L 41 42.419998C 40.996929 43.145191 40.691124 43.836147 40.156414 44.326042C 39.621704 44.815937 38.906693 45.060253 38.183998 45L 37 45"></path></g></g></g><g id="g-root-tx_deployab_5uw7rzjughu-stroke" data-item-order="0" data-item-id="tx_deployab_5uw7rzjughu" data-item-class="Label Stroke SceneTarget SceneEnd" data-item-index="none" data-renderer-id="0" transform="translate(63, 386)"></g></g></g></svg>