<?xml version="1.0" encoding="utf-8" standalone="yes"?>
<!DOCTYPE svg PUBLIC "-//W3C//DTD SVG 1.1//EN" "http://www.w3.org/Graphics/SVG/1.1/DTD/svg11.dtd">
<svg width="1012" height="745" viewBox="0 0 1012 745" style="fill:none;stroke:none;fill-rule:evenodd;clip-rule:evenodd;stroke-linecap:round;stroke-linejoin:round;stroke-miterlimit:1.5;" version="1.1" xmlns="http://www.w3.org/2000/svg" xmlns:xlink="http://www.w3.org/1999/xlink"><style id="fontImports">@import url("https://fonts.googleapis.com/css2?family=Roboto:wght@400;700&amp;display=block");</style><rect id="" x="0" y="0" width="1012" height="744.424" style="fill: #ffffff;"></rect><g id="items" style="isolation: isolate"><g id="blend" style="mix-blend-mode:multiply"><g id="g-root-ro_94m6pmveisxu-fill" data-item-order="-21528" data-item-id="ro_94m6pmveisxu" data-item-class="Shape Stroke Fill" data-item-index="none" data-renderer-id="0" transform="translate(523, 117.4239501953125)"><g id="ro_94m6pmveisxu-fill" stroke="none" fill="#e6f9ff"><g><path d="M 22 10L 274 10C 274 10 286 10 286 22L 286 76C 286 76 286 88 274 88L 22 88C 22 88 10 88 10 76L 10 22C 10 22 10 10 22 10"></path></g></g></g><g id="g-root-ro_vbppbuveelmu-fill" data-item-order="-18432" data-item-id="ro_vbppbuveelmu" data-item-class="Shape Stroke Fill" data-item-index="none" data-renderer-id="0" transform="translate(523, 3)"><g id="ro_vbppbuveelmu-fill" stroke="none" fill="#e6f9ff"><g><path d="M 22 10L 190 10C 190 10 202 10 202 22L 202 94C 202 94 202 106 190 106L 22 106C 22 106 10 106 10 94L 10 22C 10 22 10 10 22 10"></path></g></g></g><g id="g-root-ro_dfg2gqvebq4q-fill" data-item-order="-18432" data-item-id="ro_dfg2gqvebq4q" data-item-class="Shape Stroke Fill" data-item-index="none" data-renderer-id="0" transform="translate(767, 625.4239501953125)"><g id="ro_dfg2gqvebq4q-fill" stroke="none" fill="#e6f9ff"><g><path d="M 22 10L 190 10C 190 10 202 10 202 22L 202 94C 202 94 202 106 190 106L 22 106C 22 106 10 106 10 94L 10 22C 10 22 10 10 22 10"></path></g></g></g><g id="g-root-ro_7q8aive651d-fill" data-item-order="-15552" data-item-id="ro_7q8aive651d" data-item-class="Shape Stroke Fill" data-item-index="none" data-renderer-id="0" transform="translate(251, 247.4239501953125)"><g id="ro_7q8aive651d-fill" stroke="none" fill="#e6f9ff"><g><path d="M 22 10L 214 10C 214 10 226 10 226 22L 226 70C 226 70 226 82 214 82L 22 82C 22 82 10 82 10 70L 10 22C 10 22 10 10 22 10"></path></g></g></g><g id="g-root-ro_1ha2kqive3coz-fill" data-item-order="-15552" data-item-id="ro_1ha2kqive3coz" data-item-class="Shape Stroke Fill" data-item-index="none" data-renderer-id="0" transform="translate(251, 120.4239501953125)"><g id="ro_1ha2kqive3coz-fill" stroke="none" fill="#e6f9ff"><g><path d="M 22 10L 214 10C 214 10 226 10 226 22L 226 70C 226 70 226 82 214 82L 22 82C 22 82 10 82 10 70L 10 22C 10 22 10 10 22 10"></path></g></g></g><g id="g-root-ro_dgoxh6veel1i-fill" data-item-order="-13824" data-item-id="ro_dgoxh6veel1i" data-item-class="Shape Stroke Fill" data-item-index="none" data-renderer-id="0" transform="translate(523, 459.4239501953125)"><g id="ro_dgoxh6veel1i-fill" stroke="none" fill="#e6f9ff"><g><path d="M 22 10L 190 10C 190 10 202 10 202 22L 202 70C 202 70 202 82 190 82L 22 82C 22 82 10 82 10 70L 10 22C 10 22 10 10 22 10"></path></g></g></g><g id="g-root-ro_18hjurevehe6d-fill" data-item-order="-13824" data-item-id="ro_18hjurevehe6d" data-item-class="Shape Stroke Fill" data-item-index="none" data-renderer-id="0" transform="translate(3, 165.5)"><g id="ro_18hjurevehe6d-fill" stroke="none" fill="#f0f0f0"><g><path d="M 22 10L 190 10C 190 10 202 10 202 22L 202 70C 202 70 202 82 190 82L 22 82C 22 82 10 82 10 70L 10 22C 10 22 10 10 22 10"></path></g></g></g><g id="g-root-ro_1hd7h5mvehd6z-fill" data-item-order="-11988" data-item-id="ro_1hd7h5mvehd6z" data-item-class="Shape Stroke Fill" data-item-index="none" data-renderer-id="0" transform="translate(767, 468.4239501953125)"><g id="ro_1hd7h5mvehd6z-fill" stroke="none" fill="#e6f9ff"><g><path d="M 22 10L 220 10C 220 10 232 10 232 22L 232 52C 232 52 232 64 220 64L 22 64C 22 64 10 64 10 52L 10 22C 10 22 10 10 22 10"></path></g></g></g><g id="g-root-ro_1ut0ozevek54z-fill" data-item-order="-11664" data-item-id="ro_1ut0ozevek54z" data-item-class="Shape Stroke Fill" data-item-index="none" data-renderer-id="0" transform="translate(251, 24)"><g id="ro_1ut0ozevek54z-fill" stroke="none" fill="#e6f9ff"><g><path d="M 22 10L 214 10C 214 10 226 10 226 22L 226 52C 226 52 226 64 214 64L 22 64C 22 64 10 64 10 52L 10 22C 10 22 10 10 22 10"></path></g></g></g><g id="g-root-ro_73r7eveacct-fill" data-item-order="-11664" data-item-id="ro_73r7eveacct" data-item-class="Shape Stroke Fill" data-item-index="none" data-renderer-id="0" transform="translate(251, 423.4239501953125)"><g id="ro_73r7eveacct-fill" stroke="none" fill="#e6f9ff"><g><path d="M 22 10L 214 10C 214 10 226 10 226 22L 226 52C 226 52 226 64 214 64L 22 64C 22 64 10 64 10 52L 10 22C 10 22 10 10 22 10"></path></g></g></g><g id="g-root-ro_1cu95ruvebq4g-fill" data-item-order="-11232" data-item-id="ro_1cu95ruvebq4g" data-item-class="Shape Stroke Fill" data-item-index="none" data-renderer-id="0" transform="translate(523, 367.4239501953125)"><g id="ro_1cu95ruvebq4g-fill" stroke="none" fill="#e6f9ff"><g><path d="M 22 10L 154 10C 154 10 166 10 166 22L 166 70C 166 70 166 82 154 82L 22 82C 22 82 10 82 10 70L 10 22C 10 22 10 10 22 10"></path></g></g></g><g id="g-root-ro_1q9ginuvehclg-fill" data-item-order="-10368" data-item-id="ro_1q9ginuvehclg" data-item-class="Shape Stroke Fill" data-item-index="none" data-renderer-id="0" transform="translate(767, 549.4239501953125)"><g id="ro_1q9ginuvehclg-fill" stroke="none" fill="#e6f9ff"><g><path d="M 22 10L 190 10C 190 10 202 10 202 22L 202 52C 202 52 202 64 190 64L 22 64C 22 64 10 64 10 52L 10 22C 10 22 10 10 22 10"></path></g></g></g><g id="g-root-ro_v4ukjeve6616-fill" data-item-order="-10368" data-item-id="ro_v4ukjeve6616" data-item-class="Shape Stroke Fill" data-item-index="none" data-renderer-id="0" transform="translate(523, 293.4239501953125)"><g id="ro_v4ukjeve6616-fill" stroke="none" fill="#e6f9ff"><g><path d="M 22 10L 190 10C 190 10 202 10 202 22L 202 52C 202 52 202 64 190 64L 22 64C 22 64 10 64 10 52L 10 22C 10 22 10 10 22 10"></path></g></g></g><g id="g-root-ro_1czvfjuve1wr2-fill" data-item-order="-9720" data-item-id="ro_1czvfjuve1wr2" data-item-class="Shape Stroke Fill" data-item-index="none" data-renderer-id="0" transform="translate(523, 219.4239501953125)"><g id="ro_1czvfjuve1wr2-fill" stroke="none" fill="#e6f9ff"><g><path d="M 22 10L 178 10C 178 10 190 10 190 22L 190 52C 190 52 190 64 178 64L 22 64C 22 64 10 64 10 52L 10 22C 10 22 10 10 22 10"></path></g></g></g><g id="g-root-left_1lpw2uyve3bwq-fill" data-item-order="0" data-item-id="left_1lpw2uyve3bwq" data-item-class="Icon Stroke" data-item-index="none" data-renderer-id="0" transform="translate(263, 141.4239501953125)"></g><g id="g-root-tx_dataexch_8j96ve3aix-fill" data-item-order="0" data-item-id="tx_dataexch_8j96ve3aix" data-item-class="Label Stroke" data-item-index="none" data-renderer-id="0" transform="translate(299, 132.4239501953125)"><g id="tx_dataexch_8j96ve3aix-fill" stroke="none" fill="#17b0e3"><g><text style="font: 20px Roboto, sans-serif; white-space: pre;"><tspan x="12" y="33.34" dominant-baseline="ideographic">Data </tspan><tspan x="12" y="57.33" dominant-baseline="ideographic">Exchange</tspan></text></g></g></g><g id="g-root-1_mg2p2yveircx-fill" data-item-order="0" data-item-id="1_mg2p2yveircx" data-item-class="Icon Stroke" data-item-index="none" data-renderer-id="0" transform="translate(535, 138.4239501953125)"></g><g id="g-root-tx_arxmlfil_qvw77eveiqko-fill" data-item-order="0" data-item-id="tx_arxmlfil_qvw77eveiqko" data-item-class="Label Stroke" data-item-index="none" data-renderer-id="0" transform="translate(571, 129.4239501953125)"><g id="tx_arxmlfil_qvw77eveiqko-fill" stroke="none" fill="#17b0e3"><g><text style="font: 20px Roboto, sans-serif; white-space: pre;"><tspan x="12" y="33.34" dominant-baseline="ideographic">ARXML </tspan><tspan x="12" y="57.33" dominant-baseline="ideographic">Design/Database Files</tspan></text></g></g></g><g id="g-root-tx_document_dik6eyvek64p-fill" data-item-order="0" data-item-id="tx_document_dik6eyvek64p" data-item-class="Label Stroke" data-item-index="none" data-renderer-id="0" transform="translate(299, 39)"><g id="tx_document_dik6eyvek64p-fill" stroke="none" fill="#17b0e3"><g><text style="font: 20px Roboto, sans-serif; white-space: pre;"><tspan x="12" y="33.33" dominant-baseline="ideographic">Documentation</tspan></text></g></g></g><g id="g-root-json_1upa0savehbt7-fill" data-item-order="0" data-item-id="json_1upa0savehbt7" data-item-class="Icon Stroke" data-item-index="none" data-renderer-id="0" transform="translate(779, 561.4239501953125)"></g><g id="g-root-cog_1lt0d4qvehclg-fill" data-item-order="0" data-item-id="cog_1lt0d4qvehclg" data-item-class="Icon Stroke" data-item-index="none" data-renderer-id="0" transform="translate(15, 186.5)"></g><g id="g-root-tx_developm_2qcfuvehedf-fill" data-item-order="0" data-item-id="tx_developm_2qcfuvehedf" data-item-class="Label Stroke" data-item-index="none" data-renderer-id="0" transform="translate(51, 177.5)"><g id="tx_developm_2qcfuvehedf-fill" stroke="none" fill="#484848"><g><text style="font: 20px Roboto, sans-serif; white-space: pre;"><tspan x="12" y="33.34" dominant-baseline="ideographic">Development </tspan><tspan x="12" y="57.33" dominant-baseline="ideographic">Activities</tspan></text></g></g></g><g id="g-root-code_1lvifsqve1vyd-fill" data-item-order="0" data-item-id="code_1lvifsqve1vyd" data-item-class="Icon Stroke" data-item-index="none" data-renderer-id="0" transform="translate(535, 231.4239501953125)"></g><g id="g-root-tx_sourceco_58f3uve1xqc-fill" data-item-order="0" data-item-id="tx_sourceco_58f3uve1xqc" data-item-class="Label Stroke" data-item-index="none" data-renderer-id="0" transform="translate(571, 234.4239501953125)"><g id="tx_sourceco_58f3uve1xqc-fill" stroke="none" fill="#17b0e3"><g><text style="font: 20px Roboto, sans-serif; white-space: pre;"><tspan x="12" y="34" dominant-baseline="ideographic">Source Code</tspan></text></g></g></g><g id="g-root-4_dj6qnuve63gg-fill" data-item-order="0" data-item-id="4_dj6qnuve63gg" data-item-class="Icon Stroke" data-item-index="none" data-renderer-id="0" transform="translate(263, 268.4239501953125)"></g><g id="g-root-tx_implemen_me79tmve651r-fill" data-item-order="0" data-item-id="tx_implemen_me79tmve651r" data-item-class="Label Stroke" data-item-index="none" data-renderer-id="0" transform="translate(299, 259.4239501953125)"><g id="tx_implemen_me79tmve651r-fill" stroke="none" fill="#17b0e3"><g><text style="font: 20px Roboto, sans-serif; white-space: pre;"><tspan x="12" y="33.34" dominant-baseline="ideographic">Implementation </tspan><tspan x="12" y="57.33" dominant-baseline="ideographic">Artifacts</tspan></text></g></g></g><g id="g-root-tx_jsonfile_4j6hyyvehede-fill" data-item-order="0" data-item-id="tx_jsonfile_4j6hyyvehede" data-item-class="Label Stroke" data-item-index="none" data-renderer-id="0" transform="translate(815, 564.4239501953125)"><g id="tx_jsonfile_4j6hyyvehede-fill" stroke="none" fill="#17b0e3"><g><text style="font: 20px Roboto, sans-serif; white-space: pre;"><tspan x="12" y="33.33" dominant-baseline="ideographic">JSON Files</tspan></text></g></g></g><g id="g-root-chec_73o1mvek7pm-fill" data-item-order="0" data-item-id="chec_73o1mvek7pm" data-item-class="Icon Stroke" data-item-index="none" data-renderer-id="0" transform="translate(263, 36)"></g><g id="g-root-1_18gb2wqve64g9-fill" data-item-order="0" data-item-id="1_18gb2wqve64g9" data-item-class="Icon Stroke" data-item-index="none" data-renderer-id="0" transform="translate(535, 305.4239501953125)"></g><g id="g-root-tx_executab_1hby35mve63nk-fill" data-item-order="0" data-item-id="tx_executab_1hby35mve63nk" data-item-class="Label Stroke" data-item-index="none" data-renderer-id="0" transform="translate(571, 308.4239501953125)"><g id="tx_executab_1hby35mve63nk-fill" stroke="none" fill="#17b0e3"><g><text style="font: 20px Roboto, sans-serif; white-space: pre;"><tspan x="12" y="33.33" dominant-baseline="ideographic">Executables</tspan></text></g></g></g><g id="g-root-1_1hjfs6yveadxj-fill" data-item-order="0" data-item-id="1_1hjfs6yveadxj" data-item-class="Icon Stroke" data-item-index="none" data-renderer-id="0" transform="translate(535, 388.4239501953125)"></g><g id="g-root-tx_designma_1uuwakaveaccm-fill" data-item-order="0" data-item-id="tx_designma_1uuwakaveaccm" data-item-class="Label Stroke" data-item-index="none" data-renderer-id="0" transform="translate(571, 379.4239501953125)"><g id="tx_designma_1uuwakaveaccm-fill" stroke="none" fill="#17b0e3"><g><text style="font: 20px Roboto, sans-serif; white-space: pre;"><tspan x="12" y="34" dominant-baseline="ideographic">Design </tspan><tspan x="12" y="58" dominant-baseline="ideographic">Manifests</tspan></text></g></g></g><g id="g-root-tx_runtimee_1cwr5a2vebshs-fill" data-item-order="0" data-item-id="tx_runtimee_1cwr5a2vebshs" data-item-class="Label Stroke" data-item-index="none" data-renderer-id="0" transform="translate(815, 637.4239501953125)"><g id="tx_runtimee_1cwr5a2vebshs-fill" stroke="none" fill="#17b0e3"><g><text style="font: 20px Roboto, sans-serif; white-space: pre;"><tspan x="12" y="33.34" dominant-baseline="ideographic">Runtime </tspan><tspan x="12" y="57.33" dominant-baseline="ideographic">Environment </tspan><tspan x="12" y="81.33" dominant-baseline="ideographic">Files</tspan></text></g></g></g><g id="g-root-play_92qrgaveabk4-fill" data-item-order="0" data-item-id="play_92qrgaveabk4" data-item-class="Icon Stroke" data-item-index="none" data-renderer-id="0" transform="translate(263, 435.4239501953125)"></g><g id="g-root-tx_configur_mdksqivead4z-fill" data-item-order="0" data-item-id="tx_configur_mdksqivead4z" data-item-class="Label Stroke" data-item-index="none" data-renderer-id="0" transform="translate(299, 438.4239501953125)"><g id="tx_configur_mdksqivead4z-fill" stroke="none" fill="#17b0e3"><g><text style="font: 20px Roboto, sans-serif; white-space: pre;"><tspan x="12" y="33.33" dominant-baseline="ideographic">Configuration</tspan></text></g></g></g><g id="g-root-star_hwiflmveek99-fill" data-item-order="0" data-item-id="star_hwiflmveek99" data-item-class="Icon Stroke" data-item-index="none" data-renderer-id="0" transform="translate(535, 480.4239501953125)"></g><g id="g-root-tx_deployma_v7yxyyveeioc-fill" data-item-order="0" data-item-id="tx_deployma_v7yxyyveeioc" data-item-class="Label Stroke" data-item-index="none" data-renderer-id="0" transform="translate(571, 471.4239501953125)"><g id="tx_deployma_v7yxyyveeioc-fill" stroke="none" fill="#17b0e3"><g><text style="font: 20px Roboto, sans-serif; white-space: pre;"><tspan x="12" y="33.34" dominant-baseline="ideographic">Deploy </tspan><tspan x="12" y="57.33" dominant-baseline="ideographic">Manifests</tspan></text></g></g></g><g id="g-root-pen_zrj7gaveekul-fill" data-item-order="0" data-item-id="pen_zrj7gaveekul" data-item-class="Icon Stroke" data-item-index="none" data-renderer-id="0" transform="translate(535, 36)"></g><g id="g-root-json_1umt9juvydqmd-fill" data-item-order="0" data-item-id="json_1umt9juvydqmd" data-item-class="Icon Stroke" data-item-index="none" data-renderer-id="0" transform="translate(779, 480.4239501953125)"></g><g id="g-root-tx_analysis_1ly08zeveelms-fill" data-item-order="0" data-item-id="tx_analysis_1ly08zeveelms" data-item-class="Label Stroke" data-item-index="none" data-renderer-id="0" transform="translate(571, 15)"><g id="tx_analysis_1ly08zeveelms-fill" stroke="none" fill="#17b0e3"><g><text style="font: 20px Roboto, sans-serif; white-space: pre;"><tspan x="12" y="33.34" dominant-baseline="ideographic">Analysis and </tspan><tspan x="12" y="57.33" dominant-baseline="ideographic">Design </tspan><tspan x="12" y="81.33" dominant-baseline="ideographic">Documents</tspan></text></g></g></g><g id="g-root-mail_qqa3qyvebrpl-fill" data-item-order="0" data-item-id="mail_qqa3qyvebrpl" data-item-class="Icon Stroke" data-item-index="none" data-renderer-id="0" transform="translate(779, 658.4239501953125)"></g><g id="g-root-tx_qv9q56vocphn-fill" data-item-order="0" data-item-id="tx_qv9q56vocphn" data-item-class="Label Stroke" data-item-index="none" data-renderer-id="0" transform="translate(815, 483.4239501953125)"><g id="tx_qv9q56vocphn-fill" stroke="none" fill="#17b0e3"><g><text style="font: 20px Roboto, sans-serif; white-space: pre;"><tspan x="16.62" y="34" dominant-baseline="ideographic">Generated Code</tspan></text></g></g></g><g id="g-root-cu_1d0hzsqvebqj0-fill" data-item-order="2" data-item-id="cu_1d0hzsqvebqj0" data-item-class="Curve Stroke" data-item-index="none" data-renderer-id="0" transform="translate(195, 156.4239501953125)"></g><g id="g-root-cu_1qbc12yvebs3l-fill" data-item-order="2" data-item-id="cu_1qbc12yvebs3l" data-item-class="Curve Stroke" data-item-index="none" data-renderer-id="0" transform="translate(467, 156.4239501953125)"></g><g id="g-root-cu_1hgbhx6vebpqn-fill" data-item-order="2" data-item-id="cu_1hgbhx6vebpqn" data-item-class="Curve Stroke" data-item-index="none" data-renderer-id="0" transform="translate(195, 201.5)"></g><g id="g-root-cu_1d0hzsqvebqiy-fill" data-item-order="2" data-item-id="cu_1d0hzsqvebqiy" data-item-class="Curve Stroke" data-item-index="none" data-renderer-id="0" transform="translate(195, 201.5)"></g><g id="g-root-cu_1lviiyivebs3z-fill" data-item-order="2" data-item-id="cu_1lviiyivebs3z" data-item-class="Curve Stroke" data-item-index="none" data-renderer-id="0" transform="translate(467, 246.4239501953125)"></g><g id="g-root-cu_1lviiyivebs3w-fill" data-item-order="2" data-item-id="cu_1lviiyivebs3w" data-item-class="Curve Stroke" data-item-index="none" data-renderer-id="0" transform="translate(467, 283.4239501953125)"></g><g id="g-root-cu_1hgbhx6vebpqk-fill" data-item-order="2" data-item-id="cu_1hgbhx6vebpqk" data-item-class="Curve Stroke" data-item-index="none" data-renderer-id="0" transform="translate(467, 51)"></g><g id="g-root-cu_1ur5j7evebrb6-fill" data-item-order="2" data-item-id="cu_1ur5j7evebrb6" data-item-class="Curve Stroke" data-item-index="none" data-renderer-id="0" transform="translate(467, 403.4239501953125)"></g><g id="g-root-cu_1ur5j7evebrb4-fill" data-item-order="2" data-item-id="cu_1ur5j7evebrb4" data-item-class="Curve Stroke" data-item-index="none" data-renderer-id="0" transform="translate(467, 450.4239501953125)"></g><g id="g-root-cu_1d0hzsqvebqj2-fill" data-item-order="2" data-item-id="cu_1d0hzsqvebqj2" data-item-class="Curve Stroke" data-item-index="none" data-renderer-id="0" transform="translate(195, 51)"></g><g id="g-root-cu_5uzcqvebqpv-fill" data-item-order="2" data-item-id="cu_5uzcqvebqpv" data-item-class="Curve Stroke" data-item-index="none" data-renderer-id="0" transform="translate(715, 495.4239501953125)"></g><g id="g-root-cu_1qbc12yvebrbi-fill" data-item-order="2" data-item-id="cu_1qbc12yvebrbi" data-item-class="Curve Stroke" data-item-index="none" data-renderer-id="0" transform="translate(715, 495.4239501953125)"></g><g id="g-root-cn_1qclokqvofimh-fill" data-item-order="2" data-item-id="cn_1qclokqvofimh" data-item-class="Curve Stroke" data-item-index="none" data-renderer-id="0" transform="translate(715, 495.4239501953125)"></g><g id="g-root-ro_94m6pmveisxu-stroke" data-item-order="-21528" data-item-id="ro_94m6pmveisxu" data-item-class="Shape Stroke Fill" data-item-index="none" data-renderer-id="0" transform="translate(523, 117.4239501953125)"><g id="ro_94m6pmveisxu-stroke" fill="none" stroke-linecap="round" stroke-linejoin="round" stroke-miterlimit="4" stroke="#17b0e3" stroke-width="2"><g><path d="M 22 10L 274 10C 274 10 286 10 286 22L 286 76C 286 76 286 88 274 88L 22 88C 22 88 10 88 10 76L 10 22C 10 22 10 10 22 10"></path></g></g></g><g id="g-root-ro_vbppbuveelmu-stroke" data-item-order="-18432" data-item-id="ro_vbppbuveelmu" data-item-class="Shape Stroke Fill" data-item-index="none" data-renderer-id="0" transform="translate(523, 3)"><g id="ro_vbppbuveelmu-stroke" fill="none" stroke-linecap="round" stroke-linejoin="round" stroke-miterlimit="4" stroke="#17b0e3" stroke-width="2"><g><path d="M 22 10L 190 10C 190 10 202 10 202 22L 202 94C 202 94 202 106 190 106L 22 106C 22 106 10 106 10 94L 10 22C 10 22 10 10 22 10"></path></g></g></g><g id="g-root-ro_dfg2gqvebq4q-stroke" data-item-order="-18432" data-item-id="ro_dfg2gqvebq4q" data-item-class="Shape Stroke Fill" data-item-index="none" data-renderer-id="0" transform="translate(767, 625.4239501953125)"><g id="ro_dfg2gqvebq4q-stroke" fill="none" stroke-linecap="round" stroke-linejoin="round" stroke-miterlimit="4" stroke="#17b0e3" stroke-width="2"><g><path d="M 22 10L 190 10C 190 10 202 10 202 22L 202 94C 202 94 202 106 190 106L 22 106C 22 106 10 106 10 94L 10 22C 10 22 10 10 22 10"></path></g></g></g><g id="g-root-ro_7q8aive651d-stroke" data-item-order="-15552" data-item-id="ro_7q8aive651d" data-item-class="Shape Stroke Fill" data-item-index="none" data-renderer-id="0" transform="translate(251, 247.4239501953125)"><g id="ro_7q8aive651d-stroke" fill="none" stroke-linecap="round" stroke-linejoin="round" stroke-miterlimit="4" stroke="#17b0e3" stroke-width="2"><g><path d="M 22 10L 214 10C 214 10 226 10 226 22L 226 70C 226 70 226 82 214 82L 22 82C 22 82 10 82 10 70L 10 22C 10 22 10 10 22 10"></path></g></g></g><g id="g-root-ro_1ha2kqive3coz-stroke" data-item-order="-15552" data-item-id="ro_1ha2kqive3coz" data-item-class="Shape Stroke Fill" data-item-index="none" data-renderer-id="0" transform="translate(251, 120.4239501953125)"><g id="ro_1ha2kqive3coz-stroke" fill="none" stroke-linecap="round" stroke-linejoin="round" stroke-miterlimit="4" stroke="#17b0e3" stroke-width="2"><g><path d="M 22 10L 214 10C 214 10 226 10 226 22L 226 70C 226 70 226 82 214 82L 22 82C 22 82 10 82 10 70L 10 22C 10 22 10 10 22 10"></path></g></g></g><g id="g-root-ro_dgoxh6veel1i-stroke" data-item-order="-13824" data-item-id="ro_dgoxh6veel1i" data-item-class="Shape Stroke Fill" data-item-index="none" data-renderer-id="0" transform="translate(523, 459.4239501953125)"><g id="ro_dgoxh6veel1i-stroke" fill="none" stroke-linecap="round" stroke-linejoin="round" stroke-miterlimit="4" stroke="#17b0e3" stroke-width="2"><g><path d="M 22 10L 190 10C 190 10 202 10 202 22L 202 70C 202 70 202 82 190 82L 22 82C 22 82 10 82 10 70L 10 22C 10 22 10 10 22 10"></path></g></g></g><g id="g-root-ro_18hjurevehe6d-stroke" data-item-order="-13824" data-item-id="ro_18hjurevehe6d" data-item-class="Shape Stroke Fill" data-item-index="none" data-renderer-id="0" transform="translate(3, 165.5)"><g id="ro_18hjurevehe6d-stroke" fill="none" stroke-linecap="round" stroke-linejoin="round" stroke-miterlimit="4" stroke="#484848" stroke-width="2"><g><path d="M 22 10L 190 10C 190 10 202 10 202 22L 202 70C 202 70 202 82 190 82L 22 82C 22 82 10 82 10 70L 10 22C 10 22 10 10 22 10"></path></g></g></g><g id="g-root-ro_1hd7h5mvehd6z-stroke" data-item-order="-11988" data-item-id="ro_1hd7h5mvehd6z" data-item-class="Shape Stroke Fill" data-item-index="none" data-renderer-id="0" transform="translate(767, 468.4239501953125)"><g id="ro_1hd7h5mvehd6z-stroke" fill="none" stroke-linecap="round" stroke-linejoin="round" stroke-miterlimit="4" stroke="#17b0e3" stroke-width="2"><g><path d="M 22 10L 220 10C 220 10 232 10 232 22L 232 52C 232 52 232 64 220 64L 22 64C 22 64 10 64 10 52L 10 22C 10 22 10 10 22 10"></path></g></g></g><g id="g-root-ro_1ut0ozevek54z-stroke" data-item-order="-11664" data-item-id="ro_1ut0ozevek54z" data-item-class="Shape Stroke Fill" data-item-index="none" data-renderer-id="0" transform="translate(251, 24)"><g id="ro_1ut0ozevek54z-stroke" fill="none" stroke-linecap="round" stroke-linejoin="round" stroke-miterlimit="4" stroke="#17b0e3" stroke-width="2"><g><path d="M 22 10L 214 10C 214 10 226 10 226 22L 226 52C 226 52 226 64 214 64L 22 64C 22 64 10 64 10 52L 10 22C 10 22 10 10 22 10"></path></g></g></g><g id="g-root-ro_73r7eveacct-stroke" data-item-order="-11664" data-item-id="ro_73r7eveacct" data-item-class="Shape Stroke Fill" data-item-index="none" data-renderer-id="0" transform="translate(251, 423.4239501953125)"><g id="ro_73r7eveacct-stroke" fill="none" stroke-linecap="round" stroke-linejoin="round" stroke-miterlimit="4" stroke="#17b0e3" stroke-width="2"><g><path d="M 22 10L 214 10C 214 10 226 10 226 22L 226 52C 226 52 226 64 214 64L 22 64C 22 64 10 64 10 52L 10 22C 10 22 10 10 22 10"></path></g></g></g><g id="g-root-ro_1cu95ruvebq4g-stroke" data-item-order="-11232" data-item-id="ro_1cu95ruvebq4g" data-item-class="Shape Stroke Fill" data-item-index="none" data-renderer-id="0" transform="translate(523, 367.4239501953125)"><g id="ro_1cu95ruvebq4g-stroke" fill="none" stroke-linecap="round" stroke-linejoin="round" stroke-miterlimit="4" stroke="#17b0e3" stroke-width="2"><g><path d="M 22 10L 154 10C 154 10 166 10 166 22L 166 70C 166 70 166 82 154 82L 22 82C 22 82 10 82 10 70L 10 22C 10 22 10 10 22 10"></path></g></g></g><g id="g-root-ro_1q9ginuvehclg-stroke" data-item-order="-10368" data-item-id="ro_1q9ginuvehclg" data-item-class="Shape Stroke Fill" data-item-index="none" data-renderer-id="0" transform="translate(767, 549.4239501953125)"><g id="ro_1q9ginuvehclg-stroke" fill="none" stroke-linecap="round" stroke-linejoin="round" stroke-miterlimit="4" stroke="#17b0e3" stroke-width="2"><g><path d="M 22 10L 190 10C 190 10 202 10 202 22L 202 52C 202 52 202 64 190 64L 22 64C 22 64 10 64 10 52L 10 22C 10 22 10 10 22 10"></path></g></g></g><g id="g-root-ro_v4ukjeve6616-stroke" data-item-order="-10368" data-item-id="ro_v4ukjeve6616" data-item-class="Shape Stroke Fill" data-item-index="none" data-renderer-id="0" transform="translate(523, 293.4239501953125)"><g id="ro_v4ukjeve6616-stroke" fill="none" stroke-linecap="round" stroke-linejoin="round" stroke-miterlimit="4" stroke="#17b0e3" stroke-width="2"><g><path d="M 22 10L 190 10C 190 10 202 10 202 22L 202 52C 202 52 202 64 190 64L 22 64C 22 64 10 64 10 52L 10 22C 10 22 10 10 22 10"></path></g></g></g><g id="g-root-ro_1czvfjuve1wr2-stroke" data-item-order="-9720" data-item-id="ro_1czvfjuve1wr2" data-item-class="Shape Stroke Fill" data-item-index="none" data-renderer-id="0" transform="translate(523, 219.4239501953125)"><g id="ro_1czvfjuve1wr2-stroke" fill="none" stroke-linecap="round" stroke-linejoin="round" stroke-miterlimit="4" stroke="#17b0e3" stroke-width="2"><g><path d="M 22 10L 178 10C 178 10 190 10 190 22L 190 52C 190 52 190 64 178 64L 22 64C 22 64 10 64 10 52L 10 22C 10 22 10 10 22 10"></path></g></g></g><g id="g-root-left_1lpw2uyve3bwq-stroke" data-item-order="0" data-item-id="left_1lpw2uyve3bwq" data-item-class="Icon Stroke" data-item-index="none" data-renderer-id="0" transform="translate(263, 141.4239501953125)"><g id="left_1lpw2uyve3bwq-stroke" fill="none" stroke-linecap="round" stroke-linejoin="round" stroke-miterlimit="4" stroke="#17b0e3" stroke-width="2"><g><path d="M 38.92857 11.071428L 11.071428 38.92857M 19.642857 38.92857L 11.071428 38.92857L 11.071428 30.357141M 20.714285 20.714285L 11.071428 11.071428M 19.642857 11.071428L 11.071428 11.071428L 11.071428 19.642857M 29.285713 29.285713L 38.92857 38.92857"></path></g></g></g><g id="g-root-tx_dataexch_8j96ve3aix-stroke" data-item-order="0" data-item-id="tx_dataexch_8j96ve3aix" data-item-class="Label Stroke" data-item-index="none" data-renderer-id="0" transform="translate(299, 132.4239501953125)"></g><g id="g-root-1_mg2p2yveircx-stroke" data-item-order="0" data-item-id="1_mg2p2yveircx" data-item-class="Icon Stroke" data-item-index="none" data-renderer-id="0" transform="translate(535, 138.4239501953125)"><g id="1_mg2p2yveircx-stroke" fill="none" stroke-linecap="round" stroke-linejoin="round" stroke-miterlimit="4" stroke="#17b0e3" stroke-width="2"><g><path d="M 11.875 10.63L 38.125 10.63C 38.125 10.63 39.375 10.63 39.375 11.88L 39.375 38.130001C 39.375 38.130001 39.375 39.380001 38.125 39.380001L 11.875 39.380001C 11.875 39.380001 10.625 39.380001 10.625 38.130001L 10.625 11.88C 10.625 11.88 10.625 10.63 11.875 10.63M 15.625 34.380001L 20.625 24.379999M 20.625 34.380001L 15.625 24.379999M 23.125 34.380001L 23.125 24.379999L 25.625 29.379999L 28.125 24.379999L 28.125 34.380001M 30.625 24.375L 30.625 32.5C 30.625 33.535534 31.464466 34.375 32.5 34.375L 35.625 34.375"></path></g></g></g><g id="g-root-tx_arxmlfil_qvw77eveiqko-stroke" data-item-order="0" data-item-id="tx_arxmlfil_qvw77eveiqko" data-item-class="Label Stroke" data-item-index="none" data-renderer-id="0" transform="translate(571, 129.4239501953125)"></g><g id="g-root-tx_document_dik6eyvek64p-stroke" data-item-order="0" data-item-id="tx_document_dik6eyvek64p" data-item-class="Label Stroke" data-item-index="none" data-renderer-id="0" transform="translate(299, 39)"></g><g id="g-root-json_1upa0savehbt7-stroke" data-item-order="0" data-item-id="json_1upa0savehbt7" data-item-class="Icon Stroke" data-item-index="none" data-renderer-id="0" transform="translate(779, 561.4239501953125)"><g id="json_1upa0savehbt7-stroke" fill="none" stroke-linecap="round" stroke-linejoin="round" stroke-miterlimit="4" stroke="#17b0e3" stroke-width="2"><g><path d="M 10.625 25C 10.625 32.939095 17.060907 39.375 25 39.375C 32.939095 39.375 39.375 32.939095 39.375 25C 39.375 17.060907 32.939095 10.625 25 10.625C 17.060907 10.625 10.625 17.060907 10.625 25M 25 10.625C 38.75 12.425 36.25 35.4375 25 32.075001C 19.25 30.35 19.6 19.6625 25 17.924999M 25 39.375C 11.25 37.575001 13.75 14.5625 25 17.924999C 30.75 19.65 30.4 30.337502 25 32.075001"></path></g></g></g><g id="g-root-cog_1lt0d4qvehclg-stroke" data-item-order="0" data-item-id="cog_1lt0d4qvehclg" data-item-class="Icon Stroke" data-item-index="none" data-renderer-id="0" transform="translate(15, 186.5)"><g id="cog_1lt0d4qvehclg-stroke" fill="none" stroke-linecap="round" stroke-linejoin="round" stroke-miterlimit="4" stroke="#484848" stroke-width="2"><g><path d="M 16.7675 16.875L 22.6 24.116251C 23.087976 24.604376 23.087976 25.395624 22.6 25.883749L 16.7675 33.125M 39.008751 24.116251C 39.496727 24.604376 39.496727 25.395624 39.008751 25.883749L 32.758751 32.758751C 32.524384 32.993187 32.206493 33.124928 31.875 33.125L 24.897501 33.125L 32.138752 25.883749C 32.626728 25.395624 32.626728 24.604376 32.138752 24.116251L 24.897501 16.875L 31.875 16.875C 32.206493 16.875071 32.524384 17.006813 32.758751 17.241251ZM 21.875 16.875L 16.7675 16.875M 21.875 33.125L 16.7675 33.125M 13.75 16.875L 10.625 16.875M 13.75 33.125L 10.625 33.125"></path></g></g></g><g id="g-root-tx_developm_2qcfuvehedf-stroke" data-item-order="0" data-item-id="tx_developm_2qcfuvehedf" data-item-class="Label Stroke" data-item-index="none" data-renderer-id="0" transform="translate(51, 177.5)"></g><g id="g-root-code_1lvifsqve1vyd-stroke" data-item-order="0" data-item-id="code_1lvifsqve1vyd" data-item-class="Icon Stroke" data-item-index="none" data-renderer-id="0" transform="translate(535, 231.4239501953125)"><g id="code_1lvifsqve1vyd-stroke" fill="none" stroke-linecap="round" stroke-linejoin="round" stroke-miterlimit="4" stroke="#17b0e3" stroke-width="2"><g><path d="M 34.375 25.625L 34.375 18.0975C 34.377071 13.971159 31.032591 10.624999 26.90625 10.625L 11.875 10.625C 11.184644 10.625 10.625 11.184644 10.625 11.875L 10.625 38.125C 10.625 38.815353 11.184644 39.375 11.875 39.375L 15.625 39.375M 28.125 10.73L 28.125 15.625C 28.125 16.315355 28.684643 16.875 29.375 16.875L 34.275002 16.875M 29.375 31.879999L 29.375 36.880001M 31.875 34.380001L 26.875 34.380001M 36.875 31.879999L 36.875 36.880001M 39.375 34.380001L 34.375 34.380001M 24.375 39.375C 21.613577 39.375 19.375 37.136425 19.375 34.375C 19.375 31.613577 21.613577 29.375 24.375 29.375"></path></g></g></g><g id="g-root-tx_sourceco_58f3uve1xqc-stroke" data-item-order="0" data-item-id="tx_sourceco_58f3uve1xqc" data-item-class="Label Stroke" data-item-index="none" data-renderer-id="0" transform="translate(571, 234.4239501953125)"></g><g id="g-root-4_dj6qnuve63gg-stroke" data-item-order="0" data-item-id="4_dj6qnuve63gg" data-item-class="Icon Stroke" data-item-index="none" data-renderer-id="0" transform="translate(263, 268.4239501953125)"><g id="4_dj6qnuve63gg-stroke" fill="none" stroke-linecap="round" stroke-linejoin="round" stroke-miterlimit="4" stroke="#17b0e3" stroke-width="2"><g><path d="M 13.125 12.505L 36.875 12.505C 36.875 12.505 39.375 12.505 39.375 15.004999L 39.375 35.005001C 39.375 35.005001 39.375 37.505001 36.875 37.505001L 13.125 37.505001C 13.125 37.505001 10.625 37.505001 10.625 35.005001L 10.625 15.004999C 10.625 15.004999 10.625 12.505 13.125 12.505M 10.625 18.755001L 39.375 18.755001M 15 15.3175C 15.172588 15.3175 15.3125 15.457411 15.3125 15.63C 15.3125 15.802589 15.172588 15.9425 15 15.9425C 14.827411 15.9425 14.6875 15.802589 14.6875 15.63C 14.6875 15.457411 14.827411 15.3175 15 15.3175M 18.75 15.3175C 18.922588 15.3175 19.0625 15.457411 19.0625 15.63C 19.0625 15.802589 18.922588 15.9425 18.75 15.9425C 18.577412 15.9425 18.4375 15.802589 18.4375 15.63C 18.4375 15.457411 18.577412 15.3175 18.75 15.3175M 22.5 15.3175C 22.672588 15.3175 22.8125 15.457411 22.8125 15.63C 22.8125 15.802589 22.672588 15.9425 22.5 15.9425C 22.327412 15.9425 22.1875 15.802589 22.1875 15.63C 22.1875 15.457411 22.327412 15.3175 22.5 15.3175"></path></g></g></g><g id="g-root-tx_implemen_me79tmve651r-stroke" data-item-order="0" data-item-id="tx_implemen_me79tmve651r" data-item-class="Label Stroke" data-item-index="none" data-renderer-id="0" transform="translate(299, 259.4239501953125)"></g><g id="g-root-tx_jsonfile_4j6hyyvehede-stroke" data-item-order="0" data-item-id="tx_jsonfile_4j6hyyvehede" data-item-class="Label Stroke" data-item-index="none" data-renderer-id="0" transform="translate(815, 564.4239501953125)"></g><g id="g-root-chec_73o1mvek7pm-stroke" data-item-order="0" data-item-id="chec_73o1mvek7pm" data-item-class="Icon Stroke" data-item-index="none" data-renderer-id="0" transform="translate(263, 36)"><g id="chec_73o1mvek7pm-stroke" fill="none" stroke-linecap="round" stroke-linejoin="round" stroke-miterlimit="4" stroke="#17b0e3" stroke-width="2"><g><path d="M 23.125 36.875L 12.5 36.875C 11.464466 36.875 10.625 36.035534 10.625 35L 10.625 12.5C 10.625 11.464466 11.464466 10.625 12.5 10.625L 23.8575 10.625C 24.188993 10.625071 24.506884 10.756813 24.741251 10.99125L 30.26 16.51C 30.494438 16.744366 30.626181 17.062256 30.626249 17.393749L 30.626249 21.875M 24.375 10.7375L 24.375 16.25C 24.375 16.595179 24.654823 16.875 25 16.875L 30.513748 16.875M 20.625 18.4375L 16.875 22.1875L 15 20.3125M 20.625 24.6875L 16.875 28.4375L 15 26.5625M 24.375 31.875C 24.375002 36.017136 27.732864 39.375 31.875 39.375C 36.017136 39.375 39.375 36.017136 39.375 31.875C 39.375 27.732864 36.017136 24.375002 31.875 24.375002C 27.732864 24.375002 24.375002 27.732864 24.375002 31.875M 36.25 31.25C 36.25 30.904823 35.970177 30.625 35.625 30.625L 33.125 30.625L 33.125 28.125C 33.125 27.779823 32.845177 27.5 32.5 27.5L 31.25 27.5C 30.904823 27.5 30.625 27.779823 30.625 28.125L 30.625 30.625L 28.125 30.625C 27.779823 30.625 27.5 30.904823 27.5 31.25L 27.5 32.5C 27.5 32.845177 27.779823 33.125 28.125 33.125L 30.625 33.125L 30.625 35.625C 30.625 35.970177 30.904823 36.25 31.25 36.25L 32.5 36.25C 32.845177 36.25 33.125 35.970177 33.125 35.625L 33.125 33.125L 35.625 33.125C 35.970177 33.125 36.25 32.845177 36.25 32.5Z"></path></g></g></g><g id="g-root-1_18gb2wqve64g9-stroke" data-item-order="0" data-item-id="1_18gb2wqve64g9" data-item-class="Icon Stroke" data-item-index="none" data-renderer-id="0" transform="translate(535, 305.4239501953125)"><g id="1_18gb2wqve64g9-stroke" fill="none" stroke-linecap="round" stroke-linejoin="round" stroke-miterlimit="4" stroke="#17b0e3" stroke-width="2"><g><path d="M 11.875 10.63L 38.125 10.63C 38.125 10.63 39.375 10.63 39.375 11.88L 39.375 38.130001C 39.375 38.130001 39.375 39.380001 38.125 39.380001L 11.875 39.380001C 11.875 39.380001 10.625 39.380001 10.625 38.130001L 10.625 11.88C 10.625 11.88 10.625 10.63 11.875 10.63M 35.625 34.375L 32.5 34.375C 31.464466 34.375 30.625 33.535534 30.625 32.5L 30.625 26.25C 30.625 25.214466 31.464466 24.375 32.5 24.375L 35.625 24.375M 30.625 29.379999L 33.75 29.379999M 20.625 34.375L 17.5 34.375C 16.464466 34.375 15.625 33.535534 15.625 32.5L 15.625 26.25C 15.625 25.214466 16.464466 24.375 17.5 24.375L 20.625 24.375M 15.625 29.379999L 18.75 29.379999M 23.125 34.380001L 28.125 24.379999M 28.125 34.380001L 23.125 24.379999"></path></g></g></g><g id="g-root-tx_executab_1hby35mve63nk-stroke" data-item-order="0" data-item-id="tx_executab_1hby35mve63nk" data-item-class="Label Stroke" data-item-index="none" data-renderer-id="0" transform="translate(571, 308.4239501953125)"></g><g id="g-root-1_1hjfs6yveadxj-stroke" data-item-order="0" data-item-id="1_1hjfs6yveadxj" data-item-class="Icon Stroke" data-item-index="none" data-renderer-id="0" transform="translate(535, 388.4239501953125)"><g id="1_1hjfs6yveadxj-stroke" fill="none" stroke-linecap="round" stroke-linejoin="round" stroke-miterlimit="4" stroke="#17b0e3" stroke-width="2"><g><path d="M 39.375 36.875L 39.375 38.125C 39.375 38.815353 38.815353 39.375 38.125 39.375L 11.875 39.375C 11.184644 39.375 10.625 38.815353 10.625 38.125L 10.625 36.875M 10.625 20.625L 10.625 11.875C 10.625 11.184644 11.184644 10.625 11.875 10.625L 38.125 10.625C 38.815353 10.625 39.375 11.184644 39.375 11.875L 39.375 20.625M 11.875 24.375L 16.875 24.375M 14.375 24.375L 14.375 34.375M 11.875 34.375L 16.875 34.375M 19.375 34.375L 19.375 24.375L 24.375 34.375L 24.375 24.375M 26.875 24.375C 29.636423 24.375 31.875 26.613577 31.875 29.375C 31.875 32.136425 29.636423 34.375 26.875 34.375ZM 34.375 24.375C 37.136425 24.375 39.375 26.613577 39.375 29.375C 39.375 32.136425 37.136425 34.375 34.375 34.375Z"></path></g></g></g><g id="g-root-tx_designma_1uuwakaveaccm-stroke" data-item-order="0" data-item-id="tx_designma_1uuwakaveaccm" data-item-class="Label Stroke" data-item-index="none" data-renderer-id="0" transform="translate(571, 379.4239501953125)"></g><g id="g-root-tx_runtimee_1cwr5a2vebshs-stroke" data-item-order="0" data-item-id="tx_runtimee_1cwr5a2vebshs" data-item-class="Label Stroke" data-item-index="none" data-renderer-id="0" transform="translate(815, 637.4239501953125)"></g><g id="g-root-play_92qrgaveabk4-stroke" data-item-order="0" data-item-id="play_92qrgaveabk4" data-item-class="Icon Stroke" data-item-index="none" data-renderer-id="0" transform="translate(263, 435.4239501953125)"><g id="play_92qrgaveabk4-stroke" fill="none" stroke-linecap="round" stroke-linejoin="round" stroke-miterlimit="4" stroke="#17b0e3" stroke-width="2"><g><path d="M 17.5 25.001251C 17.5 29.143387 20.857864 32.501251 25 32.501251C 29.142136 32.501251 32.5 29.143387 32.5 25.001251C 32.5 20.859116 29.142136 17.501251 25 17.501251C 20.857864 17.501251 17.5 20.859116 17.5 25.001251ZM 23.125 21.33L 23.125 28.751251L 28.776249 25.001251L 23.125 21.33ZM 34.903751 19.016251C 34.618877 19.615026 34.601128 20.306482 34.854889 20.91909C 35.10865 21.531698 35.610157 22.008057 36.235001 22.23L 37.81625 22.7925C 38.751289 23.124374 39.376045 24.009064 39.376045 25.001251C 39.376045 25.993439 38.751289 26.878126 37.81625 27.210001L 36.235001 27.772501C 35.610157 27.994442 35.10865 28.4708 34.854889 29.083408C 34.601128 29.696016 34.618877 30.387474 34.903748 30.98625L 35.625 32.5C 36.054737 33.396317 35.871998 34.466255 35.169128 35.169128C 34.466255 35.871998 33.396317 36.054737 32.499996 35.624996L 30.983751 34.904999C 30.384972 34.620129 29.693516 34.602375 29.080908 34.85614C 28.468302 35.109901 27.991941 35.611408 27.77 36.236248L 27.2075 37.817501C 26.875626 38.752541 25.99094 39.377296 24.998751 39.377296C 24.006563 39.377296 23.121876 38.752541 22.790001 37.817501L 22.227499 36.236252C 22.005556 35.611408 21.529196 35.109901 20.91659 34.85614C 20.303982 34.602375 19.612526 34.620129 19.01375 34.904999L 17.5 35.625C 16.603683 36.054737 15.533745 35.871998 14.830873 35.169128C 14.127999 34.466255 13.94526 33.396317 14.375 32.499996L 15.095 30.983751C 15.379869 30.384972 15.397624 29.693516 15.14386 29.080908C 14.890097 28.468302 14.38859 27.991941 13.76375 27.77L 12.1825 27.2075C 11.247462 26.875626 10.622706 25.99094 10.622706 24.998751C 10.622706 24.006563 11.247462 23.121876 12.1825 22.790001L 13.76375 22.227499C 14.388147 22.005732 14.889415 21.5299 15.143368 20.917885C 15.397322 20.30587 15.380202 19.614935 15.09625 19.016251L 14.375 17.5C 13.94526 16.603683 14.127999 15.533745 14.830873 14.830873C 15.533745 14.127999 16.603683 13.94526 17.5 14.375L 19.016251 15.095C 19.614573 15.379546 20.305407 15.397417 20.917641 15.144185C 21.529875 14.890954 22.006243 14.390306 22.228748 13.76625L 22.79125 12.185C 23.123127 11.249962 24.007813 10.625206 25.000002 10.625206C 25.992188 10.625206 26.876877 11.249962 27.208752 12.185L 27.77125 13.76625C 27.993191 14.39109 28.469551 14.892596 29.082159 15.146359C 29.694765 15.400124 30.386221 15.382369 30.984997 15.0975L 32.5 14.375C 33.396317 13.94526 34.466255 14.127999 35.169128 14.830873C 35.871998 15.533745 36.054737 16.603683 35.624996 17.5Z"></path></g></g></g><g id="g-root-tx_configur_mdksqivead4z-stroke" data-item-order="0" data-item-id="tx_configur_mdksqivead4z" data-item-class="Label Stroke" data-item-index="none" data-renderer-id="0" transform="translate(299, 438.4239501953125)"></g><g id="g-root-star_hwiflmveek99-stroke" data-item-order="0" data-item-id="star_hwiflmveek99" data-item-class="Icon Stroke" data-item-index="none" data-renderer-id="0" transform="translate(535, 480.4239501953125)"><g id="star_hwiflmveek99-stroke" fill="none" stroke-linecap="round" stroke-linejoin="round" stroke-miterlimit="4" stroke="#17b0e3" stroke-width="2"><g><path d="M 24.43375 11.1175C 24.536343 10.911833 24.746414 10.781866 24.97625 10.781866C 25.206085 10.781866 25.416157 10.911833 25.518749 11.1175L 26.779999 13.67C 26.86833 13.84724 27.037809 13.970033 27.233749 13.99875L 30.0625 14.40875C 30.288311 14.439417 30.476892 14.596111 30.548399 14.812487C 30.619904 15.028861 30.561821 15.267069 30.39875 15.42625L 28.35125 17.42625C 28.210266 17.562347 28.145691 17.759352 28.178751 17.952501L 28.6625 20.77125C 28.699911 20.995911 28.60635 21.2223 28.421251 21.355001C 28.234184 21.487835 27.988487 21.50473 27.785 21.39875L 25.258749 20.075001C 25.081329 19.982513 24.869921 19.982513 24.692499 20.075001L 22.17375 21.39875C 21.970264 21.50473 21.724566 21.487835 21.5375 21.355C 21.350704 21.223585 21.256302 20.996338 21.294998 20.77125L 21.778751 17.952499C 21.81213 17.759563 21.748032 17.562595 21.6075 17.42625L 19.553751 15.42625C 19.390736 15.267241 19.332527 15.029265 19.403742 14.812963C 19.474957 14.596663 19.663157 14.439814 19.88875 14.40875L 22.717499 14C 22.91382 13.971462 23.083757 13.848678 23.172501 13.67125ZM 19.94375 23.20875C 19.982716 23.433584 19.888824 23.660772 19.702499 23.7925C 19.515841 23.92647 19.269489 23.943409 19.06625 23.836248L 16.539999 22.512501C 16.362579 22.420013 16.151171 22.420013 15.97375 22.512501L 13.455 23.83625C 13.25176 23.943409 13.005408 23.92647 12.818749 23.7925C 12.632202 23.660889 12.537868 23.433804 12.57625 23.20875L 13.059999 20.389999C 13.093829 20.197031 13.029665 19.999855 12.88875 19.86375L 10.835 17.86375C 10.671365 17.704922 10.612652 17.466675 10.68375 17.25C 10.756043 17.033579 10.944172 16.876402 11.17 16.84375L 14 16.436251C 14.196486 16.408121 14.366594 16.285213 14.455 16.1075L 15.715 13.555C 15.817593 13.349333 16.027664 13.219365 16.2575 13.219365C 16.487335 13.219365 16.697407 13.349333 16.799999 13.555L 17.21875 14.40125M 30.05625 23.20875C 30.017282 23.433584 30.111176 23.660772 30.297499 23.7925C 30.484159 23.92647 30.730511 23.943409 30.93375 23.836248L 33.459999 22.512501C 33.637421 22.420013 33.848831 22.420013 34.026253 22.512501L 36.544998 23.83625C 36.748238 23.943409 36.994591 23.92647 37.181248 23.7925C 37.367798 23.660889 37.462135 23.433804 37.423752 23.20875L 36.939999 20.389999C 36.90617 20.197031 36.970333 19.999855 37.111248 19.86375L 39.165001 17.86375C 39.327663 17.705406 39.386303 17.46843 39.31625 17.252501C 39.243958 17.036079 39.055828 16.878902 38.829998 16.846251L 36 16.436251C 35.803513 16.408121 35.633408 16.285213 35.545002 16.1075L 34.285 13.555C 34.182404 13.349333 33.972336 13.219365 33.7425 13.219365C 33.512665 13.219365 33.302593 13.349333 33.200001 13.555L 32.78125 14.40125M 32.821251 35.177502L 27.45125 36.251251M 27.9825 30.16L 25.44875 31.23C 25.044178 31.397505 24.588512 31.391174 24.188749 31.2125C 23.784916 31.030701 23.47007 30.695614 23.313749 30.28125C 23.000118 29.472649 23.340511 28.55724 24.106251 28.15L 26.639999 26.885C 26.95332 26.722483 27.300793 26.636793 27.653749 26.635C 27.918503 26.634796 28.181093 26.682655 28.428751 26.776251L 33.633751 28.82625M 17.411249 36.294998L 19.405001 36.294998L 22.825001 38.903748C 23.157314 39.280933 23.729208 39.325779 24.116251 39.005001L 28.89625 35.05875C 29.290184 34.733147 29.353868 34.153343 29.039999 33.749996L 26.40625 30.825001M 23.83 28.328751L 23.5525 28.10125C 22.99465 27.687618 22.262159 27.592981 21.6175 27.85125L 17.348751 29.55875M 13.41125 37.71875L 16.065001 37.71875C 16.76811 37.756428 17.369627 37.219139 17.411251 36.516251L 17.411249 29.92375C 17.369627 29.220863 16.76811 28.683575 16.065001 28.721251L 13.41125 28.721251M 36.411251 37.71875L 34.2575 37.71875C 33.55439 37.756428 32.952873 37.219139 32.911251 36.516251L 32.911251 29.921249C 32.952873 29.218365 33.55439 28.681076 34.2575 28.71875L 36.411251 28.71875"></path></g></g></g><g id="g-root-tx_deployma_v7yxyyveeioc-stroke" data-item-order="0" data-item-id="tx_deployma_v7yxyyveeioc" data-item-class="Label Stroke" data-item-index="none" data-renderer-id="0" transform="translate(571, 471.4239501953125)"></g><g id="g-root-pen_zrj7gaveekul-stroke" data-item-order="0" data-item-id="pen_zrj7gaveekul" data-item-class="Icon Stroke" data-item-index="none" data-renderer-id="0" transform="translate(535, 36)"><g id="pen_zrj7gaveekul-stroke" fill="none" stroke-linecap="round" stroke-linejoin="round" stroke-miterlimit="4" stroke="#17b0e3" stroke-width="2"><g><path d="M 18.880001 21.744999L 25.130001 21.744999M 28.875 18L 35.9375 10.9375C 36.181561 10.693511 36.577187 10.693511 36.821251 10.9375L 38.4375 12.55375C 38.681488 12.797812 38.681488 13.193438 38.4375 13.4375L 31.375 20.5L 27.625 21.75ZM 28.880001 17.994999L 31.380001 20.494999M 13.875 30.25L 13.875 38.625C 13.875 38.970177 14.154822 39.25 14.5 39.25L 24.5 39.25C 24.845179 39.25 25.125 38.970177 25.125 38.625L 25.125 30.25M 11.375 32.375L 19.10125 25.8375C 19.334291 25.640282 19.675709 25.640282 19.908751 25.8375L 27.625 32.375M 21.375 39.25L 17.625 39.25L 17.625 35.5C 17.625 34.464466 18.464466 33.625 19.5 33.625C 20.535534 33.625 21.375 34.464466 21.375 35.5ZM 16.380001 21.744999L 15.13 21.744999"></path></g></g></g><g id="g-root-json_1umt9juvydqmd-stroke" data-item-order="0" data-item-id="json_1umt9juvydqmd" data-item-class="Icon Stroke" data-item-index="none" data-renderer-id="0" transform="translate(779, 480.4239501953125)"><g id="json_1umt9juvydqmd-stroke" fill="none" stroke-linecap="round" stroke-linejoin="round" stroke-miterlimit="4" stroke="#17b0e3" stroke-width="2"><g><path d="M 36.508751 15.625C 36.743187 15.859366 36.874928 16.177258 36.875 16.508749L 36.875 38.125C 36.875 38.815353 36.315353 39.375 35.625 39.375L 14.375 39.375C 13.684644 39.375 13.125 38.815353 13.125 38.125L 13.125 11.875C 13.125 11.184644 13.684644 10.625 14.375 10.625L 30.991249 10.625C 31.324005 10.627385 31.642075 10.762351 31.875 11ZM 22.5 21.254999L 18.125 25.629999L 22.5 30.004999M 27.5 21.254999L 31.875 25.629999L 27.5 30.004999"></path></g></g></g><g id="g-root-tx_analysis_1ly08zeveelms-stroke" data-item-order="0" data-item-id="tx_analysis_1ly08zeveelms" data-item-class="Label Stroke" data-item-index="none" data-renderer-id="0" transform="translate(571, 15)"></g><g id="g-root-mail_qqa3qyvebrpl-stroke" data-item-order="0" data-item-id="mail_qqa3qyvebrpl" data-item-class="Icon Stroke" data-item-index="none" data-renderer-id="0" transform="translate(779, 658.4239501953125)"><g id="mail_qqa3qyvebrpl-stroke" fill="none" stroke-linecap="round" stroke-linejoin="round" stroke-miterlimit="4" stroke="#17b0e3" stroke-width="2"><g><path d="M 39.375 30L 39.375 38.125C 39.375 38.815353 38.815353 39.375 38.125 39.375L 25.625 39.375C 24.934643 39.375 24.375 38.815353 24.375 38.125L 24.375 30M 39.375 30L 39.375 29.375C 39.375 28.684643 38.815353 28.125 38.125 28.125L 25.625 28.125C 24.934643 28.125 24.375 28.684643 24.375 29.375L 24.375 30L 30.875 34.06625C 31.483009 34.446255 32.254494 34.446255 32.862503 34.06625ZM 16.875 35.625L 20.625 35.625M 20.626251 29.375L 20.626251 35.625M 14.0625 35C 13.889911 35 13.75 35.139912 13.75 35.3125C 13.75 35.485088 13.889911 35.625 14.0625 35.625C 14.235089 35.625 14.375 35.485088 14.375 35.3125C 14.375 35.139912 14.235089 35 14.0625 35L 14.0625 35M 10.9375 35C 10.764911 35 10.625 35.139912 10.625 35.3125C 10.625 35.485088 10.764911 35.625 10.9375 35.625C 11.110089 35.625 11.25 35.485088 11.25 35.3125C 11.25 35.139912 11.110089 35 10.9375 35L 10.9375 35M 15.3125 13.4375C 15.139912 13.4375 15 13.577411 15 13.75C 15 13.922589 15.139912 14.0625 15.3125 14.0625C 15.485088 14.0625 15.625 13.922589 15.625 13.75C 15.625 13.577411 15.485088 13.4375 15.3125 13.4375L 15.3125 13.4375M 18.4375 13.4375C 18.264912 13.4375 18.125 13.577411 18.125 13.75C 18.125 13.922589 18.264912 14.0625 18.4375 14.0625C 18.610088 14.0625 18.75 13.922589 18.75 13.75C 18.75 13.577411 18.610088 13.4375 18.4375 13.4375L 18.4375 13.4375M 31.875 13.75C 31.875 12.02411 30.475891 10.625 28.75 10.625L 13.75 10.625C 12.02411 10.625 10.625 12.02411 10.625 13.75C 10.625 15.47589 12.02411 16.875 13.75 16.875L 28.75 16.875C 30.475891 16.875 31.875 15.47589 31.875 13.75ZM 15.3125 19.6875C 15.139912 19.6875 15 19.827412 15 20C 15 20.172588 15.139912 20.3125 15.3125 20.3125C 15.485088 20.3125 15.625 20.172588 15.625 20C 15.625 19.827412 15.485088 19.6875 15.3125 19.6875L 15.3125 19.6875M 18.4375 19.6875C 18.264912 19.6875 18.125 19.827412 18.125 20C 18.125 20.172588 18.264912 20.3125 18.4375 20.3125C 18.610088 20.3125 18.75 20.172588 18.75 20C 18.75 19.827412 18.610088 19.6875 18.4375 19.6875L 18.4375 19.6875M 31.875 20C 31.875 18.274111 30.475891 16.875 28.75 16.875L 13.75 16.875C 12.02411 16.875 10.625 18.274111 10.625 20C 10.625 21.725889 12.02411 23.125 13.75 23.125L 28.75 23.125C 30.475891 23.125 31.875 21.725889 31.875 20ZM 15.3125 25.9375C 15.139912 25.9375 15 26.077412 15 26.25C 15 26.422588 15.139912 26.5625 15.3125 26.5625C 15.485088 26.5625 15.625 26.422588 15.625 26.25C 15.625 26.077412 15.485088 25.9375 15.3125 25.9375L 15.3125 25.9375M 18.4375 25.9375C 18.264912 25.9375 18.125 26.077412 18.125 26.25C 18.125 26.422588 18.264912 26.5625 18.4375 26.5625C 18.610088 26.5625 18.75 26.422588 18.75 26.25C 18.75 26.077412 18.610088 25.9375 18.4375 25.9375L 18.4375 25.9375M 31.25 24.375C 30.65983 23.588106 29.733618 23.125 28.75 23.125L 13.75 23.125C 12.02411 23.125 10.625 24.524111 10.625 26.25C 10.625 27.975891 12.02411 29.375 13.75 29.375L 20.625 29.375"></path></g></g></g><g id="g-root-tx_qv9q56vocphn-stroke" data-item-order="0" data-item-id="tx_qv9q56vocphn" data-item-class="Label Stroke" data-item-index="none" data-renderer-id="0" transform="translate(815, 483.4239501953125)"></g><g id="g-root-cu_1d0hzsqvebqj0-stroke" data-item-order="2" data-item-id="cu_1d0hzsqvebqj0" data-item-class="Curve Stroke" data-item-index="none" data-renderer-id="0" transform="translate(195, 156.4239501953125)"><g id="cu_1d0hzsqvebqj0-stroke" fill="none" stroke-linecap="round" stroke-linejoin="round" stroke-miterlimit="4" stroke="#484848" stroke-width="2"><g><path d="M 10 55.1L 24 55.1L 38 55.1L 38 32.5L 38 10L 52 10L 64 10"></path><path d="M 58 16.5L 64.5 10L 58 3.5" stroke-dasharray="none"></path></g></g></g><g id="g-root-cu_1qbc12yvebs3l-stroke" data-item-order="2" data-item-id="cu_1qbc12yvebs3l" data-item-class="Curve Stroke" data-item-index="none" data-renderer-id="0" transform="translate(467, 156.4239501953125)"><g id="cu_1qbc12yvebs3l-stroke" fill="none" stroke-linecap="round" stroke-linejoin="round" stroke-miterlimit="4" stroke="#484848" stroke-width="2"><g><path d="M 10 10L 38 10L 64 10"></path><path d="M 58 16.5L 64.5 10L 58 3.5" stroke-dasharray="none"></path></g></g></g><g id="g-root-cu_1hgbhx6vebpqn-stroke" data-item-order="2" data-item-id="cu_1hgbhx6vebpqn" data-item-class="Curve Stroke" data-item-index="none" data-renderer-id="0" transform="translate(195, 201.5)"><g id="cu_1hgbhx6vebpqn-stroke" fill="none" stroke-linecap="round" stroke-linejoin="round" stroke-miterlimit="4" stroke="#484848" stroke-width="2"><g><path d="M 10 10.000122L 24 10.000122L 38 10.000122L 38 134.500122L 38 258.900122L 52 258.900122L 64 258.900122"></path><path d="M 58 265.400122L 64.5 258.900122L 58 252.400122" stroke-dasharray="none"></path></g></g></g><g id="g-root-cu_1d0hzsqvebqiy-stroke" data-item-order="2" data-item-id="cu_1d0hzsqvebqiy" data-item-class="Curve Stroke" data-item-index="none" data-renderer-id="0" transform="translate(195, 201.5)"><g id="cu_1d0hzsqvebqiy-stroke" fill="none" stroke-linecap="round" stroke-linejoin="round" stroke-miterlimit="4" stroke="#484848" stroke-width="2"><g><path d="M 10 10.000122L 24 10.000122L 38 10.000122L 38 51.000122L 38 91.900122L 52 91.900122L 64 91.900122"></path><path d="M 58 98.400122L 64.5 91.900122L 58 85.400122" stroke-dasharray="none"></path></g></g></g><g id="g-root-cu_1lviiyivebs3z-stroke" data-item-order="2" data-item-id="cu_1lviiyivebs3z" data-item-class="Curve Stroke" data-item-index="none" data-renderer-id="0" transform="translate(467, 246.4239501953125)"><g id="cu_1lviiyivebs3z-stroke" fill="none" stroke-linecap="round" stroke-linejoin="round" stroke-miterlimit="4" stroke="#484848" stroke-width="2"><g><path d="M 10 47.000122L 24 47.000122L 38 47.000122L 38 28.500122L 38 10.000122L 52 10.000122L 64 10.000122"></path><path d="M 58 16.500122L 64.5 10.000122L 58 3.500122" stroke-dasharray="none"></path></g></g></g><g id="g-root-cu_1lviiyivebs3w-stroke" data-item-order="2" data-item-id="cu_1lviiyivebs3w" data-item-class="Curve Stroke" data-item-index="none" data-renderer-id="0" transform="translate(467, 283.4239501953125)"><g id="cu_1lviiyivebs3w-stroke" fill="none" stroke-linecap="round" stroke-linejoin="round" stroke-miterlimit="4" stroke="#484848" stroke-width="2"><g><path d="M 10 10.000122L 24 10.000122L 38 10.000122L 38 28.500122L 38 47.000122L 52 47.000122L 64 47.000122"></path><path d="M 58 53.500122L 64.5 47.000122L 58 40.500122" stroke-dasharray="none"></path></g></g></g><g id="g-root-cu_1hgbhx6vebpqk-stroke" data-item-order="2" data-item-id="cu_1hgbhx6vebpqk" data-item-class="Curve Stroke" data-item-index="none" data-renderer-id="0" transform="translate(467, 51)"><g id="cu_1hgbhx6vebpqk-stroke" fill="none" stroke-linecap="round" stroke-linejoin="round" stroke-miterlimit="4" stroke="#484848" stroke-width="2"><g><path d="M 10 10.000122L 38 10.000122L 64 10.000122"></path><path d="M 58 16.500122L 64.5 10.000122L 58 3.500122" stroke-dasharray="none"></path></g></g></g><g id="g-root-cu_1ur5j7evebrb6-stroke" data-item-order="2" data-item-id="cu_1ur5j7evebrb6" data-item-class="Curve Stroke" data-item-index="none" data-renderer-id="0" transform="translate(467, 403.4239501953125)"><g id="cu_1ur5j7evebrb6-stroke" fill="none" stroke-linecap="round" stroke-linejoin="round" stroke-miterlimit="4" stroke="#484848" stroke-width="2"><g><path d="M 10 57L 24 57L 38 57L 38 33.5L 38 10L 52 10L 64 10"></path><path d="M 58 16.5L 64.5 10L 58 3.5" stroke-dasharray="none"></path></g></g></g><g id="g-root-cu_1ur5j7evebrb4-stroke" data-item-order="2" data-item-id="cu_1ur5j7evebrb4" data-item-class="Curve Stroke" data-item-index="none" data-renderer-id="0" transform="translate(467, 450.4239501953125)"><g id="cu_1ur5j7evebrb4-stroke" fill="none" stroke-linecap="round" stroke-linejoin="round" stroke-miterlimit="4" stroke="#484848" stroke-width="2"><g><path d="M 10 10L 24 10L 38 10L 38 32.5L 38 55L 52 55L 64 55"></path><path d="M 58 61.5L 64.5 55L 58 48.5" stroke-dasharray="none"></path></g></g></g><g id="g-root-cu_1d0hzsqvebqj2-stroke" data-item-order="2" data-item-id="cu_1d0hzsqvebqj2" data-item-class="Curve Stroke" data-item-index="none" data-renderer-id="0" transform="translate(195, 51)"><g id="cu_1d0hzsqvebqj2-stroke" fill="none" stroke-linecap="round" stroke-linejoin="round" stroke-miterlimit="4" stroke="#484848" stroke-width="2"><g><path d="M 10 160.500122L 24 160.500122L 38 160.500122L 38 85.200122L 38 10.000122L 52 10.000122L 64 10.000122"></path><path d="M 58 16.500122L 64.5 10.000122L 58 3.500122" stroke-dasharray="none"></path></g></g></g><g id="g-root-cu_5uzcqvebqpv-stroke" data-item-order="2" data-item-id="cu_5uzcqvebqpv" data-item-class="Curve Stroke" data-item-index="none" data-renderer-id="0" transform="translate(715, 495.4239501953125)"><g id="cu_5uzcqvebqpv-stroke" fill="none" stroke-linecap="round" stroke-linejoin="round" stroke-miterlimit="4" stroke="#484848" stroke-width="2"><g><path d="M 10 10L 23 10L 36 10L 36 99L 36 188L 49 188L 60 188"></path><path d="M 54 194.5L 60.5 188L 54 181.5" stroke-dasharray="none"></path></g></g></g><g id="g-root-cu_1qbc12yvebrbi-stroke" data-item-order="2" data-item-id="cu_1qbc12yvebrbi" data-item-class="Curve Stroke" data-item-index="none" data-renderer-id="0" transform="translate(715, 495.4239501953125)"><g id="cu_1qbc12yvebrbi-stroke" fill="none" stroke-linecap="round" stroke-linejoin="round" stroke-miterlimit="4" stroke="#484848" stroke-width="2"><g><path d="M 10 10L 23 10L 36 10L 36 50.5L 36 91L 49 91L 60 91"></path><path d="M 54 97.5L 60.5 91L 54 84.5" stroke-dasharray="none"></path></g></g></g><g id="g-root-cn_1qclokqvofimh-stroke" data-item-order="2" data-item-id="cn_1qclokqvofimh" data-item-class="Curve Stroke" data-item-index="none" data-renderer-id="0" transform="translate(715, 495.4239501953125)"><g id="cn_1qclokqvofimh-stroke" fill="none" stroke-linecap="round" stroke-linejoin="round" stroke-miterlimit="4" stroke="#484848" stroke-width="2"><g><path d="M 10 10L 36 10L 60 10"></path><path d="M 54 16.5L 60.5 10L 54 3.5" stroke-dasharray="none"></path></g></g></g></g></g></svg>