<?xml version="1.0" encoding="utf-8" standalone="yes"?>
<!DOCTYPE svg PUBLIC "-//W3C//DTD SVG 1.1//EN" "http://www.w3.org/Graphics/SVG/1.1/DTD/svg11.dtd">
<svg width="961" height="544" viewBox="0 0 961 544" style="fill:none;stroke:none;fill-rule:evenodd;clip-rule:evenodd;stroke-linecap:round;stroke-linejoin:round;stroke-miterlimit:1.5;" version="1.1" xmlns="http://www.w3.org/2000/svg" xmlns:xlink="http://www.w3.org/1999/xlink"><style id="fontImports">@import url("https://fonts.googleapis.com/css2?family=Roboto:wght@400;700&amp;display=block");</style><rect id="" x="0" y="0" width="961" height="544" style="fill: #ffffff;"></rect><g id="items" style="isolation: isolate"><g id="blend" style="mix-blend-mode:multiply"><g id="g-root-ro_qn5tks1360e11-fill" data-item-order="-28512" data-item-id="ro_qn5tks1360e11" data-item-class="Shape Stroke Fill" data-item-index="none" data-renderer-id="0" transform="translate(423, 153)"><g id="ro_qn5tks1360e11-fill" stroke="none" fill="#f0f0f0"><g><path d="M 34 10L 130 10C 130 10 154 10 154 34L 154 184C 154 184 154 208 130 208L 34 208C 34 208 10 208 10 184L 10 34C 10 34 10 10 34 10"></path></g></g></g><g id="g-root-ro_1lz9jwc1367fuv-fill" data-item-order="-20088" data-item-id="ro_1lz9jwc1367fuv" data-item-class="Shape Stroke Fill" data-item-index="none" data-renderer-id="0" transform="translate(3, 153)"><g id="ro_1lz9jwc1367fuv-fill" stroke="none" fill="#e9fbf3"><g><path d="M 22 10L 370 10C 370 10 382 10 382 22L 382 52C 382 52 382 64 370 64L 22 64C 22 64 10 64 10 52L 10 22C 10 22 10 10 22 10"></path></g></g></g><g id="g-root-ro_142d9mk1364mpt-fill" data-item-order="-16200" data-item-id="ro_142d9mk1364mpt" data-item-class="Shape Stroke Fill" data-item-index="none" data-renderer-id="0" transform="translate(597, 387)"><g id="ro_142d9mk1364mpt-fill" stroke="none" fill="#e6efff"><g><path d="M 22 10L 298 10C 298 10 310 10 310 22L 310 52C 310 52 310 64 298 64L 22 64C 22 64 10 64 10 52L 10 22C 10 22 10 10 22 10"></path></g></g></g><g id="g-root-ro_1lw53b01367fv2-fill" data-item-order="-13608" data-item-id="ro_1lw53b01367fv2" data-item-class="Shape Stroke Fill" data-item-index="none" data-renderer-id="0" transform="translate(87, 396)"><g id="ro_1lw53b01367fv2-fill" stroke="none" fill="#e6f9ff"><g><path d="M 22 10L 250 10C 250 10 262 10 262 22L 262 52C 262 52 262 64 250 64L 22 64C 22 64 10 64 10 52L 10 22C 10 22 10 10 22 10"></path></g></g></g><g id="g-root-ro_18jfpx8135w6iw-fill" data-item-order="-11664" data-item-id="ro_18jfpx8135w6iw" data-item-class="Shape Stroke Fill ColorFillGray ColorStrokeGray" data-item-index="none" data-renderer-id="0" transform="translate(543, 39)"><g id="ro_18jfpx8135w6iw-fill" stroke="none" fill="#f6f6f6"><g><path d="M 22 10L 214 10C 214 10 226 10 226 22L 226 52C 226 52 226 64 214 64L 22 64C 22 64 10 64 10 52L 10 22C 10 22 10 10 22 10"></path></g></g></g><g id="g-root-ro_v7ctmk135p6od-fill" data-item-order="-11016" data-item-id="ro_v7ctmk135p6od" data-item-class="Shape Stroke Fill" data-item-index="none" data-renderer-id="0" transform="translate(243, 3)"><g id="ro_v7ctmk135p6od-fill" stroke="none" fill="#f5fbe9"><g><path d="M 22 10L 202 10C 202 10 214 10 214 22L 214 52C 214 52 214 64 202 64L 22 64C 22 64 10 64 10 52L 10 22C 10 22 10 10 22 10"></path></g></g></g><g id="g-root-ro_8zj7g135z026-fill" data-item-order="-10368" data-item-id="ro_8zj7g135z026" data-item-class="Shape Stroke Fill" data-item-index="none" data-renderer-id="0" transform="translate(615, 153)"><g id="ro_8zj7g135z026-fill" stroke="none" fill="#ffe7e6"><g><path d="M 22 10L 190 10C 190 10 202 10 202 22L 202 52C 202 52 202 64 190 64L 22 64C 22 64 10 64 10 52L 10 22C 10 22 10 10 22 10"></path></g></g></g><g id="g-root-1_1cz981o135w5qn-fill" data-item-order="0" data-item-id="1_1cz981o135w5qn" data-item-class="Icon Stroke ColorFillGray ColorStrokeGray" data-item-index="none" data-renderer-id="0" transform="translate(555, 51)"></g><g id="g-root-tx_endofcha_1qa39bw135w7bi-fill" data-item-order="0" data-item-id="tx_endofcha_1qa39bw135w7bi" data-item-class="Label Stroke ColorFillGray ColorStrokeGray" data-item-index="none" data-renderer-id="0" transform="translate(591, 54)"><g id="tx_endofcha_1qa39bw135w7bi-fill" stroke="none" fill="#888888"><g><text style="font: 20px Roboto, sans-serif; white-space: pre;"><tspan x="17.12" y="34" dominant-baseline="ideographic">End of Charging</tspan></text></g></g></g><g id="g-root-tx_bmscharg_1um5wxo1360e86-fill" data-item-order="0" data-item-id="tx_bmscharg_1um5wxo1360e86" data-item-class="Label Stroke" data-item-index="none" data-renderer-id="0" transform="translate(183, 69)"><g id="tx_bmscharg_1um5wxo1360e86-fill" stroke="none" fill="#484848"><g><text style="font: 20px Roboto, sans-serif; white-space: pre;"><tspan x="15.03" y="34" dominant-baseline="ideographic">BMS Charging Demand</tspan></text></g></g></g><g id="g-root-cu_hwiscc135p5vm-fill" data-item-order="0" data-item-id="cu_hwiscc135p5vm" data-item-class="Curve Stroke ColorFillGray ColorStrokeGray" data-item-index="none" data-renderer-id="0" transform="translate(519, 66)"></g><g id="g-root-tx_chargers_1lqiwos1360f0v-fill" data-item-order="0" data-item-id="tx_chargers_1lqiwos1360f0v" data-item-class="Label Stroke" data-item-index="none" data-renderer-id="0" transform="translate(255, 105)"><g id="tx_chargers_1lqiwos1360f0v-fill" stroke="none" fill="#484848"><g><text style="font: 20px Roboto, sans-serif; white-space: pre;"><tspan x="15.91" y="34" dominant-baseline="ideographic">Charger Status</tspan></text></g></g></g><g id="g-root-cu_144v94s135p5ou-fill" data-item-order="0" data-item-id="cu_144v94s135p5ou" data-item-class="Curve Stroke ColorFillGray ColorStrokeGray" data-item-index="none" data-renderer-id="0" transform="translate(567, 93)"></g><g id="g-root-tx_bmsendof_1cvidj01360dfk-fill" data-item-order="0" data-item-id="tx_bmsendof_1cvidj01360dfk" data-item-class="Label Stroke" data-item-index="none" data-renderer-id="0" transform="translate(591, 105)"><g id="tx_bmsendof_1cvidj01360dfk-fill" stroke="none" fill="#484848"><g><text style="font: 20px Roboto, sans-serif; white-space: pre;"><tspan x="12.96" y="34" dominant-baseline="ideographic">BMS End of Charge Status</tspan></text></g></g></g><g id="g-root-cu_1d0i9do135p4w4-fill" data-item-order="0" data-item-id="cu_1d0i9do135p4w4" data-item-class="Curve Stroke ColorFillGray ColorStrokeGray" data-item-index="none" data-renderer-id="0" transform="translate(405, 57)"></g><g id="g-root-bars_1qf320s1367f2m-fill" data-item-order="0" data-item-id="bars_1qf320s1367f2m" data-item-class="Icon Stroke" data-item-index="none" data-renderer-id="0" transform="translate(333, 165)"></g><g id="g-root-cu_1d0i9do135p4w1-fill" data-item-order="0" data-item-id="cu_1d0i9do135p4w1" data-item-class="Curve Stroke ColorFillGray ColorStrokeGray" data-item-index="none" data-renderer-id="0" transform="translate(405, 57)"></g><g id="g-root-tx_charging_4pfif01367dot-fill" data-item-order="0" data-item-id="tx_charging_4pfif01367dot" data-item-class="Label Stroke" data-item-index="none" data-renderer-id="0" transform="translate(15, 168)"><g id="tx_charging_4pfif01367dot-fill" stroke="none" fill="#3bc482"><g><text style="font: 20px Roboto, sans-serif; white-space: pre;"><tspan x="14.87" y="34" dominant-baseline="ideographic">Charging Parameter Configuration</tspan></text></g></g></g><g id="g-root-cu_dgpa7w135p5vw-fill" data-item-order="0" data-item-id="cu_dgpa7w135p5vw" data-item-class="Curve Stroke ColorFillGray ColorStrokeGray" data-item-index="none" data-renderer-id="0" transform="translate(375, 180)"></g><g id="g-root-1_13ymby41360cg4-fill" data-item-order="0" data-item-id="1_13ymby41360cg4" data-item-class="Icon Stroke" data-item-index="none" data-renderer-id="0" transform="translate(471, 177)"></g><g id="g-root-2_94mjgc135yz9h-fill" data-item-order="0" data-item-id="2_94mjgc135yz9h" data-item-class="Icon Stroke" data-item-index="none" data-renderer-id="0" transform="translate(627, 165)"></g><g id="g-root-cu_90vs3g135p6od-fill" data-item-order="0" data-item-id="cu_90vs3g135p6od" data-item-class="Curve Stroke ColorFillGray ColorStrokeGray" data-item-index="none" data-renderer-id="0" transform="translate(567, 180)"></g><g id="g-root-tx_errorhan_mg31to135yxok-fill" data-item-order="0" data-item-id="tx_errorhan_mg31to135yxok" data-item-class="Label Stroke" data-item-index="none" data-renderer-id="0" transform="translate(663, 168)"><g id="tx_errorhan_mg31to135yxok-fill" stroke="none" fill="#e15e5a"><g><text style="font: 20px Roboto, sans-serif; white-space: pre;"><tspan x="12.38" y="34" dominant-baseline="ideographic">Error Handling</tspan></text></g></g></g><g id="g-root-tx_evbatter_qn5wqk1360dmz-fill" data-item-order="0" data-item-id="tx_evbatter_qn5wqk1360dmz" data-item-class="Label Stroke" data-item-index="none" data-renderer-id="0" transform="translate(111, 219)"><g id="tx_evbatter_qn5wqk1360dmz-fill" stroke="none" fill="#484848"><g><text style="font: 20px Roboto, sans-serif; white-space: pre;"><tspan x="17.27" y="34" dominant-baseline="ideographic">EV Battery Capabilities</tspan></text></g></g></g><g id="g-root-cu_1lvisjg135p6h6-fill" data-item-order="0" data-item-id="cu_1lvisjg135p6h6" data-item-class="Curve Stroke ColorFillGray ColorStrokeGray" data-item-index="none" data-renderer-id="0" transform="translate(333, 207)"></g><g id="g-root-cu_1hgbri4135p43p-fill" data-item-order="0" data-item-id="cu_1hgbri4135p43p" data-item-class="Curve Stroke ColorFillGray ColorStrokeGray" data-item-index="none" data-renderer-id="0" transform="translate(333, 207)"></g><g id="g-root-cu_1hgbri4135p43r-fill" data-item-order="0" data-item-id="cu_1hgbri4135p43r" data-item-class="Curve Stroke ColorFillGray ColorStrokeGray" data-item-index="none" data-renderer-id="0" transform="translate(333, 207)"></g><g id="g-root-cu_zp1r0c135p6h5-fill" data-item-order="0" data-item-id="cu_zp1r0c135p6h5" data-item-class="Curve Stroke ColorFillGray ColorStrokeGray" data-item-index="none" data-renderer-id="0" transform="translate(639, 207)"></g><g id="g-root-cu_zp1r0c135p6h8-fill" data-item-order="0" data-item-id="cu_zp1r0c135p6h8" data-item-class="Curve Stroke ColorFillGray ColorStrokeGray" data-item-index="none" data-renderer-id="0" transform="translate(639, 207)"></g><g id="g-root-cu_v9upz0135p43q-fill" data-item-order="0" data-item-id="cu_v9upz0135p43q" data-item-class="Curve Stroke ColorFillGray ColorStrokeGray" data-item-index="none" data-renderer-id="0" transform="translate(639, 207)"></g><g id="g-root-tx_charging_1d2dibg135yy2r-fill" data-item-order="0" data-item-id="tx_charging_1d2dibg135yy2r" data-item-class="Label Stroke" data-item-index="none" data-renderer-id="0" transform="translate(447, 231)"><g id="tx_charging_1d2dibg135yy2r-fill" stroke="none" fill="#484848"><g><text style="font: 20px Roboto, sans-serif; white-space: pre;"><tspan x="32.41" y="34" dominant-baseline="ideographic">GB/T </tspan><tspan x="15.61" y="58" dominant-baseline="ideographic">Charging </tspan><tspan x="19.38" y="82" dominant-baseline="ideographic">Process </tspan><tspan x="24.83" y="106" dominant-baseline="ideographic">Stages</tspan></text></g></g></g><g id="g-root-tx_permanen_13zvda41360e89-fill" data-item-order="0" data-item-id="tx_permanen_13zvda41360e89" data-item-class="Label Stroke" data-item-index="none" data-renderer-id="0" transform="translate(663, 219)"><g id="tx_permanen_13zvda41360e89-fill" stroke="none" fill="#484848"><g><text style="font: 20px Roboto, sans-serif; white-space: pre;"><tspan x="14.78" y="34" dominant-baseline="ideographic">Permanent Fault</tspan></text></g></g></g><g id="g-root-tx_chargerc_dbped81360f7w-fill" data-item-order="0" data-item-id="tx_chargerc_dbped81360f7w" data-item-class="Label Stroke" data-item-index="none" data-renderer-id="0" transform="translate(135, 255)"><g id="tx_chargerc_dbped81360f7w-fill" stroke="none" fill="#484848"><g><text style="font: 20px Roboto, sans-serif; white-space: pre;"><tspan x="16.45" y="34" dominant-baseline="ideographic">Charger Capabilities</tspan></text></g></g></g><g id="g-root-tx_recovera_qp1bzw1360cne-fill" data-item-order="0" data-item-id="tx_recovera_qp1bzw1360cne" data-item-class="Label Stroke" data-item-index="none" data-renderer-id="0" transform="translate(663, 255)"><g id="tx_recovera_qp1bzw1360cne-fill" stroke="none" fill="#484848"><g><text style="font: 20px Roboto, sans-serif; white-space: pre;"><tspan x="16.85" y="34" dominant-baseline="ideographic">Recoverable Fault - Shutdown</tspan></text></g></g></g><g id="g-root-tx_evandcha_vd301360dn1-fill" data-item-order="0" data-item-id="tx_evandcha_vd301360dn1" data-item-class="Label Stroke" data-item-index="none" data-renderer-id="0" transform="translate(63, 291)"><g id="tx_evandcha_vd301360dn1-fill" stroke="none" fill="#484848"><g><text style="font: 20px Roboto, sans-serif; white-space: pre;"><tspan x="12.57" y="34" dominant-baseline="ideographic">EV and Charger Ready Status</tspan></text></g></g></g><g id="g-root-tx_recovera_m97tvg1360dfn-fill" data-item-order="0" data-item-id="tx_recovera_m97tvg1360dfn" data-item-class="Label Stroke" data-item-index="none" data-renderer-id="0" transform="translate(663, 291)"><g id="tx_recovera_m97tvg1360dfn-fill" stroke="none" fill="#484848"><g><text style="font: 20px Roboto, sans-serif; white-space: pre;"><tspan x="16.77" y="34" dominant-baseline="ideographic">Recoverable Fault - Suspend</tspan></text></g></g></g><g id="g-root-cu_mccags135p535-fill" data-item-order="0" data-item-id="cu_mccags135p535" data-item-class="Curve Stroke ColorFillGray ColorStrokeGray" data-item-index="none" data-renderer-id="0" transform="translate(339, 351)"></g><g id="g-root-cu_qs5sl8135p4au-fill" data-item-order="0" data-item-id="cu_qs5sl8135p4au" data-item-class="Curve Stroke ColorFillGray ColorStrokeGray" data-item-index="none" data-renderer-id="0" transform="translate(525, 351)"></g><g id="g-root-cu_dgpa7w135p5vz-fill" data-item-order="0" data-item-id="cu_dgpa7w135p5vz" data-item-class="Curve Stroke ColorFillGray ColorStrokeGray" data-item-index="none" data-renderer-id="0" transform="translate(447, 30)"></g><g id="g-root-2_18itbzw135p53g-fill" data-item-order="0" data-item-id="2_18itbzw135p53g" data-item-class="Icon Stroke" data-item-index="none" data-renderer-id="0" transform="translate(405, 15)"></g><g id="g-root-hand_6hjp81367eh9-fill" data-item-order="0" data-item-id="hand_6hjp81367eh9" data-item-class="Icon Stroke" data-item-index="none" data-renderer-id="0" transform="translate(99, 408)"></g><g id="g-root-tx_charging_924jy41367dok-fill" data-item-order="0" data-item-id="tx_charging_924jy41367dok" data-item-class="Label Stroke" data-item-index="none" data-renderer-id="0" transform="translate(135, 411)"><g id="tx_charging_924jy41367dok-fill" stroke="none" fill="#17b0e3"><g><text style="font: 20px Roboto, sans-serif; white-space: pre;"><tspan x="13.51" y="34" dominant-baseline="ideographic">Charging Handshake</tspan></text></g></g></g><g id="g-root-tx_initialp_1ltna4c1364kcn-fill" data-item-order="0" data-item-id="tx_initialp_1ltna4c1364kcn" data-item-class="Label Stroke" data-item-index="none" data-renderer-id="0" transform="translate(609, 402)"><g id="tx_initialp_1ltna4c1364kcn-fill" stroke="none" fill="#4682e3"><g><text style="font: 20px Roboto, sans-serif; white-space: pre;"><tspan x="12.9" y="34" dominant-baseline="ideographic">Initial Physical Connection</tspan></text></g></g></g><g id="g-root-lapt_18i6rr01364lxk-fill" data-item-order="0" data-item-id="lapt_18i6rr01364lxk" data-item-class="Icon Stroke" data-item-index="none" data-renderer-id="0" transform="translate(855, 399)"></g><g id="g-root-cu_1qbcanw135p5ot-fill" data-item-order="0" data-item-id="cu_1qbcanw135p5ot" data-item-class="Curve Stroke ColorFillGray ColorStrokeGray" data-item-index="none" data-renderer-id="0" transform="translate(114, 444)"></g><g id="g-root-cu_1ur5ssc135p5og-fill" data-item-order="0" data-item-id="cu_1ur5ssc135p5og" data-item-class="Curve Stroke ColorFillGray ColorStrokeGray" data-item-index="none" data-renderer-id="0" transform="translate(114, 444)"></g><g id="g-root-cu_dgpa7w135p6o0-fill" data-item-order="0" data-item-id="cu_dgpa7w135p6o0" data-item-class="Curve Stroke ColorFillGray ColorStrokeGray" data-item-index="none" data-renderer-id="0" transform="translate(855, 435)"></g><g id="g-root-cu_5v8xo135p537-fill" data-item-order="0" data-item-id="cu_5v8xo135p537" data-item-class="Curve Stroke ColorFillGray ColorStrokeGray" data-item-index="none" data-renderer-id="0" transform="translate(855, 435)"></g><g id="g-root-tx_protocol_147zjek135z0nd-fill" data-item-order="0" data-item-id="tx_protocol_147zjek135z0nd" data-item-class="Label Stroke" data-item-index="none" data-renderer-id="0" transform="translate(135, 462)"><g id="tx_protocol_147zjek135z0nd-fill" stroke="none" fill="#484848"><g><text style="font: 20px Roboto, sans-serif; white-space: pre;"><tspan x="15.16" y="34" dominant-baseline="ideographic">Protocol Version Initiation</tspan></text></g></g></g><g id="g-root-tx_detectio_1uua324135z0nb-fill" data-item-order="0" data-item-id="tx_detectio_1uua324135z0nb" data-item-class="Label Stroke" data-item-index="none" data-renderer-id="0" transform="translate(549, 453)"><g id="tx_detectio_1uua324135z0nb-fill" stroke="none" fill="#484848"><g><text style="font: 20px Roboto, sans-serif; white-space: pre;"><tspan x="12.9" y="34" dominant-baseline="ideographic">Detection of Physical Connection</tspan></text></g></g></g><g id="g-root-tx_recognit_ziswzg1360cua-fill" data-item-order="0" data-item-id="tx_recognit_ziswzg1360cua" data-item-class="Label Stroke" data-item-index="none" data-renderer-id="0" transform="translate(135, 498)"><g id="tx_recognit_ziswzg1360cua-fill" stroke="none" fill="#484848"><g><text style="font: 20px Roboto, sans-serif; white-space: pre;"><tspan x="16.74" y="34" dominant-baseline="ideographic">Recognition Information</tspan></text></g></g></g><g id="g-root-tx_auxiliar_1hjg1rw135yz2g-fill" data-item-order="0" data-item-id="tx_auxiliar_1hjg1rw135yz2g" data-item-class="Label Stroke" data-item-index="none" data-renderer-id="0" transform="translate(633, 489)"><g id="tx_auxiliar_1hjg1rw135yz2g-fill" stroke="none" fill="#484848"><g><text style="font: 20px Roboto, sans-serif; white-space: pre;"><tspan x="17.22" y="34" dominant-baseline="ideographic">Auxiliary Power Supply</tspan></text></g></g></g><g id="g-root-tx_charging_1hegc8s135p4ar-fill" data-item-order="0" data-item-id="tx_charging_1hegc8s135p4ar" data-item-class="Label Stroke" data-item-index="none" data-renderer-id="0" transform="translate(255, 18)"><g id="tx_charging_1hegc8s135p4ar-fill" stroke="none" fill="#93c131"><g><text style="font: 20px Roboto, sans-serif; white-space: pre;"><tspan x="17.21" y="34" dominant-baseline="ideographic">Charging Loop</tspan></text></g></g></g><g id="g-root-ro_qn5tks1360e11-stroke" data-item-order="-28512" data-item-id="ro_qn5tks1360e11" data-item-class="Shape Stroke Fill" data-item-index="none" data-renderer-id="0" transform="translate(423, 153)"><g id="ro_qn5tks1360e11-stroke" fill="none" stroke-linecap="round" stroke-linejoin="round" stroke-miterlimit="4" stroke="#484848" stroke-width="2"><g><path d="M 34 10L 130 10C 130 10 154 10 154 34L 154 184C 154 184 154 208 130 208L 34 208C 34 208 10 208 10 184L 10 34C 10 34 10 10 34 10"></path></g></g></g><g id="g-root-ro_1lz9jwc1367fuv-stroke" data-item-order="-20088" data-item-id="ro_1lz9jwc1367fuv" data-item-class="Shape Stroke Fill" data-item-index="none" data-renderer-id="0" transform="translate(3, 153)"><g id="ro_1lz9jwc1367fuv-stroke" fill="none" stroke-linecap="round" stroke-linejoin="round" stroke-miterlimit="4" stroke="#3bc482" stroke-width="2"><g><path d="M 22 10L 370 10C 370 10 382 10 382 22L 382 52C 382 52 382 64 370 64L 22 64C 22 64 10 64 10 52L 10 22C 10 22 10 10 22 10"></path></g></g></g><g id="g-root-ro_142d9mk1364mpt-stroke" data-item-order="-16200" data-item-id="ro_142d9mk1364mpt" data-item-class="Shape Stroke Fill" data-item-index="none" data-renderer-id="0" transform="translate(597, 387)"><g id="ro_142d9mk1364mpt-stroke" fill="none" stroke-linecap="round" stroke-linejoin="round" stroke-miterlimit="4" stroke="#4682e3" stroke-width="2"><g><path d="M 22 10L 298 10C 298 10 310 10 310 22L 310 52C 310 52 310 64 298 64L 22 64C 22 64 10 64 10 52L 10 22C 10 22 10 10 22 10"></path></g></g></g><g id="g-root-ro_1lw53b01367fv2-stroke" data-item-order="-13608" data-item-id="ro_1lw53b01367fv2" data-item-class="Shape Stroke Fill" data-item-index="none" data-renderer-id="0" transform="translate(87, 396)"><g id="ro_1lw53b01367fv2-stroke" fill="none" stroke-linecap="round" stroke-linejoin="round" stroke-miterlimit="4" stroke="#17b0e3" stroke-width="2"><g><path d="M 22 10L 250 10C 250 10 262 10 262 22L 262 52C 262 52 262 64 250 64L 22 64C 22 64 10 64 10 52L 10 22C 10 22 10 10 22 10"></path></g></g></g><g id="g-root-ro_18jfpx8135w6iw-stroke" data-item-order="-11664" data-item-id="ro_18jfpx8135w6iw" data-item-class="Shape Stroke Fill ColorFillGray ColorStrokeGray" data-item-index="none" data-renderer-id="0" transform="translate(543, 39)"><g id="ro_18jfpx8135w6iw-stroke" fill="none" stroke-linecap="round" stroke-linejoin="round" stroke-miterlimit="4" stroke="#888888" stroke-width="2"><g><path d="M 22 10L 214 10C 214 10 226 10 226 22L 226 52C 226 52 226 64 214 64L 22 64C 22 64 10 64 10 52L 10 22C 10 22 10 10 22 10"></path></g></g></g><g id="g-root-ro_v7ctmk135p6od-stroke" data-item-order="-11016" data-item-id="ro_v7ctmk135p6od" data-item-class="Shape Stroke Fill" data-item-index="none" data-renderer-id="0" transform="translate(243, 3)"><g id="ro_v7ctmk135p6od-stroke" fill="none" stroke-linecap="round" stroke-linejoin="round" stroke-miterlimit="4" stroke="#93c131" stroke-width="2"><g><path d="M 22 10L 202 10C 202 10 214 10 214 22L 214 52C 214 52 214 64 202 64L 22 64C 22 64 10 64 10 52L 10 22C 10 22 10 10 22 10"></path></g></g></g><g id="g-root-ro_8zj7g135z026-stroke" data-item-order="-10368" data-item-id="ro_8zj7g135z026" data-item-class="Shape Stroke Fill" data-item-index="none" data-renderer-id="0" transform="translate(615, 153)"><g id="ro_8zj7g135z026-stroke" fill="none" stroke-linecap="round" stroke-linejoin="round" stroke-miterlimit="4" stroke="#e15e5a" stroke-width="2"><g><path d="M 22 10L 190 10C 190 10 202 10 202 22L 202 52C 202 52 202 64 190 64L 22 64C 22 64 10 64 10 52L 10 22C 10 22 10 10 22 10"></path></g></g></g><g id="g-root-1_1cz981o135w5qn-stroke" data-item-order="0" data-item-id="1_1cz981o135w5qn" data-item-class="Icon Stroke ColorFillGray ColorStrokeGray" data-item-index="none" data-renderer-id="0" transform="translate(555, 51)"><g id="1_1cz981o135w5qn-stroke" fill="none" stroke-linecap="round" stroke-linejoin="round" stroke-miterlimit="4" stroke="#888888" stroke-width="2"><g><path d="M 30.625 26.875L 34.375 26.875C 35.065353 26.875 35.625 26.315357 35.625 25.625L 35.625 23.125L 38.125 23.125C 38.815353 23.125 39.375 22.565357 39.375 21.875L 39.375 18.125C 39.375 17.434645 38.815353 16.875 38.125 16.875L 35.625 16.875L 35.625 14.375C 35.625 13.684644 35.065353 13.125 34.375 13.125L 11.875 13.125C 11.184644 13.125 10.625 13.684644 10.625 14.375L 10.625 25.625C 10.625 26.315357 11.184644 26.875 11.875 26.875L 15.625 26.875M 19.375 23.125L 26.875 23.125C 27.565357 23.125 28.125 23.684643 28.125 24.375L 28.125 28.125C 28.125002 30.196068 26.446068 31.875 24.375 31.875L 21.875 31.875C 19.803932 31.875 18.125 30.196068 18.125 28.125L 18.125 24.375C 18.125 23.684643 18.684645 23.125 19.375 23.125ZM 20.625 23.125L 20.625 18.125M 25.625 23.125L 25.625 18.125M 23.125 31.875L 23.125 36.875"></path></g></g></g><g id="g-root-tx_endofcha_1qa39bw135w7bi-stroke" data-item-order="0" data-item-id="tx_endofcha_1qa39bw135w7bi" data-item-class="Label Stroke ColorFillGray ColorStrokeGray" data-item-index="none" data-renderer-id="0" transform="translate(591, 54)"></g><g id="g-root-tx_bmscharg_1um5wxo1360e86-stroke" data-item-order="0" data-item-id="tx_bmscharg_1um5wxo1360e86" data-item-class="Label Stroke" data-item-index="none" data-renderer-id="0" transform="translate(183, 69)"></g><g id="g-root-cu_hwiscc135p5vm-stroke" data-item-order="0" data-item-id="cu_hwiscc135p5vm" data-item-class="Curve Stroke ColorFillGray ColorStrokeGray" data-item-index="none" data-renderer-id="0" transform="translate(519, 66)"><g id="cu_hwiscc135p5vm-stroke" fill="none" stroke-linecap="round" stroke-linejoin="round" stroke-miterlimit="4" stroke="#888888" stroke-width="2" stroke-dasharray="5.0, 7.0"><g><path d="M 10 97L 10 86.1L 10 30.9C 10 19.357248 19.357248 10 30.899998 10L 31 10L 34 10"></path></g></g></g><g id="g-root-tx_chargers_1lqiwos1360f0v-stroke" data-item-order="0" data-item-id="tx_chargers_1lqiwos1360f0v" data-item-class="Label Stroke" data-item-index="none" data-renderer-id="0" transform="translate(255, 105)"></g><g id="g-root-cu_144v94s135p5ou-stroke" data-item-order="0" data-item-id="cu_144v94s135p5ou" data-item-class="Curve Stroke ColorFillGray ColorStrokeGray" data-item-index="none" data-renderer-id="0" transform="translate(567, 93)"><g id="cu_144v94s135p5ou-stroke" fill="none" stroke-linecap="round" stroke-linejoin="round" stroke-miterlimit="4" stroke="#888888" stroke-width="2" stroke-dasharray="5.0, 7.0"><g><path d="M 10 10L 10 13L 10 22C 10 28.627416 15.372583 33.999999 22 33.999999L 22.1 34L 28 34"></path></g></g></g><g id="g-root-tx_bmsendof_1cvidj01360dfk-stroke" data-item-order="0" data-item-id="tx_bmsendof_1cvidj01360dfk" data-item-class="Label Stroke" data-item-index="none" data-renderer-id="0" transform="translate(591, 105)"></g><g id="g-root-cu_1d0i9do135p4w4-stroke" data-item-order="0" data-item-id="cu_1d0i9do135p4w4" data-item-class="Curve Stroke ColorFillGray ColorStrokeGray" data-item-index="none" data-renderer-id="0" transform="translate(405, 57)"><g id="cu_1d0i9do135p4w4-stroke" fill="none" stroke-linecap="round" stroke-linejoin="round" stroke-miterlimit="4" stroke="#888888" stroke-width="2" stroke-dasharray="5.0, 7.0"><g><path d="M 28 10L 28 17.5L 28 58C 27.999999 64.627415 22.627416 69.999998 16 69.999998L 15.9 70L 10 70"></path></g></g></g><g id="g-root-bars_1qf320s1367f2m-stroke" data-item-order="0" data-item-id="bars_1qf320s1367f2m" data-item-class="Icon Stroke" data-item-index="none" data-renderer-id="0" transform="translate(333, 165)"><g id="bars_1qf320s1367f2m-stroke" fill="none" stroke-linecap="round" stroke-linejoin="round" stroke-miterlimit="4" stroke="#3bc482" stroke-width="2"><g><path d="M 18.125 29.375L 13.75 29.375C 13.404822 29.375 13.125 29.095177 13.125 28.75L 13.125 21.25C 13.125 20.904823 13.404822 20.625 13.75 20.625L 18.125 20.625ZM 23.125 28.75C 23.125 29.095177 22.845177 29.375 22.5 29.375L 18.125 29.375L 18.125 20.625L 22.5 20.625C 22.845177 20.625 23.125 20.904823 23.125 21.25ZM 35.625 21.875L 35.625 19.375C 35.625 18.684645 35.065353 18.125 34.375 18.125L 11.875 18.125C 11.184644 18.125 10.625 18.684645 10.625 19.375L 10.625 30.625C 10.625 31.315355 11.184644 31.875 11.875 31.875L 34.375 31.875C 35.065353 31.875 35.625 31.315355 35.625 30.625L 35.625 28.125L 38.125 28.125C 38.815353 28.125 39.375 27.565357 39.375 26.875L 39.375 23.125C 39.375 22.434643 38.815353 21.875 38.125 21.875Z"></path></g></g></g><g id="g-root-cu_1d0i9do135p4w1-stroke" data-item-order="0" data-item-id="cu_1d0i9do135p4w1" data-item-class="Curve Stroke ColorFillGray ColorStrokeGray" data-item-index="none" data-renderer-id="0" transform="translate(405, 57)"><g id="cu_1d0i9do135p4w1-stroke" fill="none" stroke-linecap="round" stroke-linejoin="round" stroke-miterlimit="4" stroke="#888888" stroke-width="2" stroke-dasharray="5.0, 7.0"><g><path d="M 28 10L 28 22L 28 34L 19 34L 10 34"></path></g></g></g><g id="g-root-tx_charging_4pfif01367dot-stroke" data-item-order="0" data-item-id="tx_charging_4pfif01367dot" data-item-class="Label Stroke" data-item-index="none" data-renderer-id="0" transform="translate(15, 168)"></g><g id="g-root-cu_dgpa7w135p5vw-stroke" data-item-order="0" data-item-id="cu_dgpa7w135p5vw" data-item-class="Curve Stroke ColorFillGray ColorStrokeGray" data-item-index="none" data-renderer-id="0" transform="translate(375, 180)"><g id="cu_dgpa7w135p5vw-stroke" fill="none" stroke-linecap="round" stroke-linejoin="round" stroke-miterlimit="4" stroke="#888888" stroke-width="2" stroke-dasharray="5.0, 7.0"><g><path d="M 58 49L 55 49L 54.9 49C 50.14692 49.01475 45.077506 47.029525 40.600001 43.4C 37.91065 41.183074 35.49306 36.091481 34 29.500001C 32.50694 22.908522 30.08935 17.816929 27.4 15.6C 22.922496 11.970475 17.853081 9.98525 13.1 10L 13 10L 10 10"></path></g></g></g><g id="g-root-1_13ymby41360cg4-stroke" data-item-order="0" data-item-id="1_13ymby41360cg4" data-item-class="Icon Stroke" data-item-index="none" data-renderer-id="0" transform="translate(471, 177)"><g id="1_13ymby41360cg4-stroke" fill="none" stroke-linecap="round" stroke-linejoin="round" stroke-miterlimit="4" stroke="#484848" stroke-width="2"><g><path d="M 33.743999 18.454L 31.118 21.08L 33.743999 23.708M 22.4 14L 22.4 11.5L 16.144001 11.5L 16.144001 14L 15.102 14C 13.97053 13.982183 13.038628 14.884542 13.02 16.015999L 13.02 28.643999C 13.037537 29.776243 13.969761 30.679811 15.102 30.662001L 23.434 30.662001C 24.566238 30.679811 25.498463 29.776243 25.515999 28.643999L 25.515999 16.015999C 25.497372 14.884542 24.56547 13.982183 23.434 14ZM 13.02 18.868L 25.515999 18.868M 39.75 26.496L 39.75 16.015999C 39.768627 14.884542 40.700531 13.982183 41.832001 14L 42.874001 14L 42.874001 11.5L 49.122002 11.5L 49.122002 14L 50.580002 14C 51.500107 14 52.246002 14.745893 52.246002 15.666L 52.245998 18.164M 41.832001 30.662001L 50.164001 30.662001C 51.296238 30.679811 52.228462 29.776243 52.245998 28.643999L 52.245998 23.164M 37.25 28.162001L 54.98 16.341999M 45.661999 52.271999C 46.829529 52.271999 47.776001 51.325531 47.776001 50.158001C 47.774063 48.807571 47.236813 47.512993 46.282001 46.558002L 43.548 43.824001L 20.293999 43.824001L 17.559999 46.549999C 16.60519 47.504993 16.06794 48.799572 16.066 50.150002C 16.063873 50.712051 16.285658 51.251816 16.682341 51.649998C 17.079023 52.048183 17.617943 52.272003 18.18 52.271999ZM 20.293999 43.816002L 22.694 37.416C 23.15826 36.179161 24.3409 35.359921 25.661999 35.360001L 38.18 35.360001C 39.501606 35.360233 40.684395 36.180374 41.148003 37.417999L 43.548 43.818001M 20.293999 52.271999L 26.094 52.271999L 26.094 52.271999L 26.094 54.5C 26.094 55.604568 25.19857 56.5 24.094 56.5L 22.293999 56.5C 21.18943 56.5 20.293999 55.604568 20.293999 54.5L 20.293999 52.271999L 20.293999 52.271999ZM 37.751999 52.271999L 43.551998 52.271999L 43.551998 52.271999L 43.551998 54.5C 43.551998 55.604568 42.65657 56.5 41.552002 56.5L 39.751999 56.5C 38.64743 56.5 37.751999 55.604568 37.751999 54.5L 37.751999 52.271999L 37.751999 52.271999ZM 21.936001 48.043999L 24.896 48.043999M 38.945999 48.043999L 41.905998 48.043999"></path></g></g></g><g id="g-root-2_94mjgc135yz9h-stroke" data-item-order="0" data-item-id="2_94mjgc135yz9h" data-item-class="Icon Stroke" data-item-index="none" data-renderer-id="0" transform="translate(627, 165)"><g id="2_94mjgc135yz9h-stroke" fill="none" stroke-linecap="round" stroke-linejoin="round" stroke-miterlimit="4" stroke="#e15e5a" stroke-width="2"><g><path d="M 11.875 13.75L 38.125 13.75C 38.125 13.75 39.375 13.75 39.375 15L 39.375 35C 39.375 35 39.375 36.25 38.125 36.25L 11.875 36.25C 11.875 36.25 10.625 36.25 10.625 35L 10.625 15C 10.625 15 10.625 13.75 11.875 13.75M 10 10M 30 19.9175L 19.834999 30.0825M 19.834999 19.9175L 30 30.0825"></path></g></g></g><g id="g-root-cu_90vs3g135p6od-stroke" data-item-order="0" data-item-id="cu_90vs3g135p6od" data-item-class="Curve Stroke ColorFillGray ColorStrokeGray" data-item-index="none" data-renderer-id="0" transform="translate(567, 180)"><g id="cu_90vs3g135p6od-stroke" fill="none" stroke-linecap="round" stroke-linejoin="round" stroke-miterlimit="4" stroke="#888888" stroke-width="2" stroke-dasharray="5.0, 7.0"><g><path d="M 10 49L 13 49L 13.1 49C 17.853079 49.01475 22.922494 47.029525 27.399999 43.4C 30.089349 41.183074 32.50694 36.091481 34 29.500001C 35.493059 22.908522 37.91065 17.816929 40.6 15.6C 45.077504 11.970475 50.146919 9.98525 54.9 10L 55 10L 58 10"></path></g></g></g><g id="g-root-tx_errorhan_mg31to135yxok-stroke" data-item-order="0" data-item-id="tx_errorhan_mg31to135yxok" data-item-class="Label Stroke" data-item-index="none" data-renderer-id="0" transform="translate(663, 168)"></g><g id="g-root-tx_evbatter_qn5wqk1360dmz-stroke" data-item-order="0" data-item-id="tx_evbatter_qn5wqk1360dmz" data-item-class="Label Stroke" data-item-index="none" data-renderer-id="0" transform="translate(111, 219)"></g><g id="g-root-cu_1lvisjg135p6h6-stroke" data-item-order="0" data-item-id="cu_1lvisjg135p6h6" data-item-class="Curve Stroke ColorFillGray ColorStrokeGray" data-item-index="none" data-renderer-id="0" transform="translate(333, 207)"><g id="cu_1lvisjg135p6h6-stroke" fill="none" stroke-linecap="round" stroke-linejoin="round" stroke-miterlimit="4" stroke="#888888" stroke-width="2" stroke-dasharray="5.0, 7.0"><g><path d="M 28 10L 28 22L 28 34L 19 34L 10 34"></path></g></g></g><g id="g-root-cu_1hgbri4135p43p-stroke" data-item-order="0" data-item-id="cu_1hgbri4135p43p" data-item-class="Curve Stroke ColorFillGray ColorStrokeGray" data-item-index="none" data-renderer-id="0" transform="translate(333, 207)"><g id="cu_1hgbri4135p43p-stroke" fill="none" stroke-linecap="round" stroke-linejoin="round" stroke-miterlimit="4" stroke="#888888" stroke-width="2" stroke-dasharray="5.0, 7.0"><g><path d="M 28 10L 28 40L 28 70L 19 70L 10 70"></path></g></g></g><g id="g-root-cu_1hgbri4135p43r-stroke" data-item-order="0" data-item-id="cu_1hgbri4135p43r" data-item-class="Curve Stroke ColorFillGray ColorStrokeGray" data-item-index="none" data-renderer-id="0" transform="translate(333, 207)"><g id="cu_1hgbri4135p43r-stroke" fill="none" stroke-linecap="round" stroke-linejoin="round" stroke-miterlimit="4" stroke="#888888" stroke-width="2" stroke-dasharray="5.0, 7.0"><g><path d="M 28 10L 28 22L 28 94C 28.000002 100.627415 22.627419 105.999998 16.000002 105.999998L 15.9 106L 10 106"></path></g></g></g><g id="g-root-cu_zp1r0c135p6h5-stroke" data-item-order="0" data-item-id="cu_zp1r0c135p6h5" data-item-class="Curve Stroke ColorFillGray ColorStrokeGray" data-item-index="none" data-renderer-id="0" transform="translate(639, 207)"><g id="cu_zp1r0c135p6h5-stroke" fill="none" stroke-linecap="round" stroke-linejoin="round" stroke-miterlimit="4" stroke="#888888" stroke-width="2" stroke-dasharray="5.0, 7.0"><g><path d="M 10 10L 10 22L 10 34L 19 34L 28 34"></path></g></g></g><g id="g-root-cu_zp1r0c135p6h8-stroke" data-item-order="0" data-item-id="cu_zp1r0c135p6h8" data-item-class="Curve Stroke ColorFillGray ColorStrokeGray" data-item-index="none" data-renderer-id="0" transform="translate(639, 207)"><g id="cu_zp1r0c135p6h8-stroke" fill="none" stroke-linecap="round" stroke-linejoin="round" stroke-miterlimit="4" stroke="#888888" stroke-width="2" stroke-dasharray="5.0, 7.0"><g><path d="M 10 10L 10 40L 10 70L 19 70L 28 70"></path></g></g></g><g id="g-root-cu_v9upz0135p43q-stroke" data-item-order="0" data-item-id="cu_v9upz0135p43q" data-item-class="Curve Stroke ColorFillGray ColorStrokeGray" data-item-index="none" data-renderer-id="0" transform="translate(639, 207)"><g id="cu_v9upz0135p43q-stroke" fill="none" stroke-linecap="round" stroke-linejoin="round" stroke-miterlimit="4" stroke="#888888" stroke-width="2" stroke-dasharray="5.0, 7.0"><g><path d="M 10 10L 10 22L 10 94C 10.000004 100.627423 15.372587 106.000006 22.000005 106.000005L 22.1 106L 28 106"></path></g></g></g><g id="g-root-tx_charging_1d2dibg135yy2r-stroke" data-item-order="0" data-item-id="tx_charging_1d2dibg135yy2r" data-item-class="Label Stroke" data-item-index="none" data-renderer-id="0" transform="translate(447, 231)"></g><g id="g-root-tx_permanen_13zvda41360e89-stroke" data-item-order="0" data-item-id="tx_permanen_13zvda41360e89" data-item-class="Label Stroke" data-item-index="none" data-renderer-id="0" transform="translate(663, 219)"></g><g id="g-root-tx_chargerc_dbped81360f7w-stroke" data-item-order="0" data-item-id="tx_chargerc_dbped81360f7w" data-item-class="Label Stroke" data-item-index="none" data-renderer-id="0" transform="translate(135, 255)"></g><g id="g-root-tx_recovera_qp1bzw1360cne-stroke" data-item-order="0" data-item-id="tx_recovera_qp1bzw1360cne" data-item-class="Label Stroke" data-item-index="none" data-renderer-id="0" transform="translate(663, 255)"></g><g id="g-root-tx_evandcha_vd301360dn1-stroke" data-item-order="0" data-item-id="tx_evandcha_vd301360dn1" data-item-class="Label Stroke" data-item-index="none" data-renderer-id="0" transform="translate(63, 291)"></g><g id="g-root-tx_recovera_m97tvg1360dfn-stroke" data-item-order="0" data-item-id="tx_recovera_m97tvg1360dfn" data-item-class="Label Stroke" data-item-index="none" data-renderer-id="0" transform="translate(663, 291)"></g><g id="g-root-cu_mccags135p535-stroke" data-item-order="0" data-item-id="cu_mccags135p535" data-item-class="Curve Stroke ColorFillGray ColorStrokeGray" data-item-index="none" data-renderer-id="0" transform="translate(339, 351)"><g id="cu_mccags135p535-stroke" fill="none" stroke-linecap="round" stroke-linejoin="round" stroke-miterlimit="4" stroke="#888888" stroke-width="2" stroke-dasharray="5.0, 7.0"><g><path d="M 130 10L 130 19L 130 58C 129.999995 71.254831 119.25483 81.999997 105.999996 81.999997L 105.9 82L 10 82"></path></g></g></g><g id="g-root-cu_qs5sl8135p4au-stroke" data-item-order="0" data-item-id="cu_qs5sl8135p4au" data-item-class="Curve Stroke ColorFillGray ColorStrokeGray" data-item-index="none" data-renderer-id="0" transform="translate(525, 351)"><g id="cu_qs5sl8135p4au-stroke" fill="none" stroke-linecap="round" stroke-linejoin="round" stroke-miterlimit="4" stroke="#888888" stroke-width="2" stroke-dasharray="5.0, 7.0"><g><path d="M 10 10L 10 17.9L 10 49C 10 62.254832 20.745166 72.999997 33.999999 72.999997L 34.1 73L 82 73"></path></g></g></g><g id="g-root-cu_dgpa7w135p5vz-stroke" data-item-order="0" data-item-id="cu_dgpa7w135p5vz" data-item-class="Curve Stroke ColorFillGray ColorStrokeGray" data-item-index="none" data-renderer-id="0" transform="translate(447, 30)"><g id="cu_dgpa7w135p5vz-stroke" fill="none" stroke-linecap="round" stroke-linejoin="round" stroke-miterlimit="4" stroke="#888888" stroke-width="2" stroke-dasharray="5.0, 7.0"><g><path d="M 34 133L 34 117.6L 34 30.9C 33.999998 19.357248 24.64275 10 13.1 10L 13 10L 10 10"></path></g></g></g><g id="g-root-2_18itbzw135p53g-stroke" data-item-order="0" data-item-id="2_18itbzw135p53g" data-item-class="Icon Stroke" data-item-index="none" data-renderer-id="0" transform="translate(405, 15)"><g id="2_18itbzw135p53g-stroke" fill="none" stroke-linecap="round" stroke-linejoin="round" stroke-miterlimit="4" stroke="#93c131" stroke-width="2"><g><path d="M 17.625 13.69875L 17.625 11.91375L 13.1675 11.91375L 13.1675 13.69875L 12.425 13.69875C 11.61655 13.685526 10.950511 14.330297 10.9375 15.13875L 10.9375 24.155001C 10.951196 24.963158 11.616825 25.607531 12.425 25.595001L 18.375 25.594999C 19.183174 25.607531 19.848804 24.963158 19.862501 24.155001L 19.862499 15.13875C 19.849489 14.330297 19.183449 13.685526 18.375 13.69875ZM 10.9375 17.174999L 19.860001 17.174999M 28.1875 35.112499L 28.1875 27.625C 28.201197 26.816845 28.866827 26.17247 29.675001 26.185001L 30.4175 26.184999L 30.4175 24.405001L 34.875 24.405001L 34.875 26.189999L 35.916248 26.189999C 36.231743 26.189669 36.534428 26.314766 36.757629 26.537735C 36.980835 26.760704 37.106251 27.063257 37.106251 27.37875L 37.106251 29.16375M 29.674999 38.08625L 35.625 38.08625C 36.433178 38.098782 37.098804 37.454407 37.112499 36.646252L 37.112499 32.732502M 26.4025 36.30125L 39.0625 27.862499M 24.625 14.2925L 30.5725 14.2925C 31.884176 14.2925 32.947498 15.355824 32.947498 16.6675L 32.947498 20.83625M 29.9725 18.4575L 32.946251 21.431252L 35.919998 18.4575M 23.428749 36.30125L 17.48 36.30125C 16.168324 36.30125 15.105 35.237926 15.105 33.92625L 15.105 29.758751M 18.075001 32.137497L 15.10125 29.16375L 12.1275 32.137497"></path></g></g></g><g id="g-root-hand_6hjp81367eh9-stroke" data-item-order="0" data-item-id="hand_6hjp81367eh9" data-item-class="Icon Stroke" data-item-index="none" data-renderer-id="0" transform="translate(99, 408)"><g id="hand_6hjp81367eh9-stroke" fill="none" stroke-linecap="round" stroke-linejoin="round" stroke-miterlimit="4" stroke="#17b0e3" stroke-width="2"><g><path d="M 29.114285 24.228571L 23.928572 27.678572L 20.714285 24.464285L 26.071428 18.035713L 31.42857 18.035713L 36.785713 15.892857M 30.635714 29.928572L 36.785713 26.607141M 38.92857 28.75L 36.785713 28.75L 36.785713 14.821428L 38.92857 14.821428M 27.078571 25.578571L 31.42857 30.892857L 20.714285 35.17857L 13.214286 28.75M 13.214286 18.035713L 20.714285 18.035713L 23.457144 21.164286M 11.071428 16.964285L 13.214286 16.964285L 13.214286 29.821428L 11.071428 29.821428"></path></g></g></g><g id="g-root-tx_charging_924jy41367dok-stroke" data-item-order="0" data-item-id="tx_charging_924jy41367dok" data-item-class="Label Stroke" data-item-index="none" data-renderer-id="0" transform="translate(135, 411)"></g><g id="g-root-tx_initialp_1ltna4c1364kcn-stroke" data-item-order="0" data-item-id="tx_initialp_1ltna4c1364kcn" data-item-class="Label Stroke" data-item-index="none" data-renderer-id="0" transform="translate(609, 402)"></g><g id="g-root-lapt_18i6rr01364lxk-stroke" data-item-order="0" data-item-id="lapt_18i6rr01364lxk" data-item-class="Icon Stroke" data-item-index="none" data-renderer-id="0" transform="translate(855, 399)"><g id="lapt_18i6rr01364lxk-stroke" fill="none" stroke-linecap="round" stroke-linejoin="round" stroke-miterlimit="4" stroke="#4682e3" stroke-width="2"><g><path d="M 36.875 33.125L 12.47625 33.125C 12.03012 33.124096 11.61829 32.88549 11.395616 32.498905C 11.172942 32.11232 11.173183 31.63636 11.39625 31.25L 14.3125 26.25C 14.535338 25.864031 14.946823 25.625904 15.3925 25.625L 33.956253 25.625C 34.401928 25.625904 34.813412 25.864031 35.036247 26.25L 37.952499 31.25C 38.175346 31.635973 38.175827 32.111404 37.953762 32.497829C 37.731697 32.884251 37.320683 33.123207 36.875 33.125ZM 15.625 10.625L 33.125 10.625C 33.125 10.625 34.375 10.625 34.375 11.875L 34.375 24.375C 34.375 24.375 34.375 25.625 33.125 25.625L 15.625 25.625C 15.625 25.625 14.375 25.625 14.375 24.375L 14.375 11.875C 14.375 11.875 14.375 10.625 15.625 10.625M 10.625 39.375L 39.375 39.375M 24.375 33.125L 24.375 39.375M 22.5 30.625L 26.25 30.625"></path></g></g></g><g id="g-root-cu_1qbcanw135p5ot-stroke" data-item-order="0" data-item-id="cu_1qbcanw135p5ot" data-item-class="Curve Stroke ColorFillGray ColorStrokeGray" data-item-index="none" data-renderer-id="0" transform="translate(114, 444)"><g id="cu_1qbcanw135p5ot-stroke" fill="none" stroke-linecap="round" stroke-linejoin="round" stroke-miterlimit="4" stroke="#888888" stroke-width="2" stroke-dasharray="5.0, 7.0"><g><path d="M 10 10L 10 25L 10 40L 17.5 40L 25 40"></path></g></g></g><g id="g-root-cu_1ur5ssc135p5og-stroke" data-item-order="0" data-item-id="cu_1ur5ssc135p5og" data-item-class="Curve Stroke ColorFillGray ColorStrokeGray" data-item-index="none" data-renderer-id="0" transform="translate(114, 444)"><g id="cu_1ur5ssc135p5og-stroke" fill="none" stroke-linecap="round" stroke-linejoin="round" stroke-miterlimit="4" stroke="#888888" stroke-width="2" stroke-dasharray="5.0, 7.0"><g><path d="M 10 10L 10 18.3L 10 64C 10.000001 70.627416 15.372584 75.999999 22.000001 75.999998L 22.1 76L 25 76"></path></g></g></g><g id="g-root-cu_dgpa7w135p6o0-stroke" data-item-order="0" data-item-id="cu_dgpa7w135p6o0" data-item-class="Curve Stroke ColorFillGray ColorStrokeGray" data-item-index="none" data-renderer-id="0" transform="translate(855, 435)"><g id="cu_dgpa7w135p6o0-stroke" fill="none" stroke-linecap="round" stroke-linejoin="round" stroke-miterlimit="4" stroke="#888888" stroke-width="2" stroke-dasharray="5.0, 7.0"><g><path d="M 25 10L 25 25L 25 40L 17.5 40L 10 40"></path></g></g></g><g id="g-root-cu_5v8xo135p537-stroke" data-item-order="0" data-item-id="cu_5v8xo135p537" data-item-class="Curve Stroke ColorFillGray ColorStrokeGray" data-item-index="none" data-renderer-id="0" transform="translate(855, 435)"><g id="cu_5v8xo135p537-stroke" fill="none" stroke-linecap="round" stroke-linejoin="round" stroke-miterlimit="4" stroke="#888888" stroke-width="2" stroke-dasharray="5.0, 7.0"><g><path d="M 25 10L 25 18.3L 25 64C 24.999999 70.627419 19.627416 76.000002 12.999998 76.000002L 12.9 76L 10 76"></path></g></g></g><g id="g-root-tx_protocol_147zjek135z0nd-stroke" data-item-order="0" data-item-id="tx_protocol_147zjek135z0nd" data-item-class="Label Stroke" data-item-index="none" data-renderer-id="0" transform="translate(135, 462)"></g><g id="g-root-tx_detectio_1uua324135z0nb-stroke" data-item-order="0" data-item-id="tx_detectio_1uua324135z0nb" data-item-class="Label Stroke" data-item-index="none" data-renderer-id="0" transform="translate(549, 453)"></g><g id="g-root-tx_recognit_ziswzg1360cua-stroke" data-item-order="0" data-item-id="tx_recognit_ziswzg1360cua" data-item-class="Label Stroke" data-item-index="none" data-renderer-id="0" transform="translate(135, 498)"></g><g id="g-root-tx_auxiliar_1hjg1rw135yz2g-stroke" data-item-order="0" data-item-id="tx_auxiliar_1hjg1rw135yz2g" data-item-class="Label Stroke" data-item-index="none" data-renderer-id="0" transform="translate(633, 489)"></g><g id="g-root-tx_charging_1hegc8s135p4ar-stroke" data-item-order="0" data-item-id="tx_charging_1hegc8s135p4ar" data-item-class="Label Stroke" data-item-index="none" data-renderer-id="0" transform="translate(255, 18)"></g></g></g></svg>